G04 #@! TF.GenerationSoftware,KiCad,Pcbnew,7.0.9*
G04 #@! TF.CreationDate,2024-10-14T21:56:28+02:00*
G04 #@! TF.ProjectId,unister,756e6973-7465-4722-9e6b-696361645f70,rev?*
G04 #@! TF.SameCoordinates,Original*
G04 #@! TF.FileFunction,Copper,L1,Top*
G04 #@! TF.FilePolarity,Positive*
%FSLAX46Y46*%
G04 Gerber Fmt 4.6, Leading zero omitted, Abs format (unit mm)*
G04 Created by KiCad (PCBNEW 7.0.9) date 2024-10-14 21:56:28*
%MOMM*%
%LPD*%
G01*
G04 APERTURE LIST*
G04 Aperture macros list*
%AMRoundRect*
0 Rectangle with rounded corners*
0 $1 Rounding radius*
0 $2 $3 $4 $5 $6 $7 $8 $9 X,Y pos of 4 corners*
0 Add a 4 corners polygon primitive as box body*
4,1,4,$2,$3,$4,$5,$6,$7,$8,$9,$2,$3,0*
0 Add four circle primitives for the rounded corners*
1,1,$1+$1,$2,$3*
1,1,$1+$1,$4,$5*
1,1,$1+$1,$6,$7*
1,1,$1+$1,$8,$9*
0 Add four rect primitives between the rounded corners*
20,1,$1+$1,$2,$3,$4,$5,0*
20,1,$1+$1,$4,$5,$6,$7,0*
20,1,$1+$1,$6,$7,$8,$9,0*
20,1,$1+$1,$8,$9,$2,$3,0*%
G04 Aperture macros list end*
G04 #@! TA.AperFunction,ComponentPad*
%ADD10R,2.000000X2.000000*%
G04 #@! TD*
G04 #@! TA.AperFunction,ComponentPad*
%ADD11C,2.000000*%
G04 #@! TD*
G04 #@! TA.AperFunction,ComponentPad*
%ADD12C,1.600000*%
G04 #@! TD*
G04 #@! TA.AperFunction,ComponentPad*
%ADD13O,1.600000X1.600000*%
G04 #@! TD*
G04 #@! TA.AperFunction,ComponentPad*
%ADD14C,1.524000*%
G04 #@! TD*
G04 #@! TA.AperFunction,ComponentPad*
%ADD15R,2.200000X2.200000*%
G04 #@! TD*
G04 #@! TA.AperFunction,ComponentPad*
%ADD16O,2.200000X2.200000*%
G04 #@! TD*
G04 #@! TA.AperFunction,ComponentPad*
%ADD17C,1.270000*%
G04 #@! TD*
G04 #@! TA.AperFunction,ComponentPad*
%ADD18C,1.400000*%
G04 #@! TD*
G04 #@! TA.AperFunction,ComponentPad*
%ADD19RoundRect,0.250000X1.550000X-0.650000X1.550000X0.650000X-1.550000X0.650000X-1.550000X-0.650000X0*%
G04 #@! TD*
G04 #@! TA.AperFunction,ComponentPad*
%ADD20O,3.600000X1.800000*%
G04 #@! TD*
G04 #@! TA.AperFunction,ComponentPad*
%ADD21RoundRect,0.250000X-0.650000X-1.550000X0.650000X-1.550000X0.650000X1.550000X-0.650000X1.550000X0*%
G04 #@! TD*
G04 #@! TA.AperFunction,ComponentPad*
%ADD22O,1.800000X3.600000*%
G04 #@! TD*
G04 #@! TA.AperFunction,ComponentPad*
%ADD23R,1.500000X1.500000*%
G04 #@! TD*
G04 #@! TA.AperFunction,ComponentPad*
%ADD24C,1.500000*%
G04 #@! TD*
G04 #@! TA.AperFunction,ComponentPad*
%ADD25R,2.500000X2.500000*%
G04 #@! TD*
G04 #@! TA.AperFunction,ComponentPad*
%ADD26O,2.500000X2.500000*%
G04 #@! TD*
G04 #@! TA.AperFunction,ComponentPad*
%ADD27RoundRect,0.500000X0.900000X-0.500000X0.900000X0.500000X-0.900000X0.500000X-0.900000X-0.500000X0*%
G04 #@! TD*
G04 #@! TA.AperFunction,ComponentPad*
%ADD28O,2.800000X2.000000*%
G04 #@! TD*
G04 #@! TA.AperFunction,ComponentPad*
%ADD29R,2.400000X2.400000*%
G04 #@! TD*
G04 #@! TA.AperFunction,ComponentPad*
%ADD30O,2.400000X2.400000*%
G04 #@! TD*
G04 #@! TA.AperFunction,ComponentPad*
%ADD31R,1.800000X1.800000*%
G04 #@! TD*
G04 #@! TA.AperFunction,ComponentPad*
%ADD32C,1.800000*%
G04 #@! TD*
G04 #@! TA.AperFunction,ComponentPad*
%ADD33RoundRect,0.650000X-0.650000X0.650000X-0.650000X-0.650000X0.650000X-0.650000X0.650000X0.650000X0*%
G04 #@! TD*
G04 #@! TA.AperFunction,ComponentPad*
%ADD34C,2.600000*%
G04 #@! TD*
G04 #@! TA.AperFunction,ComponentPad*
%ADD35R,1.600000X1.600000*%
G04 #@! TD*
G04 #@! TA.AperFunction,Conductor*
%ADD36C,1.500000*%
G04 #@! TD*
G04 #@! TA.AperFunction,Conductor*
%ADD37C,3.000000*%
G04 #@! TD*
G04 #@! TA.AperFunction,Conductor*
%ADD38C,5.000000*%
G04 #@! TD*
G04 APERTURE END LIST*
D10*
X188025000Y-97100000D03*
D11*
X194025000Y-97100000D03*
X182025000Y-63500000D03*
X200025000Y-63500000D03*
D12*
X193675000Y-111125000D03*
D13*
X208915000Y-111125000D03*
D14*
X66040000Y-75565000D03*
X68580000Y-65405000D03*
X68580000Y-60325000D03*
D15*
X193675000Y-117475000D03*
D16*
X193675000Y-127635000D03*
D17*
X170805000Y-96990000D03*
X175905000Y-98590000D03*
D18*
X167640000Y-78105000D03*
D14*
X68580000Y-62865000D03*
D15*
X81297500Y-94615000D03*
D16*
X71137500Y-94615000D03*
D15*
X172720000Y-117475000D03*
D16*
X172720000Y-127635000D03*
D14*
X68580000Y-67945000D03*
D19*
X213360000Y-95885000D03*
D20*
X213360000Y-90805000D03*
X213360000Y-85725000D03*
X213360000Y-80645000D03*
X213360000Y-75565000D03*
X213360000Y-70485000D03*
X213360000Y-65405000D03*
X213360000Y-60325000D03*
D14*
X63500000Y-83185000D03*
D21*
X152400000Y-135255000D03*
D22*
X157480000Y-135255000D03*
X162560000Y-135255000D03*
D18*
X111760000Y-90805000D03*
D14*
X66040000Y-60325000D03*
D23*
X170815000Y-48895000D03*
D24*
X173355000Y-48895000D03*
X175895000Y-48895000D03*
D12*
X182840000Y-122555000D03*
X177840000Y-122555000D03*
X203755000Y-122555000D03*
X198755000Y-122555000D03*
D14*
X68580000Y-73025000D03*
D18*
X167640000Y-83185000D03*
D25*
X96537500Y-100965000D03*
D26*
X90537500Y-102965000D03*
X90537500Y-115165000D03*
X102537500Y-115165000D03*
X102537500Y-102965000D03*
D27*
X164465000Y-124935000D03*
X164465000Y-117665000D03*
D28*
X164465000Y-108585000D03*
X164465000Y-101315000D03*
D21*
X132088750Y-126365000D03*
D22*
X137168750Y-126365000D03*
X142248750Y-126365000D03*
D14*
X66040000Y-65405000D03*
X63500000Y-62865000D03*
D18*
X157480000Y-57785000D03*
D21*
X132088750Y-135255000D03*
D22*
X137168750Y-135255000D03*
X142248750Y-135255000D03*
D12*
X203160000Y-49715000D03*
X198160000Y-49715000D03*
D14*
X68580000Y-75565000D03*
D18*
X157480000Y-50165000D03*
D14*
X63500000Y-75565000D03*
D15*
X121955000Y-94615000D03*
D16*
X111795000Y-94615000D03*
D18*
X167640000Y-85725000D03*
D29*
X187960000Y-121585000D03*
D30*
X187960000Y-126665000D03*
D14*
X68580000Y-85725000D03*
D18*
X167640000Y-73025000D03*
D14*
X66040000Y-70485000D03*
X68580000Y-88265000D03*
D25*
X116875000Y-100965000D03*
D26*
X110875000Y-102965000D03*
X110875000Y-115165000D03*
X122875000Y-115165000D03*
X122875000Y-102965000D03*
D14*
X66040000Y-83185000D03*
D25*
X76200000Y-100965000D03*
D26*
X70200000Y-102965000D03*
X70200000Y-115165000D03*
X82200000Y-115165000D03*
X82200000Y-102965000D03*
D25*
X137160000Y-100965000D03*
D26*
X131160000Y-102965000D03*
X131160000Y-115165000D03*
X143160000Y-115165000D03*
X143160000Y-102965000D03*
D14*
X68580000Y-78105000D03*
D18*
X71120000Y-90805000D03*
D14*
X66040000Y-73025000D03*
D27*
X156845000Y-124840000D03*
X156845000Y-117570000D03*
D28*
X156845000Y-108490000D03*
X156845000Y-101220000D03*
D14*
X63500000Y-80645000D03*
D18*
X167640000Y-80645000D03*
D14*
X66040000Y-67945000D03*
X66040000Y-85725000D03*
D31*
X180340000Y-57785000D03*
D32*
X180340000Y-55245000D03*
D14*
X63500000Y-65405000D03*
D21*
X91457500Y-126365000D03*
D22*
X96537500Y-126365000D03*
X101617500Y-126365000D03*
D33*
X127000000Y-109220000D03*
D34*
X127000000Y-114300000D03*
D18*
X167640000Y-70485000D03*
X142240000Y-90805000D03*
D21*
X111777500Y-126365000D03*
D22*
X116857500Y-126365000D03*
X121937500Y-126365000D03*
D14*
X68580000Y-83185000D03*
X63500000Y-88265000D03*
X157480000Y-62865000D03*
X160020000Y-62865000D03*
X162560000Y-62865000D03*
X165100000Y-62865000D03*
X157480000Y-65405000D03*
X160020000Y-65405000D03*
X162560000Y-65405000D03*
X165100000Y-65405000D03*
X157480000Y-67945000D03*
X160020000Y-67945000D03*
X162560000Y-67945000D03*
X165100000Y-67945000D03*
X157480000Y-70485000D03*
X160020000Y-70485000D03*
X162560000Y-70485000D03*
X165100000Y-70485000D03*
X157480000Y-73025000D03*
X160020000Y-73025000D03*
X162560000Y-73025000D03*
X165100000Y-73025000D03*
X157480000Y-75565000D03*
X160020000Y-75565000D03*
X162560000Y-75565000D03*
X165100000Y-75565000D03*
X157480000Y-78105000D03*
X160020000Y-78105000D03*
X162560000Y-78105000D03*
X165100000Y-78105000D03*
X157480000Y-80645000D03*
X160020000Y-80645000D03*
X162560000Y-80645000D03*
X165100000Y-80645000D03*
X157480000Y-83185000D03*
X160020000Y-83185000D03*
X71120000Y-45085000D03*
X162560000Y-83185000D03*
X73660000Y-45085000D03*
X165100000Y-83185000D03*
X76200000Y-45085000D03*
X157480000Y-85725000D03*
X78740000Y-45085000D03*
X160020000Y-85725000D03*
X81280000Y-45085000D03*
X162560000Y-85725000D03*
X83820000Y-45085000D03*
X165100000Y-85725000D03*
X86360000Y-45085000D03*
X157480000Y-88265000D03*
X88900000Y-45085000D03*
X160020000Y-88265000D03*
X91440000Y-45085000D03*
X162560000Y-88265000D03*
X93980000Y-45085000D03*
X165100000Y-88265000D03*
X96520000Y-45085000D03*
X99060000Y-45085000D03*
X101600000Y-45085000D03*
X104140000Y-45085000D03*
X106680000Y-45085000D03*
X109220000Y-45085000D03*
X111760000Y-45085000D03*
X114300000Y-45085000D03*
X116840000Y-45085000D03*
X119380000Y-45085000D03*
X121920000Y-45085000D03*
X124460000Y-45085000D03*
X127000000Y-45085000D03*
X129540000Y-45085000D03*
X132080000Y-45085000D03*
X134620000Y-45085000D03*
X137160000Y-45085000D03*
X139700000Y-45085000D03*
X142240000Y-45085000D03*
X144780000Y-45085000D03*
X147320000Y-45085000D03*
X149860000Y-45085000D03*
X152400000Y-45085000D03*
X154940000Y-45085000D03*
X71120000Y-47625000D03*
X73660000Y-47625000D03*
X76200000Y-47625000D03*
X78740000Y-47625000D03*
X81280000Y-47625000D03*
X83820000Y-47625000D03*
X86360000Y-47625000D03*
X88900000Y-47625000D03*
X91440000Y-47625000D03*
X93980000Y-47625000D03*
X96520000Y-47625000D03*
X99060000Y-47625000D03*
X101600000Y-47625000D03*
X104140000Y-47625000D03*
X106680000Y-47625000D03*
X109220000Y-47625000D03*
X111760000Y-47625000D03*
X114300000Y-47625000D03*
X116840000Y-47625000D03*
X119380000Y-47625000D03*
X121920000Y-47625000D03*
X124460000Y-47625000D03*
X127000000Y-47625000D03*
X129540000Y-47625000D03*
X132080000Y-47625000D03*
X134620000Y-47625000D03*
X137160000Y-47625000D03*
X139700000Y-47625000D03*
X142240000Y-47625000D03*
X144780000Y-47625000D03*
X147320000Y-47625000D03*
X149860000Y-47625000D03*
X152400000Y-47625000D03*
X154940000Y-47625000D03*
X71120000Y-50165000D03*
X73660000Y-50165000D03*
X76200000Y-50165000D03*
X78740000Y-50165000D03*
X81280000Y-50165000D03*
X83820000Y-50165000D03*
X86360000Y-50165000D03*
X88900000Y-50165000D03*
X91440000Y-50165000D03*
X93980000Y-50165000D03*
X96520000Y-50165000D03*
X99060000Y-50165000D03*
X101600000Y-50165000D03*
X104140000Y-50165000D03*
X106680000Y-50165000D03*
X109220000Y-50165000D03*
X111760000Y-50165000D03*
X114300000Y-50165000D03*
X116840000Y-50165000D03*
X119380000Y-50165000D03*
X121920000Y-50165000D03*
X124460000Y-50165000D03*
X127000000Y-50165000D03*
X129540000Y-50165000D03*
X132080000Y-50165000D03*
X134620000Y-50165000D03*
X137160000Y-50165000D03*
X139700000Y-50165000D03*
X142240000Y-50165000D03*
X144780000Y-50165000D03*
X147320000Y-50165000D03*
X149860000Y-50165000D03*
X152400000Y-50165000D03*
X154940000Y-50165000D03*
X71120000Y-52705000D03*
X73660000Y-52705000D03*
X76200000Y-52705000D03*
X78740000Y-52705000D03*
X81280000Y-52705000D03*
X83820000Y-52705000D03*
X86360000Y-52705000D03*
X88900000Y-52705000D03*
X91440000Y-52705000D03*
X93980000Y-52705000D03*
X96520000Y-52705000D03*
X99060000Y-52705000D03*
X101600000Y-52705000D03*
X104140000Y-52705000D03*
X106680000Y-52705000D03*
X109220000Y-52705000D03*
X111760000Y-52705000D03*
X114300000Y-52705000D03*
X116840000Y-52705000D03*
X119380000Y-52705000D03*
X121920000Y-52705000D03*
X124460000Y-52705000D03*
X127000000Y-52705000D03*
X129540000Y-52705000D03*
X132080000Y-52705000D03*
X134620000Y-52705000D03*
X137160000Y-52705000D03*
X139700000Y-52705000D03*
X142240000Y-52705000D03*
X144780000Y-52705000D03*
X147320000Y-52705000D03*
X149860000Y-52705000D03*
X152400000Y-52705000D03*
X154940000Y-52705000D03*
X71120000Y-55245000D03*
X73660000Y-55245000D03*
X76200000Y-55245000D03*
X78740000Y-55245000D03*
X81280000Y-55245000D03*
X83820000Y-55245000D03*
X86360000Y-55245000D03*
X88900000Y-55245000D03*
X91440000Y-55245000D03*
X93980000Y-55245000D03*
X96520000Y-55245000D03*
X99060000Y-55245000D03*
X101600000Y-55245000D03*
X104140000Y-55245000D03*
X106680000Y-55245000D03*
X109220000Y-55245000D03*
X111760000Y-55245000D03*
X114300000Y-55245000D03*
X116840000Y-55245000D03*
X119380000Y-55245000D03*
X121920000Y-55245000D03*
X124460000Y-55245000D03*
X127000000Y-55245000D03*
X129540000Y-55245000D03*
X132080000Y-55245000D03*
X134620000Y-55245000D03*
X137160000Y-55245000D03*
X139700000Y-55245000D03*
X142240000Y-55245000D03*
X144780000Y-55245000D03*
X147320000Y-55245000D03*
X149860000Y-55245000D03*
X152400000Y-55245000D03*
X154940000Y-55245000D03*
X71120000Y-57785000D03*
X73660000Y-57785000D03*
X76200000Y-57785000D03*
X78740000Y-57785000D03*
X81280000Y-57785000D03*
X83820000Y-57785000D03*
X86360000Y-57785000D03*
X88900000Y-57785000D03*
X91440000Y-57785000D03*
X93980000Y-57785000D03*
X96520000Y-57785000D03*
X99060000Y-57785000D03*
X101600000Y-57785000D03*
X104140000Y-57785000D03*
X106680000Y-57785000D03*
X109220000Y-57785000D03*
X111760000Y-57785000D03*
X114300000Y-57785000D03*
X116840000Y-57785000D03*
X119380000Y-57785000D03*
X121920000Y-57785000D03*
X124460000Y-57785000D03*
X127000000Y-57785000D03*
X129540000Y-57785000D03*
X132080000Y-57785000D03*
X134620000Y-57785000D03*
X137160000Y-57785000D03*
X139700000Y-57785000D03*
X142240000Y-57785000D03*
X144780000Y-57785000D03*
X147320000Y-57785000D03*
X149860000Y-57785000D03*
X152400000Y-57785000D03*
X154940000Y-57785000D03*
X71120000Y-60325000D03*
X73660000Y-60325000D03*
X76200000Y-60325000D03*
X78740000Y-60325000D03*
X81280000Y-60325000D03*
X83820000Y-60325000D03*
X86360000Y-60325000D03*
X88900000Y-60325000D03*
X91440000Y-60325000D03*
X93980000Y-60325000D03*
X96520000Y-60325000D03*
X99060000Y-60325000D03*
X101600000Y-60325000D03*
X104140000Y-60325000D03*
X106680000Y-60325000D03*
X109220000Y-60325000D03*
X111760000Y-60325000D03*
X114300000Y-60325000D03*
X116840000Y-60325000D03*
X119380000Y-60325000D03*
X121920000Y-60325000D03*
X124460000Y-60325000D03*
X127000000Y-60325000D03*
X129540000Y-60325000D03*
X132080000Y-60325000D03*
X134620000Y-60325000D03*
X137160000Y-60325000D03*
X139700000Y-60325000D03*
X142240000Y-60325000D03*
X144780000Y-60325000D03*
X147320000Y-60325000D03*
X149860000Y-60325000D03*
X152400000Y-60325000D03*
X154940000Y-60325000D03*
X71120000Y-62865000D03*
X73660000Y-62865000D03*
X76200000Y-62865000D03*
X78740000Y-62865000D03*
X81280000Y-62865000D03*
X83820000Y-62865000D03*
X86360000Y-62865000D03*
X88900000Y-62865000D03*
X91440000Y-62865000D03*
X93980000Y-62865000D03*
X96520000Y-62865000D03*
X99060000Y-62865000D03*
X101600000Y-62865000D03*
X104140000Y-62865000D03*
X106680000Y-62865000D03*
X109220000Y-62865000D03*
X111760000Y-62865000D03*
X114300000Y-62865000D03*
X116840000Y-62865000D03*
X119380000Y-62865000D03*
X121920000Y-62865000D03*
X124460000Y-62865000D03*
X127000000Y-62865000D03*
X129540000Y-62865000D03*
X132080000Y-62865000D03*
X134620000Y-62865000D03*
X137160000Y-62865000D03*
X139700000Y-62865000D03*
X142240000Y-62865000D03*
X144780000Y-62865000D03*
X147320000Y-62865000D03*
X149860000Y-62865000D03*
X152400000Y-62865000D03*
X154940000Y-62865000D03*
X71120000Y-65405000D03*
X73660000Y-65405000D03*
X76200000Y-65405000D03*
X78740000Y-65405000D03*
X81280000Y-65405000D03*
X83820000Y-65405000D03*
X86360000Y-65405000D03*
X88900000Y-65405000D03*
X91440000Y-65405000D03*
X93980000Y-65405000D03*
X96520000Y-65405000D03*
X99060000Y-65405000D03*
X101600000Y-65405000D03*
X104140000Y-65405000D03*
X106680000Y-65405000D03*
X109220000Y-65405000D03*
X111760000Y-65405000D03*
X114300000Y-65405000D03*
X116840000Y-65405000D03*
X119380000Y-65405000D03*
X121920000Y-65405000D03*
X124460000Y-65405000D03*
X127000000Y-65405000D03*
X129540000Y-65405000D03*
X132080000Y-65405000D03*
X134620000Y-65405000D03*
X137160000Y-65405000D03*
X139700000Y-65405000D03*
X142240000Y-65405000D03*
X144780000Y-65405000D03*
X147320000Y-65405000D03*
X149860000Y-65405000D03*
X152400000Y-65405000D03*
X154940000Y-65405000D03*
X71120000Y-67945000D03*
X73660000Y-67945000D03*
X76200000Y-67945000D03*
X78740000Y-67945000D03*
X81280000Y-67945000D03*
X83820000Y-67945000D03*
X86360000Y-67945000D03*
X88900000Y-67945000D03*
X91440000Y-67945000D03*
X93980000Y-67945000D03*
X96520000Y-67945000D03*
X99060000Y-67945000D03*
X101600000Y-67945000D03*
X104140000Y-67945000D03*
X106680000Y-67945000D03*
X109220000Y-67945000D03*
X111760000Y-67945000D03*
X114300000Y-67945000D03*
X116840000Y-67945000D03*
X119380000Y-67945000D03*
X121920000Y-67945000D03*
X124460000Y-67945000D03*
X127000000Y-67945000D03*
X129540000Y-67945000D03*
X132080000Y-67945000D03*
X134620000Y-67945000D03*
X137160000Y-67945000D03*
X139700000Y-67945000D03*
X142240000Y-67945000D03*
X144780000Y-67945000D03*
X147320000Y-67945000D03*
X149860000Y-67945000D03*
X152400000Y-67945000D03*
X154940000Y-67945000D03*
X71120000Y-70485000D03*
X73660000Y-70485000D03*
X76200000Y-70485000D03*
X78740000Y-70485000D03*
X81280000Y-70485000D03*
X83820000Y-70485000D03*
X86360000Y-70485000D03*
X88900000Y-70485000D03*
X91440000Y-70485000D03*
X93980000Y-70485000D03*
X96520000Y-70485000D03*
X99060000Y-70485000D03*
X101600000Y-70485000D03*
X104140000Y-70485000D03*
X106680000Y-70485000D03*
X109220000Y-70485000D03*
X111760000Y-70485000D03*
X114300000Y-70485000D03*
X116840000Y-70485000D03*
X119380000Y-70485000D03*
X121920000Y-70485000D03*
X124460000Y-70485000D03*
X127000000Y-70485000D03*
X129540000Y-70485000D03*
X132080000Y-70485000D03*
X134620000Y-70485000D03*
X137160000Y-70485000D03*
X139700000Y-70485000D03*
X142240000Y-70485000D03*
X144780000Y-70485000D03*
X147320000Y-70485000D03*
X149860000Y-70485000D03*
X152400000Y-70485000D03*
X154940000Y-70485000D03*
X71120000Y-73025000D03*
X73660000Y-73025000D03*
X76200000Y-73025000D03*
X78740000Y-73025000D03*
X81280000Y-73025000D03*
X83820000Y-73025000D03*
X86360000Y-73025000D03*
X88900000Y-73025000D03*
X91440000Y-73025000D03*
X93980000Y-73025000D03*
X96520000Y-73025000D03*
X99060000Y-73025000D03*
X101600000Y-73025000D03*
X104140000Y-73025000D03*
X106680000Y-73025000D03*
X109220000Y-73025000D03*
X111760000Y-73025000D03*
X114300000Y-73025000D03*
X116840000Y-73025000D03*
X119380000Y-73025000D03*
X121920000Y-73025000D03*
X124460000Y-73025000D03*
X127000000Y-73025000D03*
X129540000Y-73025000D03*
X132080000Y-73025000D03*
X134620000Y-73025000D03*
X137160000Y-73025000D03*
X139700000Y-73025000D03*
X142240000Y-73025000D03*
X144780000Y-73025000D03*
X147320000Y-73025000D03*
X149860000Y-73025000D03*
X152400000Y-73025000D03*
X154940000Y-73025000D03*
X71120000Y-75565000D03*
X73660000Y-75565000D03*
X76200000Y-75565000D03*
X78740000Y-75565000D03*
X81280000Y-75565000D03*
X83820000Y-75565000D03*
X86360000Y-75565000D03*
X88900000Y-75565000D03*
X91440000Y-75565000D03*
X93980000Y-75565000D03*
X96520000Y-75565000D03*
X99060000Y-75565000D03*
X101600000Y-75565000D03*
X104140000Y-75565000D03*
X106680000Y-75565000D03*
X109220000Y-75565000D03*
X111760000Y-75565000D03*
X114300000Y-75565000D03*
X116840000Y-75565000D03*
X119380000Y-75565000D03*
X121920000Y-75565000D03*
X124460000Y-75565000D03*
X127000000Y-75565000D03*
X129540000Y-75565000D03*
X132080000Y-75565000D03*
X134620000Y-75565000D03*
X137160000Y-75565000D03*
X139700000Y-75565000D03*
X142240000Y-75565000D03*
X144780000Y-75565000D03*
X147320000Y-75565000D03*
X149860000Y-75565000D03*
X152400000Y-75565000D03*
X154940000Y-75565000D03*
X71120000Y-78105000D03*
X73660000Y-78105000D03*
X76200000Y-78105000D03*
X78740000Y-78105000D03*
X81280000Y-78105000D03*
X83820000Y-78105000D03*
X86360000Y-78105000D03*
X88900000Y-78105000D03*
X91440000Y-78105000D03*
X93980000Y-78105000D03*
X96520000Y-78105000D03*
X99060000Y-78105000D03*
X101600000Y-78105000D03*
X104140000Y-78105000D03*
X106680000Y-78105000D03*
X109220000Y-78105000D03*
X111760000Y-78105000D03*
X114300000Y-78105000D03*
X116840000Y-78105000D03*
X119380000Y-78105000D03*
X121920000Y-78105000D03*
X124460000Y-78105000D03*
X127000000Y-78105000D03*
X129540000Y-78105000D03*
X132080000Y-78105000D03*
X134620000Y-78105000D03*
X137160000Y-78105000D03*
X139700000Y-78105000D03*
X142240000Y-78105000D03*
X144780000Y-78105000D03*
X147320000Y-78105000D03*
X149860000Y-78105000D03*
X152400000Y-78105000D03*
X154940000Y-78105000D03*
X71120000Y-80645000D03*
X73660000Y-80645000D03*
X76200000Y-80645000D03*
X78740000Y-80645000D03*
X81280000Y-80645000D03*
X83820000Y-80645000D03*
X86360000Y-80645000D03*
X88900000Y-80645000D03*
X91440000Y-80645000D03*
X93980000Y-80645000D03*
X96520000Y-80645000D03*
X99060000Y-80645000D03*
X101600000Y-80645000D03*
X104140000Y-80645000D03*
X106680000Y-80645000D03*
X109220000Y-80645000D03*
X111760000Y-80645000D03*
X114300000Y-80645000D03*
X116840000Y-80645000D03*
X119380000Y-80645000D03*
X121920000Y-80645000D03*
X124460000Y-80645000D03*
X127000000Y-80645000D03*
X129540000Y-80645000D03*
X132080000Y-80645000D03*
X134620000Y-80645000D03*
X137160000Y-80645000D03*
X139700000Y-80645000D03*
X142240000Y-80645000D03*
X144780000Y-80645000D03*
X147320000Y-80645000D03*
X149860000Y-80645000D03*
X152400000Y-80645000D03*
X154940000Y-80645000D03*
X71120000Y-83185000D03*
X73660000Y-83185000D03*
X76200000Y-83185000D03*
X78740000Y-83185000D03*
X81280000Y-83185000D03*
X83820000Y-83185000D03*
X86360000Y-83185000D03*
X88900000Y-83185000D03*
X91440000Y-83185000D03*
X93980000Y-83185000D03*
X96520000Y-83185000D03*
X99060000Y-83185000D03*
X101600000Y-83185000D03*
X104140000Y-83185000D03*
X106680000Y-83185000D03*
X109220000Y-83185000D03*
X111760000Y-83185000D03*
X114300000Y-83185000D03*
X116840000Y-83185000D03*
X119380000Y-83185000D03*
X121920000Y-83185000D03*
X124460000Y-83185000D03*
X127000000Y-83185000D03*
X129540000Y-83185000D03*
X132080000Y-83185000D03*
X134620000Y-83185000D03*
X137160000Y-83185000D03*
X139700000Y-83185000D03*
X142240000Y-83185000D03*
X144780000Y-83185000D03*
X147320000Y-83185000D03*
X149860000Y-83185000D03*
X152400000Y-83185000D03*
X154940000Y-83185000D03*
X71120000Y-85725000D03*
X73660000Y-85725000D03*
X76200000Y-85725000D03*
X78740000Y-85725000D03*
X81280000Y-85725000D03*
X83820000Y-85725000D03*
X86360000Y-85725000D03*
X88900000Y-85725000D03*
X91440000Y-85725000D03*
X93980000Y-85725000D03*
X96520000Y-85725000D03*
X99060000Y-85725000D03*
X101600000Y-85725000D03*
X104140000Y-85725000D03*
X106680000Y-85725000D03*
X109220000Y-85725000D03*
X111760000Y-85725000D03*
X114300000Y-85725000D03*
X116840000Y-85725000D03*
X119380000Y-85725000D03*
X121920000Y-85725000D03*
X124460000Y-85725000D03*
X127000000Y-85725000D03*
X129540000Y-85725000D03*
X132080000Y-85725000D03*
X134620000Y-85725000D03*
X137160000Y-85725000D03*
X139700000Y-85725000D03*
X142240000Y-85725000D03*
X144780000Y-85725000D03*
X147320000Y-85725000D03*
X149860000Y-85725000D03*
X152400000Y-85725000D03*
X154940000Y-85725000D03*
X71120000Y-88265000D03*
X73660000Y-88265000D03*
X76200000Y-88265000D03*
X78740000Y-88265000D03*
X81280000Y-88265000D03*
X83820000Y-88265000D03*
X86360000Y-88265000D03*
X88900000Y-88265000D03*
X91440000Y-88265000D03*
X93980000Y-88265000D03*
X96520000Y-88265000D03*
X99060000Y-88265000D03*
X101600000Y-88265000D03*
X104140000Y-88265000D03*
X106680000Y-88265000D03*
X109220000Y-88265000D03*
X111760000Y-88265000D03*
X114300000Y-88265000D03*
X116840000Y-88265000D03*
X119380000Y-88265000D03*
X121920000Y-88265000D03*
X124460000Y-88265000D03*
X127000000Y-88265000D03*
X129540000Y-88265000D03*
X132080000Y-88265000D03*
X134620000Y-88265000D03*
X137160000Y-88265000D03*
X139700000Y-88265000D03*
X142240000Y-88265000D03*
X144780000Y-88265000D03*
X147320000Y-88265000D03*
X149860000Y-88265000D03*
X152400000Y-88265000D03*
X154940000Y-88265000D03*
X157480000Y-60325000D03*
X160020000Y-60325000D03*
X162560000Y-60325000D03*
X165100000Y-60325000D03*
D21*
X193675000Y-135255000D03*
D22*
X198755000Y-135255000D03*
X203835000Y-135255000D03*
X208915000Y-135255000D03*
D14*
X63500000Y-60325000D03*
D12*
X191770000Y-49715000D03*
X186770000Y-49715000D03*
D14*
X63500000Y-70485000D03*
X66040000Y-88265000D03*
D12*
X170180000Y-60920000D03*
X170180000Y-59670000D03*
X170180000Y-57170000D03*
X170180000Y-55920000D03*
D15*
X142248750Y-94615000D03*
D16*
X132088750Y-94615000D03*
D18*
X132080000Y-90805000D03*
D14*
X68580000Y-70485000D03*
D18*
X91440000Y-90805000D03*
D33*
X86360000Y-109220000D03*
D34*
X86360000Y-114300000D03*
D14*
X66040000Y-80645000D03*
X66040000Y-62865000D03*
D35*
X197485000Y-103505000D03*
D13*
X197485000Y-106045000D03*
X205105000Y-106045000D03*
X205105000Y-103505000D03*
D21*
X91457500Y-135255000D03*
D22*
X96537500Y-135255000D03*
X101617500Y-135255000D03*
D21*
X71137500Y-126365000D03*
D22*
X76217500Y-126365000D03*
X81297500Y-126365000D03*
D17*
X214630000Y-51435000D03*
X209530000Y-49835000D03*
D14*
X63500000Y-85725000D03*
D18*
X167640000Y-75565000D03*
D33*
X66040000Y-109220000D03*
D34*
X66040000Y-114300000D03*
D21*
X172720000Y-135255000D03*
D22*
X177800000Y-135255000D03*
X182880000Y-135255000D03*
X187960000Y-135255000D03*
D14*
X63500000Y-73025000D03*
D18*
X167640000Y-88265000D03*
D21*
X71137500Y-135255000D03*
D22*
X76217500Y-135255000D03*
X81297500Y-135255000D03*
D33*
X106697500Y-109220000D03*
D34*
X106697500Y-114300000D03*
D35*
X176540000Y-103500000D03*
D13*
X176540000Y-106040000D03*
X184160000Y-106040000D03*
X184160000Y-103500000D03*
D18*
X144780000Y-90805000D03*
D12*
X175260000Y-60920000D03*
X175260000Y-59670000D03*
X175260000Y-57170000D03*
X175260000Y-55920000D03*
D21*
X111777500Y-135255000D03*
D22*
X116857500Y-135255000D03*
X121937500Y-135255000D03*
D12*
X172720000Y-111125000D03*
D13*
X187960000Y-111125000D03*
D14*
X63500000Y-78105000D03*
X63500000Y-67945000D03*
D18*
X167640000Y-65405000D03*
X167640000Y-67945000D03*
D14*
X68580000Y-80645000D03*
D15*
X101617500Y-94615000D03*
D16*
X91457500Y-94615000D03*
D14*
X66040000Y-78105000D03*
D29*
X208915000Y-121585000D03*
D30*
X208915000Y-126665000D03*
D36*
X182025000Y-63500000D02*
X182025000Y-75785000D01*
X181927500Y-75882500D02*
X207645000Y-101600000D01*
X182025000Y-75785000D02*
X181927500Y-75882500D01*
X180340000Y-61815000D02*
X182025000Y-63500000D01*
X180340000Y-57785000D02*
X180340000Y-61815000D01*
X144780000Y-90805000D02*
X170180000Y-90805000D01*
X170180000Y-90805000D02*
X172085000Y-88900000D01*
X172085000Y-88900000D02*
X172085000Y-62825000D01*
X172085000Y-62825000D02*
X170180000Y-60920000D01*
X175260000Y-57170000D02*
X177185000Y-57170000D01*
X163830000Y-57785000D02*
X157480000Y-57785000D01*
X186770000Y-48365000D02*
X187960000Y-47175000D01*
X207645000Y-106045000D02*
X209550000Y-106045000D01*
X175260000Y-57170000D02*
X173355000Y-57170000D01*
X177800000Y-57785000D02*
X180340000Y-57785000D01*
X165695000Y-55920000D02*
X163830000Y-57785000D01*
X177185000Y-57170000D02*
X177800000Y-57785000D01*
X170180000Y-57170000D02*
X170180000Y-55920000D01*
X207645000Y-101600000D02*
X207645000Y-106045000D01*
X196850000Y-108585000D02*
X194305000Y-106040000D01*
X209550000Y-106045000D02*
X212725000Y-109220000D01*
X205105000Y-106045000D02*
X202565000Y-108585000D01*
X173355000Y-57170000D02*
X170180000Y-57170000D01*
X198160000Y-49715000D02*
X195620000Y-47175000D01*
X175260000Y-57170000D02*
X175260000Y-55920000D01*
X208915000Y-134620000D02*
X208915000Y-135255000D01*
X212725000Y-109220000D02*
X212725000Y-130810000D01*
X186770000Y-53895000D02*
X186770000Y-49715000D01*
X202565000Y-108585000D02*
X196850000Y-108585000D01*
X205105000Y-106045000D02*
X207645000Y-106045000D01*
X186770000Y-49715000D02*
X186770000Y-48365000D01*
X170180000Y-55920000D02*
X165695000Y-55920000D01*
X187960000Y-47175000D02*
X195620000Y-47175000D01*
X180340000Y-57785000D02*
X182880000Y-57785000D01*
X194305000Y-106040000D02*
X184160000Y-106040000D01*
X212725000Y-130810000D02*
X208915000Y-134620000D01*
X182880000Y-57785000D02*
X186770000Y-53895000D01*
X191770000Y-80645000D02*
X215900000Y-104775000D01*
X215900000Y-135255000D02*
X211455000Y-139700000D01*
X175895000Y-48895000D02*
X175895000Y-50800000D01*
X158115000Y-49530000D02*
X157480000Y-50165000D01*
X165735000Y-51435000D02*
X163830000Y-49530000D01*
X163830000Y-49530000D02*
X158115000Y-49530000D01*
X172720000Y-137160000D02*
X175260000Y-139700000D01*
X172720000Y-135255000D02*
X172720000Y-137160000D01*
X191770000Y-49715000D02*
X191770000Y-80645000D01*
X193675000Y-139700000D02*
X193675000Y-135255000D01*
X193675000Y-139700000D02*
X175260000Y-139700000D01*
X211455000Y-139700000D02*
X193675000Y-139700000D01*
X175260000Y-51435000D02*
X165735000Y-51435000D01*
X215900000Y-104775000D02*
X215900000Y-135255000D01*
X175895000Y-50800000D02*
X175260000Y-51435000D01*
X168910000Y-113220000D02*
X164465000Y-117665000D01*
X170805000Y-97165000D02*
X168910000Y-99060000D01*
X168910000Y-99060000D02*
X168910000Y-113220000D01*
X170805000Y-96990000D02*
X170805000Y-97165000D01*
X175905000Y-98590000D02*
X186525000Y-98590000D01*
X186525000Y-98590000D02*
X187960000Y-97155000D01*
X192405000Y-93980000D02*
X157480000Y-93980000D01*
X193960000Y-95535000D02*
X192405000Y-93980000D01*
D37*
X137168750Y-141605000D02*
X137168750Y-134045000D01*
D36*
X193960000Y-97155000D02*
X193960000Y-95535000D01*
X157480000Y-93980000D02*
X147955000Y-103505000D01*
D38*
X157480000Y-135255000D02*
X157480000Y-137795000D01*
D36*
X147955000Y-103505000D02*
X147955000Y-123190000D01*
D37*
X96520000Y-140970000D02*
X96520000Y-135890000D01*
X76217500Y-135255000D02*
X76217500Y-141587500D01*
D38*
X142875000Y-141605000D02*
X137168750Y-141605000D01*
X157480000Y-137795000D02*
X153670000Y-141605000D01*
X142875000Y-141605000D02*
X153670000Y-141605000D01*
D37*
X76217500Y-141587500D02*
X76200000Y-141605000D01*
X96520000Y-135890000D02*
X96520000Y-134620000D01*
X116857500Y-135315000D02*
X116857500Y-134045000D01*
D36*
X147955000Y-123190000D02*
X157480000Y-132715000D01*
X157480000Y-132715000D02*
X157480000Y-135255000D01*
D38*
X142875000Y-141605000D02*
X76200000Y-141605000D01*
D37*
X116857500Y-140395000D02*
X116857500Y-135315000D01*
X69335000Y-114257500D02*
X69292500Y-114300000D01*
X71137500Y-116060000D02*
X69335000Y-114257500D01*
X71137500Y-126365000D02*
X71137500Y-116060000D01*
X71137500Y-127000000D02*
X71137500Y-126365000D01*
X69292500Y-114300000D02*
X66040000Y-114300000D01*
X76217500Y-100982500D02*
X76200000Y-100965000D01*
X76217500Y-126365000D02*
X76217500Y-100982500D01*
X76217500Y-127000000D02*
X76217500Y-126365000D01*
X81297500Y-126365000D02*
X81297500Y-116067500D01*
X81297500Y-116067500D02*
X82200000Y-115165000D01*
X81297500Y-127000000D02*
X81297500Y-126365000D01*
X91457500Y-126365000D02*
X91457500Y-116060000D01*
X91457500Y-116060000D02*
X89655000Y-114257500D01*
X89655000Y-114257500D02*
X89612500Y-114300000D01*
X91457500Y-127000000D02*
X91457500Y-126365000D01*
X89612500Y-114300000D02*
X86360000Y-114300000D01*
X96537500Y-126365000D02*
X96537500Y-100965000D01*
X96537500Y-126365000D02*
X96537500Y-127000000D01*
X101617500Y-127000000D02*
X101617500Y-126365000D01*
X101617500Y-126365000D02*
X101617500Y-116085000D01*
X101617500Y-116085000D02*
X102537500Y-115165000D01*
X111777500Y-126365000D02*
X111777500Y-127000000D01*
X111777500Y-126365000D02*
X111777500Y-116067500D01*
X110010000Y-114300000D02*
X110875000Y-115165000D01*
X106697500Y-114300000D02*
X110010000Y-114300000D01*
X111777500Y-116067500D02*
X110875000Y-115165000D01*
X116857500Y-100982500D02*
X116875000Y-100965000D01*
X116857500Y-127000000D02*
X116857500Y-126365000D01*
X116857500Y-126365000D02*
X116857500Y-100982500D01*
X121937500Y-126365000D02*
X121937500Y-116102500D01*
X121937500Y-116102500D02*
X122875000Y-115165000D01*
X121937500Y-127000000D02*
X121937500Y-126365000D01*
X132088750Y-116085000D02*
X131168750Y-115165000D01*
X132088750Y-126365000D02*
X132088750Y-116085000D01*
X132088750Y-126991250D02*
X132097500Y-127000000D01*
X131168750Y-115165000D02*
X130303750Y-114300000D01*
X127000000Y-114300000D02*
X130303750Y-114300000D01*
X137168750Y-126365000D02*
X137168750Y-100965000D01*
X137168750Y-126991250D02*
X137168750Y-126365000D01*
X137168750Y-126991250D02*
X137177500Y-127000000D01*
X142248750Y-116085000D02*
X143168750Y-115165000D01*
X142248750Y-126991250D02*
X142248750Y-126365000D01*
X142248750Y-126365000D02*
X142248750Y-116085000D01*
X142248750Y-126991250D02*
X142257500Y-127000000D01*
D36*
X214630000Y-51435000D02*
X210185000Y-55880000D01*
X199960000Y-63555000D02*
X207635000Y-55880000D01*
X210185000Y-55880000D02*
X207635000Y-55880000D01*
X113030000Y-97790000D02*
X116205000Y-94615000D01*
X121955000Y-94615000D02*
X121955000Y-94650000D01*
X96520000Y-94615000D02*
X93345000Y-97790000D01*
X102235000Y-94615000D02*
X105410000Y-97790000D01*
X133350000Y-97790000D02*
X136525000Y-94615000D01*
X101617500Y-94615000D02*
X102235000Y-94615000D01*
X101617500Y-94615000D02*
X96520000Y-94615000D01*
X116205000Y-94615000D02*
X121955000Y-94615000D01*
X121955000Y-94650000D02*
X125095000Y-97790000D01*
X84472500Y-97790000D02*
X81297500Y-94615000D01*
X93345000Y-97790000D02*
X84472500Y-97790000D01*
X125095000Y-97790000D02*
X133350000Y-97790000D01*
X136525000Y-94615000D02*
X142248750Y-94615000D01*
X105410000Y-97790000D02*
X113030000Y-97790000D01*
M02*
