G04 #@! TF.GenerationSoftware,KiCad,Pcbnew,9.0.2-9.0.2-0~ubuntu24.04.1*
G04 #@! TF.CreationDate,2025-08-24T21:10:56+02:00*
G04 #@! TF.ProjectId,unister,756e6973-7465-4722-9e6b-696361645f70,rev?*
G04 #@! TF.SameCoordinates,Original*
G04 #@! TF.FileFunction,Soldermask,Bot*
G04 #@! TF.FilePolarity,Negative*
%FSLAX46Y46*%
G04 Gerber Fmt 4.6, Leading zero omitted, Abs format (unit mm)*
G04 Created by KiCad (PCBNEW 9.0.2-9.0.2-0~ubuntu24.04.1) date 2025-08-24 21:10:56*
%MOMM*%
%LPD*%
G01*
G04 APERTURE LIST*
G04 Aperture macros list*
%AMRoundRect*
0 Rectangle with rounded corners*
0 $1 Rounding radius*
0 $2 $3 $4 $5 $6 $7 $8 $9 X,Y pos of 4 corners*
0 Add a 4 corners polygon primitive as box body*
4,1,4,$2,$3,$4,$5,$6,$7,$8,$9,$2,$3,0*
0 Add four circle primitives for the rounded corners*
1,1,$1+$1,$2,$3*
1,1,$1+$1,$4,$5*
1,1,$1+$1,$6,$7*
1,1,$1+$1,$8,$9*
0 Add four rect primitives between the rounded corners*
20,1,$1+$1,$2,$3,$4,$5,0*
20,1,$1+$1,$4,$5,$6,$7,0*
20,1,$1+$1,$6,$7,$8,$9,0*
20,1,$1+$1,$8,$9,$2,$3,0*%
%AMFreePoly0*
4,1,23,0.500000,-0.750000,0.000000,-0.750000,0.000000,-0.745722,-0.065263,-0.745722,-0.191342,-0.711940,-0.304381,-0.646677,-0.396677,-0.554381,-0.461940,-0.441342,-0.495722,-0.315263,-0.495722,-0.250000,-0.500000,-0.250000,-0.500000,0.250000,-0.495722,0.250000,-0.495722,0.315263,-0.461940,0.441342,-0.396677,0.554381,-0.304381,0.646677,-0.191342,0.711940,-0.065263,0.745722,0.000000,0.745722,
0.000000,0.750000,0.500000,0.750000,0.500000,-0.750000,0.500000,-0.750000,$1*%
%AMFreePoly1*
4,1,23,0.000000,0.745722,0.065263,0.745722,0.191342,0.711940,0.304381,0.646677,0.396677,0.554381,0.461940,0.441342,0.495722,0.315263,0.495722,0.250000,0.500000,0.250000,0.500000,-0.250000,0.495722,-0.250000,0.495722,-0.315263,0.461940,-0.441342,0.396677,-0.554381,0.304381,-0.646677,0.191342,-0.711940,0.065263,-0.745722,0.000000,-0.745722,0.000000,-0.750000,-0.500000,-0.750000,
-0.500000,0.750000,0.000000,0.750000,0.000000,0.745722,0.000000,0.745722,$1*%
G04 Aperture macros list end*
%ADD10C,1.600000*%
%ADD11O,1.600000X1.600000*%
%ADD12C,1.524000*%
%ADD13R,2.200000X2.200000*%
%ADD14O,2.200000X2.200000*%
%ADD15C,1.270000*%
%ADD16C,1.400000*%
%ADD17RoundRect,0.250000X1.550000X-0.650000X1.550000X0.650000X-1.550000X0.650000X-1.550000X-0.650000X0*%
%ADD18O,3.600000X1.800000*%
%ADD19RoundRect,0.250000X-0.650000X-1.550000X0.650000X-1.550000X0.650000X1.550000X-0.650000X1.550000X0*%
%ADD20O,1.800000X3.600000*%
%ADD21R,1.500000X1.500000*%
%ADD22C,1.500000*%
%ADD23R,2.500000X2.500000*%
%ADD24O,2.500000X2.500000*%
%ADD25RoundRect,0.500000X0.900000X-0.500000X0.900000X0.500000X-0.900000X0.500000X-0.900000X-0.500000X0*%
%ADD26O,2.800000X2.000000*%
%ADD27C,2.200000*%
%ADD28R,2.400000X2.400000*%
%ADD29O,2.400000X2.400000*%
%ADD30R,1.800000X1.800000*%
%ADD31C,1.800000*%
%ADD32RoundRect,0.650000X-0.650000X0.650000X-0.650000X-0.650000X0.650000X-0.650000X0.650000X0.650000X0*%
%ADD33C,2.600000*%
%ADD34R,2.000000X2.000000*%
%ADD35C,2.000000*%
%ADD36R,1.600000X1.600000*%
%ADD37FreePoly0,0.000000*%
%ADD38FreePoly1,0.000000*%
%ADD39RoundRect,0.250000X-0.400000X-0.625000X0.400000X-0.625000X0.400000X0.625000X-0.400000X0.625000X0*%
%ADD40RoundRect,0.250000X0.400000X0.625000X-0.400000X0.625000X-0.400000X-0.625000X0.400000X-0.625000X0*%
G04 APERTURE END LIST*
D10*
X198755000Y-111125000D03*
D11*
X213995000Y-111125000D03*
D12*
X68580000Y-65405000D03*
X68580000Y-60325000D03*
D13*
X198755000Y-117475000D03*
D14*
X198755000Y-127635000D03*
D15*
X174460000Y-105420000D03*
X176060000Y-100320000D03*
D16*
X167640000Y-78105000D03*
D12*
X68580000Y-62865000D03*
D13*
X81297500Y-94615000D03*
D14*
X71137500Y-94615000D03*
D13*
X177800000Y-117475000D03*
D14*
X177800000Y-127635000D03*
D12*
X68580000Y-67945000D03*
D17*
X213360000Y-95885000D03*
D18*
X213360000Y-90805000D03*
X213360000Y-85725000D03*
X213360000Y-80645000D03*
X213360000Y-75565000D03*
X213360000Y-70485000D03*
X213360000Y-65405000D03*
X213360000Y-60325000D03*
D19*
X152400000Y-135255000D03*
D20*
X157480000Y-135255000D03*
X162560000Y-135255000D03*
D16*
X111760000Y-90805000D03*
D21*
X170815000Y-48895000D03*
D22*
X173355000Y-48895000D03*
X175895000Y-48895000D03*
D10*
X187920000Y-122555000D03*
X182920000Y-122555000D03*
X208835000Y-122555000D03*
X203835000Y-122555000D03*
D12*
X68580000Y-73025000D03*
D16*
X167640000Y-83185000D03*
D23*
X96537500Y-100965000D03*
D24*
X90537500Y-102965000D03*
X90537500Y-115165000D03*
X102537500Y-115165000D03*
X102537500Y-102965000D03*
D25*
X167640000Y-124935000D03*
X167640000Y-117665000D03*
D26*
X167640000Y-108585000D03*
X167640000Y-101315000D03*
D19*
X132088750Y-126365000D03*
D20*
X137168750Y-126365000D03*
X142248750Y-126365000D03*
D16*
X157480000Y-57785000D03*
D27*
X161000000Y-54000000D03*
D19*
X132088750Y-135255000D03*
D20*
X137168750Y-135255000D03*
X142248750Y-135255000D03*
D10*
X203160000Y-49715000D03*
X198160000Y-49715000D03*
D12*
X68580000Y-75565000D03*
D16*
X157480000Y-50165000D03*
D13*
X121955000Y-94615000D03*
D14*
X111795000Y-94615000D03*
D16*
X167640000Y-85725000D03*
D28*
X193040000Y-121585000D03*
D29*
X193040000Y-126665000D03*
D12*
X68580000Y-85725000D03*
D16*
X167640000Y-73025000D03*
D27*
X67100000Y-54000000D03*
D12*
X68580000Y-88265000D03*
D23*
X116875000Y-100965000D03*
D24*
X110875000Y-102965000D03*
X110875000Y-115165000D03*
X122875000Y-115165000D03*
X122875000Y-102965000D03*
D23*
X76200000Y-100965000D03*
D24*
X70200000Y-102965000D03*
X70200000Y-115165000D03*
X82200000Y-115165000D03*
X82200000Y-102965000D03*
D23*
X137160000Y-100965000D03*
D24*
X131160000Y-102965000D03*
X131160000Y-115165000D03*
X143160000Y-115165000D03*
X143160000Y-102965000D03*
D12*
X68580000Y-78105000D03*
D16*
X71120000Y-90805000D03*
D25*
X156845000Y-124840000D03*
X156845000Y-117570000D03*
D26*
X156845000Y-108490000D03*
X156845000Y-101220000D03*
D16*
X167640000Y-80645000D03*
D30*
X180340000Y-57785000D03*
D31*
X180340000Y-55245000D03*
D19*
X91457500Y-126365000D03*
D20*
X96537500Y-126365000D03*
X101617500Y-126365000D03*
D32*
X127000000Y-109220000D03*
D33*
X127000000Y-114300000D03*
D27*
X220500000Y-142000000D03*
D16*
X167640000Y-70485000D03*
X142240000Y-90805000D03*
D19*
X111777500Y-126365000D03*
D20*
X116857500Y-126365000D03*
X121937500Y-126365000D03*
D12*
X68580000Y-83185000D03*
X157480000Y-62865000D03*
X160020000Y-62865000D03*
X162560000Y-62865000D03*
X165100000Y-62865000D03*
X157480000Y-65405000D03*
X160020000Y-65405000D03*
X162560000Y-65405000D03*
X165100000Y-65405000D03*
X157480000Y-67945000D03*
X160020000Y-67945000D03*
X162560000Y-67945000D03*
X165100000Y-67945000D03*
X157480000Y-70485000D03*
X160020000Y-70485000D03*
X162560000Y-70485000D03*
X165100000Y-70485000D03*
X157480000Y-73025000D03*
X160020000Y-73025000D03*
X162560000Y-73025000D03*
X165100000Y-73025000D03*
X157480000Y-75565000D03*
X160020000Y-75565000D03*
X162560000Y-75565000D03*
X165100000Y-75565000D03*
X157480000Y-78105000D03*
X160020000Y-78105000D03*
X162560000Y-78105000D03*
X165100000Y-78105000D03*
X157480000Y-80645000D03*
X160020000Y-80645000D03*
X162560000Y-80645000D03*
X165100000Y-80645000D03*
X157480000Y-83185000D03*
X160020000Y-83185000D03*
X71120000Y-45085000D03*
X162560000Y-83185000D03*
X73660000Y-45085000D03*
X165100000Y-83185000D03*
X76200000Y-45085000D03*
X157480000Y-85725000D03*
X78740000Y-45085000D03*
X160020000Y-85725000D03*
X81280000Y-45085000D03*
X162560000Y-85725000D03*
X83820000Y-45085000D03*
X165100000Y-85725000D03*
X86360000Y-45085000D03*
X157480000Y-88265000D03*
X88900000Y-45085000D03*
X160020000Y-88265000D03*
X91440000Y-45085000D03*
X162560000Y-88265000D03*
X93980000Y-45085000D03*
X165100000Y-88265000D03*
X96520000Y-45085000D03*
X99060000Y-45085000D03*
X101600000Y-45085000D03*
X104140000Y-45085000D03*
X106680000Y-45085000D03*
X109220000Y-45085000D03*
X111760000Y-45085000D03*
X114300000Y-45085000D03*
X116840000Y-45085000D03*
X119380000Y-45085000D03*
X121920000Y-45085000D03*
X124460000Y-45085000D03*
X127000000Y-45085000D03*
X129540000Y-45085000D03*
X132080000Y-45085000D03*
X134620000Y-45085000D03*
X137160000Y-45085000D03*
X139700000Y-45085000D03*
X142240000Y-45085000D03*
X144780000Y-45085000D03*
X147320000Y-45085000D03*
X149860000Y-45085000D03*
X152400000Y-45085000D03*
X154940000Y-45085000D03*
X71120000Y-47625000D03*
X73660000Y-47625000D03*
X76200000Y-47625000D03*
X78740000Y-47625000D03*
X81280000Y-47625000D03*
X83820000Y-47625000D03*
X86360000Y-47625000D03*
X88900000Y-47625000D03*
X91440000Y-47625000D03*
X93980000Y-47625000D03*
X96520000Y-47625000D03*
X99060000Y-47625000D03*
X101600000Y-47625000D03*
X104140000Y-47625000D03*
X106680000Y-47625000D03*
X109220000Y-47625000D03*
X111760000Y-47625000D03*
X114300000Y-47625000D03*
X116840000Y-47625000D03*
X119380000Y-47625000D03*
X121920000Y-47625000D03*
X124460000Y-47625000D03*
X127000000Y-47625000D03*
X129540000Y-47625000D03*
X132080000Y-47625000D03*
X134620000Y-47625000D03*
X137160000Y-47625000D03*
X139700000Y-47625000D03*
X142240000Y-47625000D03*
X144780000Y-47625000D03*
X147320000Y-47625000D03*
X149860000Y-47625000D03*
X152400000Y-47625000D03*
X154940000Y-47625000D03*
X71120000Y-50165000D03*
X73660000Y-50165000D03*
X76200000Y-50165000D03*
X78740000Y-50165000D03*
X81280000Y-50165000D03*
X83820000Y-50165000D03*
X86360000Y-50165000D03*
X88900000Y-50165000D03*
X91440000Y-50165000D03*
X93980000Y-50165000D03*
X96520000Y-50165000D03*
X99060000Y-50165000D03*
X101600000Y-50165000D03*
X104140000Y-50165000D03*
X106680000Y-50165000D03*
X109220000Y-50165000D03*
X111760000Y-50165000D03*
X114300000Y-50165000D03*
X116840000Y-50165000D03*
X119380000Y-50165000D03*
X121920000Y-50165000D03*
X124460000Y-50165000D03*
X127000000Y-50165000D03*
X129540000Y-50165000D03*
X132080000Y-50165000D03*
X134620000Y-50165000D03*
X137160000Y-50165000D03*
X139700000Y-50165000D03*
X142240000Y-50165000D03*
X144780000Y-50165000D03*
X147320000Y-50165000D03*
X149860000Y-50165000D03*
X152400000Y-50165000D03*
X154940000Y-50165000D03*
X71120000Y-52705000D03*
X73660000Y-52705000D03*
X76200000Y-52705000D03*
X78740000Y-52705000D03*
X81280000Y-52705000D03*
X83820000Y-52705000D03*
X86360000Y-52705000D03*
X88900000Y-52705000D03*
X91440000Y-52705000D03*
X93980000Y-52705000D03*
X96520000Y-52705000D03*
X99060000Y-52705000D03*
X101600000Y-52705000D03*
X104140000Y-52705000D03*
X106680000Y-52705000D03*
X109220000Y-52705000D03*
X111760000Y-52705000D03*
X114300000Y-52705000D03*
X116840000Y-52705000D03*
X119380000Y-52705000D03*
X121920000Y-52705000D03*
X124460000Y-52705000D03*
X127000000Y-52705000D03*
X129540000Y-52705000D03*
X132080000Y-52705000D03*
X134620000Y-52705000D03*
X137160000Y-52705000D03*
X139700000Y-52705000D03*
X142240000Y-52705000D03*
X144780000Y-52705000D03*
X147320000Y-52705000D03*
X149860000Y-52705000D03*
X152400000Y-52705000D03*
X154940000Y-52705000D03*
X71120000Y-55245000D03*
X73660000Y-55245000D03*
X76200000Y-55245000D03*
X78740000Y-55245000D03*
X81280000Y-55245000D03*
X83820000Y-55245000D03*
X86360000Y-55245000D03*
X88900000Y-55245000D03*
X91440000Y-55245000D03*
X93980000Y-55245000D03*
X96520000Y-55245000D03*
X99060000Y-55245000D03*
X101600000Y-55245000D03*
X104140000Y-55245000D03*
X106680000Y-55245000D03*
X109220000Y-55245000D03*
X111760000Y-55245000D03*
X114300000Y-55245000D03*
X116840000Y-55245000D03*
X119380000Y-55245000D03*
X121920000Y-55245000D03*
X124460000Y-55245000D03*
X127000000Y-55245000D03*
X129540000Y-55245000D03*
X132080000Y-55245000D03*
X134620000Y-55245000D03*
X137160000Y-55245000D03*
X139700000Y-55245000D03*
X142240000Y-55245000D03*
X144780000Y-55245000D03*
X147320000Y-55245000D03*
X149860000Y-55245000D03*
X152400000Y-55245000D03*
X154940000Y-55245000D03*
X71120000Y-57785000D03*
X73660000Y-57785000D03*
X76200000Y-57785000D03*
X78740000Y-57785000D03*
X81280000Y-57785000D03*
X83820000Y-57785000D03*
X86360000Y-57785000D03*
X88900000Y-57785000D03*
X91440000Y-57785000D03*
X93980000Y-57785000D03*
X96520000Y-57785000D03*
X99060000Y-57785000D03*
X101600000Y-57785000D03*
X104140000Y-57785000D03*
X106680000Y-57785000D03*
X109220000Y-57785000D03*
X111760000Y-57785000D03*
X114300000Y-57785000D03*
X116840000Y-57785000D03*
X119380000Y-57785000D03*
X121920000Y-57785000D03*
X124460000Y-57785000D03*
X127000000Y-57785000D03*
X129540000Y-57785000D03*
X132080000Y-57785000D03*
X134620000Y-57785000D03*
X137160000Y-57785000D03*
X139700000Y-57785000D03*
X142240000Y-57785000D03*
X144780000Y-57785000D03*
X147320000Y-57785000D03*
X149860000Y-57785000D03*
X152400000Y-57785000D03*
X154940000Y-57785000D03*
X71120000Y-60325000D03*
X73660000Y-60325000D03*
X76200000Y-60325000D03*
X78740000Y-60325000D03*
X81280000Y-60325000D03*
X83820000Y-60325000D03*
X86360000Y-60325000D03*
X88900000Y-60325000D03*
X91440000Y-60325000D03*
X93980000Y-60325000D03*
X96520000Y-60325000D03*
X99060000Y-60325000D03*
X101600000Y-60325000D03*
X104140000Y-60325000D03*
X106680000Y-60325000D03*
X109220000Y-60325000D03*
X111760000Y-60325000D03*
X114300000Y-60325000D03*
X116840000Y-60325000D03*
X119380000Y-60325000D03*
X121920000Y-60325000D03*
X124460000Y-60325000D03*
X127000000Y-60325000D03*
X129540000Y-60325000D03*
X132080000Y-60325000D03*
X134620000Y-60325000D03*
X137160000Y-60325000D03*
X139700000Y-60325000D03*
X142240000Y-60325000D03*
X144780000Y-60325000D03*
X147320000Y-60325000D03*
X149860000Y-60325000D03*
X152400000Y-60325000D03*
X154940000Y-60325000D03*
X71120000Y-62865000D03*
X73660000Y-62865000D03*
X76200000Y-62865000D03*
X78740000Y-62865000D03*
X81280000Y-62865000D03*
X83820000Y-62865000D03*
X86360000Y-62865000D03*
X88900000Y-62865000D03*
X91440000Y-62865000D03*
X93980000Y-62865000D03*
X96520000Y-62865000D03*
X99060000Y-62865000D03*
X101600000Y-62865000D03*
X104140000Y-62865000D03*
X106680000Y-62865000D03*
X109220000Y-62865000D03*
X111760000Y-62865000D03*
X114300000Y-62865000D03*
X116840000Y-62865000D03*
X119380000Y-62865000D03*
X121920000Y-62865000D03*
X124460000Y-62865000D03*
X127000000Y-62865000D03*
X129540000Y-62865000D03*
X132080000Y-62865000D03*
X134620000Y-62865000D03*
X137160000Y-62865000D03*
X139700000Y-62865000D03*
X142240000Y-62865000D03*
X144780000Y-62865000D03*
X147320000Y-62865000D03*
X149860000Y-62865000D03*
X152400000Y-62865000D03*
X154940000Y-62865000D03*
X71120000Y-65405000D03*
X73660000Y-65405000D03*
X76200000Y-65405000D03*
X78740000Y-65405000D03*
X81280000Y-65405000D03*
X83820000Y-65405000D03*
X86360000Y-65405000D03*
X88900000Y-65405000D03*
X91440000Y-65405000D03*
X93980000Y-65405000D03*
X96520000Y-65405000D03*
X99060000Y-65405000D03*
X101600000Y-65405000D03*
X104140000Y-65405000D03*
X106680000Y-65405000D03*
X109220000Y-65405000D03*
X111760000Y-65405000D03*
X114300000Y-65405000D03*
X116840000Y-65405000D03*
X119380000Y-65405000D03*
X121920000Y-65405000D03*
X124460000Y-65405000D03*
X127000000Y-65405000D03*
X129540000Y-65405000D03*
X132080000Y-65405000D03*
X134620000Y-65405000D03*
X137160000Y-65405000D03*
X139700000Y-65405000D03*
X142240000Y-65405000D03*
X144780000Y-65405000D03*
X147320000Y-65405000D03*
X149860000Y-65405000D03*
X152400000Y-65405000D03*
X154940000Y-65405000D03*
X71120000Y-67945000D03*
X73660000Y-67945000D03*
X76200000Y-67945000D03*
X78740000Y-67945000D03*
X81280000Y-67945000D03*
X83820000Y-67945000D03*
X86360000Y-67945000D03*
X88900000Y-67945000D03*
X91440000Y-67945000D03*
X93980000Y-67945000D03*
X96520000Y-67945000D03*
X99060000Y-67945000D03*
X101600000Y-67945000D03*
X104140000Y-67945000D03*
X106680000Y-67945000D03*
X109220000Y-67945000D03*
X111760000Y-67945000D03*
X114300000Y-67945000D03*
X116840000Y-67945000D03*
X119380000Y-67945000D03*
X121920000Y-67945000D03*
X124460000Y-67945000D03*
X127000000Y-67945000D03*
X129540000Y-67945000D03*
X132080000Y-67945000D03*
X134620000Y-67945000D03*
X137160000Y-67945000D03*
X139700000Y-67945000D03*
X142240000Y-67945000D03*
X144780000Y-67945000D03*
X147320000Y-67945000D03*
X149860000Y-67945000D03*
X152400000Y-67945000D03*
X154940000Y-67945000D03*
X71120000Y-70485000D03*
X73660000Y-70485000D03*
X76200000Y-70485000D03*
X78740000Y-70485000D03*
X81280000Y-70485000D03*
X83820000Y-70485000D03*
X86360000Y-70485000D03*
X88900000Y-70485000D03*
X91440000Y-70485000D03*
X93980000Y-70485000D03*
X96520000Y-70485000D03*
X99060000Y-70485000D03*
X101600000Y-70485000D03*
X104140000Y-70485000D03*
X106680000Y-70485000D03*
X109220000Y-70485000D03*
X111760000Y-70485000D03*
X114300000Y-70485000D03*
X116840000Y-70485000D03*
X119380000Y-70485000D03*
X121920000Y-70485000D03*
X124460000Y-70485000D03*
X127000000Y-70485000D03*
X129540000Y-70485000D03*
X132080000Y-70485000D03*
X134620000Y-70485000D03*
X137160000Y-70485000D03*
X139700000Y-70485000D03*
X142240000Y-70485000D03*
X144780000Y-70485000D03*
X147320000Y-70485000D03*
X149860000Y-70485000D03*
X152400000Y-70485000D03*
X154940000Y-70485000D03*
X71120000Y-73025000D03*
X73660000Y-73025000D03*
X76200000Y-73025000D03*
X78740000Y-73025000D03*
X81280000Y-73025000D03*
X83820000Y-73025000D03*
X86360000Y-73025000D03*
X88900000Y-73025000D03*
X91440000Y-73025000D03*
X93980000Y-73025000D03*
X96520000Y-73025000D03*
X99060000Y-73025000D03*
X101600000Y-73025000D03*
X104140000Y-73025000D03*
X106680000Y-73025000D03*
X109220000Y-73025000D03*
X111760000Y-73025000D03*
X114300000Y-73025000D03*
X116840000Y-73025000D03*
X119380000Y-73025000D03*
X121920000Y-73025000D03*
X124460000Y-73025000D03*
X127000000Y-73025000D03*
X129540000Y-73025000D03*
X132080000Y-73025000D03*
X134620000Y-73025000D03*
X137160000Y-73025000D03*
X139700000Y-73025000D03*
X142240000Y-73025000D03*
X144780000Y-73025000D03*
X147320000Y-73025000D03*
X149860000Y-73025000D03*
X152400000Y-73025000D03*
X154940000Y-73025000D03*
X71120000Y-75565000D03*
X73660000Y-75565000D03*
X76200000Y-75565000D03*
X78740000Y-75565000D03*
X81280000Y-75565000D03*
X83820000Y-75565000D03*
X86360000Y-75565000D03*
X88900000Y-75565000D03*
X91440000Y-75565000D03*
X93980000Y-75565000D03*
X96520000Y-75565000D03*
X99060000Y-75565000D03*
X101600000Y-75565000D03*
X104140000Y-75565000D03*
X106680000Y-75565000D03*
X109220000Y-75565000D03*
X111760000Y-75565000D03*
X114300000Y-75565000D03*
X116840000Y-75565000D03*
X119380000Y-75565000D03*
X121920000Y-75565000D03*
X124460000Y-75565000D03*
X127000000Y-75565000D03*
X129540000Y-75565000D03*
X132080000Y-75565000D03*
X134620000Y-75565000D03*
X137160000Y-75565000D03*
X139700000Y-75565000D03*
X142240000Y-75565000D03*
X144780000Y-75565000D03*
X147320000Y-75565000D03*
X149860000Y-75565000D03*
X152400000Y-75565000D03*
X154940000Y-75565000D03*
X71120000Y-78105000D03*
X73660000Y-78105000D03*
X76200000Y-78105000D03*
X78740000Y-78105000D03*
X81280000Y-78105000D03*
X83820000Y-78105000D03*
X86360000Y-78105000D03*
X88900000Y-78105000D03*
X91440000Y-78105000D03*
X93980000Y-78105000D03*
X96520000Y-78105000D03*
X99060000Y-78105000D03*
X101600000Y-78105000D03*
X104140000Y-78105000D03*
X106680000Y-78105000D03*
X109220000Y-78105000D03*
X111760000Y-78105000D03*
X114300000Y-78105000D03*
X116840000Y-78105000D03*
X119380000Y-78105000D03*
X121920000Y-78105000D03*
X124460000Y-78105000D03*
X127000000Y-78105000D03*
X129540000Y-78105000D03*
X132080000Y-78105000D03*
X134620000Y-78105000D03*
X137160000Y-78105000D03*
X139700000Y-78105000D03*
X142240000Y-78105000D03*
X144780000Y-78105000D03*
X147320000Y-78105000D03*
X149860000Y-78105000D03*
X152400000Y-78105000D03*
X154940000Y-78105000D03*
X71120000Y-80645000D03*
X73660000Y-80645000D03*
X76200000Y-80645000D03*
X78740000Y-80645000D03*
X81280000Y-80645000D03*
X83820000Y-80645000D03*
X86360000Y-80645000D03*
X88900000Y-80645000D03*
X91440000Y-80645000D03*
X93980000Y-80645000D03*
X96520000Y-80645000D03*
X99060000Y-80645000D03*
X101600000Y-80645000D03*
X104140000Y-80645000D03*
X106680000Y-80645000D03*
X109220000Y-80645000D03*
X111760000Y-80645000D03*
X114300000Y-80645000D03*
X116840000Y-80645000D03*
X119380000Y-80645000D03*
X121920000Y-80645000D03*
X124460000Y-80645000D03*
X127000000Y-80645000D03*
X129540000Y-80645000D03*
X132080000Y-80645000D03*
X134620000Y-80645000D03*
X137160000Y-80645000D03*
X139700000Y-80645000D03*
X142240000Y-80645000D03*
X144780000Y-80645000D03*
X147320000Y-80645000D03*
X149860000Y-80645000D03*
X152400000Y-80645000D03*
X154940000Y-80645000D03*
X71120000Y-83185000D03*
X73660000Y-83185000D03*
X76200000Y-83185000D03*
X78740000Y-83185000D03*
X81280000Y-83185000D03*
X83820000Y-83185000D03*
X86360000Y-83185000D03*
X88900000Y-83185000D03*
X91440000Y-83185000D03*
X93980000Y-83185000D03*
X96520000Y-83185000D03*
X99060000Y-83185000D03*
X101600000Y-83185000D03*
X104140000Y-83185000D03*
X106680000Y-83185000D03*
X109220000Y-83185000D03*
X111760000Y-83185000D03*
X114300000Y-83185000D03*
X116840000Y-83185000D03*
X119380000Y-83185000D03*
X121920000Y-83185000D03*
X124460000Y-83185000D03*
X127000000Y-83185000D03*
X129540000Y-83185000D03*
X132080000Y-83185000D03*
X134620000Y-83185000D03*
X137160000Y-83185000D03*
X139700000Y-83185000D03*
X142240000Y-83185000D03*
X144780000Y-83185000D03*
X147320000Y-83185000D03*
X149860000Y-83185000D03*
X152400000Y-83185000D03*
X154940000Y-83185000D03*
X71120000Y-85725000D03*
X73660000Y-85725000D03*
X76200000Y-85725000D03*
X78740000Y-85725000D03*
X81280000Y-85725000D03*
X83820000Y-85725000D03*
X86360000Y-85725000D03*
X88900000Y-85725000D03*
X91440000Y-85725000D03*
X93980000Y-85725000D03*
X96520000Y-85725000D03*
X99060000Y-85725000D03*
X101600000Y-85725000D03*
X104140000Y-85725000D03*
X106680000Y-85725000D03*
X109220000Y-85725000D03*
X111760000Y-85725000D03*
X114300000Y-85725000D03*
X116840000Y-85725000D03*
X119380000Y-85725000D03*
X121920000Y-85725000D03*
X124460000Y-85725000D03*
X127000000Y-85725000D03*
X129540000Y-85725000D03*
X132080000Y-85725000D03*
X134620000Y-85725000D03*
X137160000Y-85725000D03*
X139700000Y-85725000D03*
X142240000Y-85725000D03*
X144780000Y-85725000D03*
X147320000Y-85725000D03*
X149860000Y-85725000D03*
X152400000Y-85725000D03*
X154940000Y-85725000D03*
X71120000Y-88265000D03*
X73660000Y-88265000D03*
X76200000Y-88265000D03*
X78740000Y-88265000D03*
X81280000Y-88265000D03*
X83820000Y-88265000D03*
X86360000Y-88265000D03*
X88900000Y-88265000D03*
X91440000Y-88265000D03*
X93980000Y-88265000D03*
X96520000Y-88265000D03*
X99060000Y-88265000D03*
X101600000Y-88265000D03*
X104140000Y-88265000D03*
X106680000Y-88265000D03*
X109220000Y-88265000D03*
X111760000Y-88265000D03*
X114300000Y-88265000D03*
X116840000Y-88265000D03*
X119380000Y-88265000D03*
X121920000Y-88265000D03*
X124460000Y-88265000D03*
X127000000Y-88265000D03*
X129540000Y-88265000D03*
X132080000Y-88265000D03*
X134620000Y-88265000D03*
X137160000Y-88265000D03*
X139700000Y-88265000D03*
X142240000Y-88265000D03*
X144780000Y-88265000D03*
X147320000Y-88265000D03*
X149860000Y-88265000D03*
X152400000Y-88265000D03*
X154940000Y-88265000D03*
X157480000Y-60325000D03*
X160020000Y-60325000D03*
X162560000Y-60325000D03*
X165100000Y-60325000D03*
D19*
X193675000Y-135255000D03*
D20*
X198755000Y-135255000D03*
X203835000Y-135255000D03*
X208915000Y-135255000D03*
D10*
X191770000Y-49715000D03*
X186770000Y-49715000D03*
X170180000Y-60920000D03*
X170180000Y-59670000D03*
X170180000Y-57170000D03*
X170180000Y-55920000D03*
D13*
X142248750Y-94615000D03*
D14*
X132088750Y-94615000D03*
D16*
X132080000Y-90805000D03*
D34*
X188025000Y-97100000D03*
D35*
X194025000Y-97100000D03*
X182025000Y-63500000D03*
X200025000Y-63500000D03*
D12*
X68580000Y-70485000D03*
D16*
X91440000Y-90805000D03*
D32*
X86360000Y-109220000D03*
D33*
X86360000Y-114300000D03*
D36*
X202565000Y-103505000D03*
D11*
X202565000Y-106045000D03*
X210185000Y-106045000D03*
X210185000Y-103505000D03*
D19*
X91457500Y-135255000D03*
D20*
X96537500Y-135255000D03*
X101617500Y-135255000D03*
D19*
X71137500Y-126365000D03*
D20*
X76217500Y-126365000D03*
X81297500Y-126365000D03*
D15*
X214630000Y-51435000D03*
X209530000Y-49835000D03*
D27*
X161000000Y-142000000D03*
D16*
X167640000Y-75565000D03*
D32*
X66040000Y-109220000D03*
D33*
X66040000Y-114300000D03*
D27*
X67100000Y-142000000D03*
D19*
X172720000Y-135255000D03*
D20*
X177800000Y-135255000D03*
X182880000Y-135255000D03*
X187960000Y-135255000D03*
D27*
X220500000Y-54000000D03*
D16*
X167640000Y-88265000D03*
D19*
X71137500Y-135255000D03*
D20*
X76217500Y-135255000D03*
X81297500Y-135255000D03*
D32*
X106697500Y-109220000D03*
D33*
X106697500Y-114300000D03*
D36*
X181620000Y-103500000D03*
D11*
X181620000Y-106040000D03*
X189240000Y-106040000D03*
X189240000Y-103500000D03*
D16*
X144780000Y-90805000D03*
D10*
X175260000Y-60920000D03*
X175260000Y-59670000D03*
X175260000Y-57170000D03*
X175260000Y-55920000D03*
D19*
X111777500Y-135255000D03*
D20*
X116857500Y-135255000D03*
X121937500Y-135255000D03*
D10*
X177800000Y-111125000D03*
D11*
X193040000Y-111125000D03*
D16*
X167640000Y-65405000D03*
X167640000Y-67945000D03*
D12*
X68580000Y-80645000D03*
D13*
X101617500Y-94615000D03*
D14*
X91457500Y-94615000D03*
D28*
X213995000Y-121585000D03*
D29*
X213995000Y-126665000D03*
D37*
X219680000Y-65405000D03*
D38*
X220980000Y-65405000D03*
D37*
X219710000Y-75565000D03*
D38*
X221010000Y-75565000D03*
D37*
X219680000Y-80645000D03*
D38*
X220980000Y-80645000D03*
D37*
X219710000Y-85725000D03*
D38*
X221010000Y-85725000D03*
D37*
X219710000Y-90805000D03*
D38*
X221010000Y-90805000D03*
D39*
X182600000Y-55245000D03*
X185700000Y-55245000D03*
D40*
X207925000Y-111125000D03*
X204825000Y-111125000D03*
X186970000Y-111125000D03*
X183870000Y-111125000D03*
D37*
X219680000Y-70485000D03*
D38*
X220980000Y-70485000D03*
M02*
