G04 #@! TF.GenerationSoftware,KiCad,Pcbnew,9.0.2-9.0.2-0~ubuntu24.04.1*
G04 #@! TF.CreationDate,2025-08-24T21:10:56+02:00*
G04 #@! TF.ProjectId,unister,756e6973-7465-4722-9e6b-696361645f70,rev?*
G04 #@! TF.SameCoordinates,Original*
G04 #@! TF.FileFunction,Copper,L2,Bot*
G04 #@! TF.FilePolarity,Positive*
%FSLAX46Y46*%
G04 Gerber Fmt 4.6, Leading zero omitted, Abs format (unit mm)*
G04 Created by KiCad (PCBNEW 9.0.2-9.0.2-0~ubuntu24.04.1) date 2025-08-24 21:10:56*
%MOMM*%
%LPD*%
G01*
G04 APERTURE LIST*
G04 Aperture macros list*
%AMRoundRect*
0 Rectangle with rounded corners*
0 $1 Rounding radius*
0 $2 $3 $4 $5 $6 $7 $8 $9 X,Y pos of 4 corners*
0 Add a 4 corners polygon primitive as box body*
4,1,4,$2,$3,$4,$5,$6,$7,$8,$9,$2,$3,0*
0 Add four circle primitives for the rounded corners*
1,1,$1+$1,$2,$3*
1,1,$1+$1,$4,$5*
1,1,$1+$1,$6,$7*
1,1,$1+$1,$8,$9*
0 Add four rect primitives between the rounded corners*
20,1,$1+$1,$2,$3,$4,$5,0*
20,1,$1+$1,$4,$5,$6,$7,0*
20,1,$1+$1,$6,$7,$8,$9,0*
20,1,$1+$1,$8,$9,$2,$3,0*%
%AMFreePoly0*
4,1,23,0.500000,-0.750000,0.000000,-0.750000,0.000000,-0.745722,-0.065263,-0.745722,-0.191342,-0.711940,-0.304381,-0.646677,-0.396677,-0.554381,-0.461940,-0.441342,-0.495722,-0.315263,-0.495722,-0.250000,-0.500000,-0.250000,-0.500000,0.250000,-0.495722,0.250000,-0.495722,0.315263,-0.461940,0.441342,-0.396677,0.554381,-0.304381,0.646677,-0.191342,0.711940,-0.065263,0.745722,0.000000,0.745722,
0.000000,0.750000,0.500000,0.750000,0.500000,-0.750000,0.500000,-0.750000,$1*%
%AMFreePoly1*
4,1,23,0.000000,0.745722,0.065263,0.745722,0.191342,0.711940,0.304381,0.646677,0.396677,0.554381,0.461940,0.441342,0.495722,0.315263,0.495722,0.250000,0.500000,0.250000,0.500000,-0.250000,0.495722,-0.250000,0.495722,-0.315263,0.461940,-0.441342,0.396677,-0.554381,0.304381,-0.646677,0.191342,-0.711940,0.065263,-0.745722,0.000000,-0.745722,0.000000,-0.750000,-0.500000,-0.750000,
-0.500000,0.750000,0.000000,0.750000,0.000000,0.745722,0.000000,0.745722,$1*%
G04 Aperture macros list end*
G04 #@! TA.AperFunction,ComponentPad*
%ADD10C,1.600000*%
G04 #@! TD*
G04 #@! TA.AperFunction,ComponentPad*
%ADD11O,1.600000X1.600000*%
G04 #@! TD*
G04 #@! TA.AperFunction,ComponentPad*
%ADD12C,1.524000*%
G04 #@! TD*
G04 #@! TA.AperFunction,ComponentPad*
%ADD13R,2.200000X2.200000*%
G04 #@! TD*
G04 #@! TA.AperFunction,ComponentPad*
%ADD14O,2.200000X2.200000*%
G04 #@! TD*
G04 #@! TA.AperFunction,ComponentPad*
%ADD15C,1.270000*%
G04 #@! TD*
G04 #@! TA.AperFunction,ComponentPad*
%ADD16C,1.400000*%
G04 #@! TD*
G04 #@! TA.AperFunction,ComponentPad*
%ADD17RoundRect,0.250000X1.550000X-0.650000X1.550000X0.650000X-1.550000X0.650000X-1.550000X-0.650000X0*%
G04 #@! TD*
G04 #@! TA.AperFunction,ComponentPad*
%ADD18O,3.600000X1.800000*%
G04 #@! TD*
G04 #@! TA.AperFunction,ComponentPad*
%ADD19RoundRect,0.250000X-0.650000X-1.550000X0.650000X-1.550000X0.650000X1.550000X-0.650000X1.550000X0*%
G04 #@! TD*
G04 #@! TA.AperFunction,ComponentPad*
%ADD20O,1.800000X3.600000*%
G04 #@! TD*
G04 #@! TA.AperFunction,ComponentPad*
%ADD21R,1.500000X1.500000*%
G04 #@! TD*
G04 #@! TA.AperFunction,ComponentPad*
%ADD22C,1.500000*%
G04 #@! TD*
G04 #@! TA.AperFunction,ComponentPad*
%ADD23R,2.500000X2.500000*%
G04 #@! TD*
G04 #@! TA.AperFunction,ComponentPad*
%ADD24O,2.500000X2.500000*%
G04 #@! TD*
G04 #@! TA.AperFunction,ComponentPad*
%ADD25RoundRect,0.500000X0.900000X-0.500000X0.900000X0.500000X-0.900000X0.500000X-0.900000X-0.500000X0*%
G04 #@! TD*
G04 #@! TA.AperFunction,ComponentPad*
%ADD26O,2.800000X2.000000*%
G04 #@! TD*
G04 #@! TA.AperFunction,ComponentPad*
%ADD27R,2.400000X2.400000*%
G04 #@! TD*
G04 #@! TA.AperFunction,ComponentPad*
%ADD28O,2.400000X2.400000*%
G04 #@! TD*
G04 #@! TA.AperFunction,ComponentPad*
%ADD29R,1.800000X1.800000*%
G04 #@! TD*
G04 #@! TA.AperFunction,ComponentPad*
%ADD30C,1.800000*%
G04 #@! TD*
G04 #@! TA.AperFunction,ComponentPad*
%ADD31RoundRect,0.650000X-0.650000X0.650000X-0.650000X-0.650000X0.650000X-0.650000X0.650000X0.650000X0*%
G04 #@! TD*
G04 #@! TA.AperFunction,ComponentPad*
%ADD32C,2.600000*%
G04 #@! TD*
G04 #@! TA.AperFunction,ComponentPad*
%ADD33R,2.000000X2.000000*%
G04 #@! TD*
G04 #@! TA.AperFunction,ComponentPad*
%ADD34C,2.000000*%
G04 #@! TD*
G04 #@! TA.AperFunction,ComponentPad*
%ADD35R,1.600000X1.600000*%
G04 #@! TD*
G04 #@! TA.AperFunction,SMDPad,CuDef*
%ADD36FreePoly0,0.000000*%
G04 #@! TD*
G04 #@! TA.AperFunction,SMDPad,CuDef*
%ADD37FreePoly1,0.000000*%
G04 #@! TD*
G04 #@! TA.AperFunction,SMDPad,CuDef*
%ADD38RoundRect,0.250000X-0.400000X-0.625000X0.400000X-0.625000X0.400000X0.625000X-0.400000X0.625000X0*%
G04 #@! TD*
G04 #@! TA.AperFunction,SMDPad,CuDef*
%ADD39RoundRect,0.250000X0.400000X0.625000X-0.400000X0.625000X-0.400000X-0.625000X0.400000X-0.625000X0*%
G04 #@! TD*
G04 #@! TA.AperFunction,Conductor*
%ADD40C,1.500000*%
G04 #@! TD*
G04 #@! TA.AperFunction,Conductor*
%ADD41C,1.000000*%
G04 #@! TD*
G04 #@! TA.AperFunction,Conductor*
%ADD42C,3.000000*%
G04 #@! TD*
G04 #@! TA.AperFunction,Conductor*
%ADD43C,5.000000*%
G04 #@! TD*
G04 APERTURE END LIST*
D10*
X198755000Y-111125000D03*
D11*
X213995000Y-111125000D03*
D12*
X68580000Y-65405000D03*
X68580000Y-60325000D03*
D13*
X198755000Y-117475000D03*
D14*
X198755000Y-127635000D03*
D15*
X174460000Y-105420000D03*
X176060000Y-100320000D03*
D16*
X167640000Y-78105000D03*
D12*
X68580000Y-62865000D03*
D13*
X81297500Y-94615000D03*
D14*
X71137500Y-94615000D03*
D13*
X177800000Y-117475000D03*
D14*
X177800000Y-127635000D03*
D12*
X68580000Y-67945000D03*
D17*
X213360000Y-95885000D03*
D18*
X213360000Y-90805000D03*
X213360000Y-85725000D03*
X213360000Y-80645000D03*
X213360000Y-75565000D03*
X213360000Y-70485000D03*
X213360000Y-65405000D03*
X213360000Y-60325000D03*
D19*
X152400000Y-135255000D03*
D20*
X157480000Y-135255000D03*
X162560000Y-135255000D03*
D16*
X111760000Y-90805000D03*
D21*
X170815000Y-48895000D03*
D22*
X173355000Y-48895000D03*
X175895000Y-48895000D03*
D10*
X187920000Y-122555000D03*
X182920000Y-122555000D03*
X208835000Y-122555000D03*
X203835000Y-122555000D03*
D12*
X68580000Y-73025000D03*
D16*
X167640000Y-83185000D03*
D23*
X96537500Y-100965000D03*
D24*
X90537500Y-102965000D03*
X90537500Y-115165000D03*
X102537500Y-115165000D03*
X102537500Y-102965000D03*
D25*
X167640000Y-124935000D03*
X167640000Y-117665000D03*
D26*
X167640000Y-108585000D03*
X167640000Y-101315000D03*
D19*
X132088750Y-126365000D03*
D20*
X137168750Y-126365000D03*
X142248750Y-126365000D03*
D16*
X157480000Y-57785000D03*
D19*
X132088750Y-135255000D03*
D20*
X137168750Y-135255000D03*
X142248750Y-135255000D03*
D10*
X203160000Y-49715000D03*
X198160000Y-49715000D03*
D12*
X68580000Y-75565000D03*
D16*
X157480000Y-50165000D03*
D13*
X121955000Y-94615000D03*
D14*
X111795000Y-94615000D03*
D16*
X167640000Y-85725000D03*
D27*
X193040000Y-121585000D03*
D28*
X193040000Y-126665000D03*
D12*
X68580000Y-85725000D03*
D16*
X167640000Y-73025000D03*
D12*
X68580000Y-88265000D03*
D23*
X116875000Y-100965000D03*
D24*
X110875000Y-102965000D03*
X110875000Y-115165000D03*
X122875000Y-115165000D03*
X122875000Y-102965000D03*
D23*
X76200000Y-100965000D03*
D24*
X70200000Y-102965000D03*
X70200000Y-115165000D03*
X82200000Y-115165000D03*
X82200000Y-102965000D03*
D23*
X137160000Y-100965000D03*
D24*
X131160000Y-102965000D03*
X131160000Y-115165000D03*
X143160000Y-115165000D03*
X143160000Y-102965000D03*
D12*
X68580000Y-78105000D03*
D16*
X71120000Y-90805000D03*
D25*
X156845000Y-124840000D03*
X156845000Y-117570000D03*
D26*
X156845000Y-108490000D03*
X156845000Y-101220000D03*
D16*
X167640000Y-80645000D03*
D29*
X180340000Y-57785000D03*
D30*
X180340000Y-55245000D03*
D19*
X91457500Y-126365000D03*
D20*
X96537500Y-126365000D03*
X101617500Y-126365000D03*
D31*
X127000000Y-109220000D03*
D32*
X127000000Y-114300000D03*
D16*
X167640000Y-70485000D03*
X142240000Y-90805000D03*
D19*
X111777500Y-126365000D03*
D20*
X116857500Y-126365000D03*
X121937500Y-126365000D03*
D12*
X68580000Y-83185000D03*
X157480000Y-62865000D03*
X160020000Y-62865000D03*
X162560000Y-62865000D03*
X165100000Y-62865000D03*
X157480000Y-65405000D03*
X160020000Y-65405000D03*
X162560000Y-65405000D03*
X165100000Y-65405000D03*
X157480000Y-67945000D03*
X160020000Y-67945000D03*
X162560000Y-67945000D03*
X165100000Y-67945000D03*
X157480000Y-70485000D03*
X160020000Y-70485000D03*
X162560000Y-70485000D03*
X165100000Y-70485000D03*
X157480000Y-73025000D03*
X160020000Y-73025000D03*
X162560000Y-73025000D03*
X165100000Y-73025000D03*
X157480000Y-75565000D03*
X160020000Y-75565000D03*
X162560000Y-75565000D03*
X165100000Y-75565000D03*
X157480000Y-78105000D03*
X160020000Y-78105000D03*
X162560000Y-78105000D03*
X165100000Y-78105000D03*
X157480000Y-80645000D03*
X160020000Y-80645000D03*
X162560000Y-80645000D03*
X165100000Y-80645000D03*
X157480000Y-83185000D03*
X160020000Y-83185000D03*
X71120000Y-45085000D03*
X162560000Y-83185000D03*
X73660000Y-45085000D03*
X165100000Y-83185000D03*
X76200000Y-45085000D03*
X157480000Y-85725000D03*
X78740000Y-45085000D03*
X160020000Y-85725000D03*
X81280000Y-45085000D03*
X162560000Y-85725000D03*
X83820000Y-45085000D03*
X165100000Y-85725000D03*
X86360000Y-45085000D03*
X157480000Y-88265000D03*
X88900000Y-45085000D03*
X160020000Y-88265000D03*
X91440000Y-45085000D03*
X162560000Y-88265000D03*
X93980000Y-45085000D03*
X165100000Y-88265000D03*
X96520000Y-45085000D03*
X99060000Y-45085000D03*
X101600000Y-45085000D03*
X104140000Y-45085000D03*
X106680000Y-45085000D03*
X109220000Y-45085000D03*
X111760000Y-45085000D03*
X114300000Y-45085000D03*
X116840000Y-45085000D03*
X119380000Y-45085000D03*
X121920000Y-45085000D03*
X124460000Y-45085000D03*
X127000000Y-45085000D03*
X129540000Y-45085000D03*
X132080000Y-45085000D03*
X134620000Y-45085000D03*
X137160000Y-45085000D03*
X139700000Y-45085000D03*
X142240000Y-45085000D03*
X144780000Y-45085000D03*
X147320000Y-45085000D03*
X149860000Y-45085000D03*
X152400000Y-45085000D03*
X154940000Y-45085000D03*
X71120000Y-47625000D03*
X73660000Y-47625000D03*
X76200000Y-47625000D03*
X78740000Y-47625000D03*
X81280000Y-47625000D03*
X83820000Y-47625000D03*
X86360000Y-47625000D03*
X88900000Y-47625000D03*
X91440000Y-47625000D03*
X93980000Y-47625000D03*
X96520000Y-47625000D03*
X99060000Y-47625000D03*
X101600000Y-47625000D03*
X104140000Y-47625000D03*
X106680000Y-47625000D03*
X109220000Y-47625000D03*
X111760000Y-47625000D03*
X114300000Y-47625000D03*
X116840000Y-47625000D03*
X119380000Y-47625000D03*
X121920000Y-47625000D03*
X124460000Y-47625000D03*
X127000000Y-47625000D03*
X129540000Y-47625000D03*
X132080000Y-47625000D03*
X134620000Y-47625000D03*
X137160000Y-47625000D03*
X139700000Y-47625000D03*
X142240000Y-47625000D03*
X144780000Y-47625000D03*
X147320000Y-47625000D03*
X149860000Y-47625000D03*
X152400000Y-47625000D03*
X154940000Y-47625000D03*
X71120000Y-50165000D03*
X73660000Y-50165000D03*
X76200000Y-50165000D03*
X78740000Y-50165000D03*
X81280000Y-50165000D03*
X83820000Y-50165000D03*
X86360000Y-50165000D03*
X88900000Y-50165000D03*
X91440000Y-50165000D03*
X93980000Y-50165000D03*
X96520000Y-50165000D03*
X99060000Y-50165000D03*
X101600000Y-50165000D03*
X104140000Y-50165000D03*
X106680000Y-50165000D03*
X109220000Y-50165000D03*
X111760000Y-50165000D03*
X114300000Y-50165000D03*
X116840000Y-50165000D03*
X119380000Y-50165000D03*
X121920000Y-50165000D03*
X124460000Y-50165000D03*
X127000000Y-50165000D03*
X129540000Y-50165000D03*
X132080000Y-50165000D03*
X134620000Y-50165000D03*
X137160000Y-50165000D03*
X139700000Y-50165000D03*
X142240000Y-50165000D03*
X144780000Y-50165000D03*
X147320000Y-50165000D03*
X149860000Y-50165000D03*
X152400000Y-50165000D03*
X154940000Y-50165000D03*
X71120000Y-52705000D03*
X73660000Y-52705000D03*
X76200000Y-52705000D03*
X78740000Y-52705000D03*
X81280000Y-52705000D03*
X83820000Y-52705000D03*
X86360000Y-52705000D03*
X88900000Y-52705000D03*
X91440000Y-52705000D03*
X93980000Y-52705000D03*
X96520000Y-52705000D03*
X99060000Y-52705000D03*
X101600000Y-52705000D03*
X104140000Y-52705000D03*
X106680000Y-52705000D03*
X109220000Y-52705000D03*
X111760000Y-52705000D03*
X114300000Y-52705000D03*
X116840000Y-52705000D03*
X119380000Y-52705000D03*
X121920000Y-52705000D03*
X124460000Y-52705000D03*
X127000000Y-52705000D03*
X129540000Y-52705000D03*
X132080000Y-52705000D03*
X134620000Y-52705000D03*
X137160000Y-52705000D03*
X139700000Y-52705000D03*
X142240000Y-52705000D03*
X144780000Y-52705000D03*
X147320000Y-52705000D03*
X149860000Y-52705000D03*
X152400000Y-52705000D03*
X154940000Y-52705000D03*
X71120000Y-55245000D03*
X73660000Y-55245000D03*
X76200000Y-55245000D03*
X78740000Y-55245000D03*
X81280000Y-55245000D03*
X83820000Y-55245000D03*
X86360000Y-55245000D03*
X88900000Y-55245000D03*
X91440000Y-55245000D03*
X93980000Y-55245000D03*
X96520000Y-55245000D03*
X99060000Y-55245000D03*
X101600000Y-55245000D03*
X104140000Y-55245000D03*
X106680000Y-55245000D03*
X109220000Y-55245000D03*
X111760000Y-55245000D03*
X114300000Y-55245000D03*
X116840000Y-55245000D03*
X119380000Y-55245000D03*
X121920000Y-55245000D03*
X124460000Y-55245000D03*
X127000000Y-55245000D03*
X129540000Y-55245000D03*
X132080000Y-55245000D03*
X134620000Y-55245000D03*
X137160000Y-55245000D03*
X139700000Y-55245000D03*
X142240000Y-55245000D03*
X144780000Y-55245000D03*
X147320000Y-55245000D03*
X149860000Y-55245000D03*
X152400000Y-55245000D03*
X154940000Y-55245000D03*
X71120000Y-57785000D03*
X73660000Y-57785000D03*
X76200000Y-57785000D03*
X78740000Y-57785000D03*
X81280000Y-57785000D03*
X83820000Y-57785000D03*
X86360000Y-57785000D03*
X88900000Y-57785000D03*
X91440000Y-57785000D03*
X93980000Y-57785000D03*
X96520000Y-57785000D03*
X99060000Y-57785000D03*
X101600000Y-57785000D03*
X104140000Y-57785000D03*
X106680000Y-57785000D03*
X109220000Y-57785000D03*
X111760000Y-57785000D03*
X114300000Y-57785000D03*
X116840000Y-57785000D03*
X119380000Y-57785000D03*
X121920000Y-57785000D03*
X124460000Y-57785000D03*
X127000000Y-57785000D03*
X129540000Y-57785000D03*
X132080000Y-57785000D03*
X134620000Y-57785000D03*
X137160000Y-57785000D03*
X139700000Y-57785000D03*
X142240000Y-57785000D03*
X144780000Y-57785000D03*
X147320000Y-57785000D03*
X149860000Y-57785000D03*
X152400000Y-57785000D03*
X154940000Y-57785000D03*
X71120000Y-60325000D03*
X73660000Y-60325000D03*
X76200000Y-60325000D03*
X78740000Y-60325000D03*
X81280000Y-60325000D03*
X83820000Y-60325000D03*
X86360000Y-60325000D03*
X88900000Y-60325000D03*
X91440000Y-60325000D03*
X93980000Y-60325000D03*
X96520000Y-60325000D03*
X99060000Y-60325000D03*
X101600000Y-60325000D03*
X104140000Y-60325000D03*
X106680000Y-60325000D03*
X109220000Y-60325000D03*
X111760000Y-60325000D03*
X114300000Y-60325000D03*
X116840000Y-60325000D03*
X119380000Y-60325000D03*
X121920000Y-60325000D03*
X124460000Y-60325000D03*
X127000000Y-60325000D03*
X129540000Y-60325000D03*
X132080000Y-60325000D03*
X134620000Y-60325000D03*
X137160000Y-60325000D03*
X139700000Y-60325000D03*
X142240000Y-60325000D03*
X144780000Y-60325000D03*
X147320000Y-60325000D03*
X149860000Y-60325000D03*
X152400000Y-60325000D03*
X154940000Y-60325000D03*
X71120000Y-62865000D03*
X73660000Y-62865000D03*
X76200000Y-62865000D03*
X78740000Y-62865000D03*
X81280000Y-62865000D03*
X83820000Y-62865000D03*
X86360000Y-62865000D03*
X88900000Y-62865000D03*
X91440000Y-62865000D03*
X93980000Y-62865000D03*
X96520000Y-62865000D03*
X99060000Y-62865000D03*
X101600000Y-62865000D03*
X104140000Y-62865000D03*
X106680000Y-62865000D03*
X109220000Y-62865000D03*
X111760000Y-62865000D03*
X114300000Y-62865000D03*
X116840000Y-62865000D03*
X119380000Y-62865000D03*
X121920000Y-62865000D03*
X124460000Y-62865000D03*
X127000000Y-62865000D03*
X129540000Y-62865000D03*
X132080000Y-62865000D03*
X134620000Y-62865000D03*
X137160000Y-62865000D03*
X139700000Y-62865000D03*
X142240000Y-62865000D03*
X144780000Y-62865000D03*
X147320000Y-62865000D03*
X149860000Y-62865000D03*
X152400000Y-62865000D03*
X154940000Y-62865000D03*
X71120000Y-65405000D03*
X73660000Y-65405000D03*
X76200000Y-65405000D03*
X78740000Y-65405000D03*
X81280000Y-65405000D03*
X83820000Y-65405000D03*
X86360000Y-65405000D03*
X88900000Y-65405000D03*
X91440000Y-65405000D03*
X93980000Y-65405000D03*
X96520000Y-65405000D03*
X99060000Y-65405000D03*
X101600000Y-65405000D03*
X104140000Y-65405000D03*
X106680000Y-65405000D03*
X109220000Y-65405000D03*
X111760000Y-65405000D03*
X114300000Y-65405000D03*
X116840000Y-65405000D03*
X119380000Y-65405000D03*
X121920000Y-65405000D03*
X124460000Y-65405000D03*
X127000000Y-65405000D03*
X129540000Y-65405000D03*
X132080000Y-65405000D03*
X134620000Y-65405000D03*
X137160000Y-65405000D03*
X139700000Y-65405000D03*
X142240000Y-65405000D03*
X144780000Y-65405000D03*
X147320000Y-65405000D03*
X149860000Y-65405000D03*
X152400000Y-65405000D03*
X154940000Y-65405000D03*
X71120000Y-67945000D03*
X73660000Y-67945000D03*
X76200000Y-67945000D03*
X78740000Y-67945000D03*
X81280000Y-67945000D03*
X83820000Y-67945000D03*
X86360000Y-67945000D03*
X88900000Y-67945000D03*
X91440000Y-67945000D03*
X93980000Y-67945000D03*
X96520000Y-67945000D03*
X99060000Y-67945000D03*
X101600000Y-67945000D03*
X104140000Y-67945000D03*
X106680000Y-67945000D03*
X109220000Y-67945000D03*
X111760000Y-67945000D03*
X114300000Y-67945000D03*
X116840000Y-67945000D03*
X119380000Y-67945000D03*
X121920000Y-67945000D03*
X124460000Y-67945000D03*
X127000000Y-67945000D03*
X129540000Y-67945000D03*
X132080000Y-67945000D03*
X134620000Y-67945000D03*
X137160000Y-67945000D03*
X139700000Y-67945000D03*
X142240000Y-67945000D03*
X144780000Y-67945000D03*
X147320000Y-67945000D03*
X149860000Y-67945000D03*
X152400000Y-67945000D03*
X154940000Y-67945000D03*
X71120000Y-70485000D03*
X73660000Y-70485000D03*
X76200000Y-70485000D03*
X78740000Y-70485000D03*
X81280000Y-70485000D03*
X83820000Y-70485000D03*
X86360000Y-70485000D03*
X88900000Y-70485000D03*
X91440000Y-70485000D03*
X93980000Y-70485000D03*
X96520000Y-70485000D03*
X99060000Y-70485000D03*
X101600000Y-70485000D03*
X104140000Y-70485000D03*
X106680000Y-70485000D03*
X109220000Y-70485000D03*
X111760000Y-70485000D03*
X114300000Y-70485000D03*
X116840000Y-70485000D03*
X119380000Y-70485000D03*
X121920000Y-70485000D03*
X124460000Y-70485000D03*
X127000000Y-70485000D03*
X129540000Y-70485000D03*
X132080000Y-70485000D03*
X134620000Y-70485000D03*
X137160000Y-70485000D03*
X139700000Y-70485000D03*
X142240000Y-70485000D03*
X144780000Y-70485000D03*
X147320000Y-70485000D03*
X149860000Y-70485000D03*
X152400000Y-70485000D03*
X154940000Y-70485000D03*
X71120000Y-73025000D03*
X73660000Y-73025000D03*
X76200000Y-73025000D03*
X78740000Y-73025000D03*
X81280000Y-73025000D03*
X83820000Y-73025000D03*
X86360000Y-73025000D03*
X88900000Y-73025000D03*
X91440000Y-73025000D03*
X93980000Y-73025000D03*
X96520000Y-73025000D03*
X99060000Y-73025000D03*
X101600000Y-73025000D03*
X104140000Y-73025000D03*
X106680000Y-73025000D03*
X109220000Y-73025000D03*
X111760000Y-73025000D03*
X114300000Y-73025000D03*
X116840000Y-73025000D03*
X119380000Y-73025000D03*
X121920000Y-73025000D03*
X124460000Y-73025000D03*
X127000000Y-73025000D03*
X129540000Y-73025000D03*
X132080000Y-73025000D03*
X134620000Y-73025000D03*
X137160000Y-73025000D03*
X139700000Y-73025000D03*
X142240000Y-73025000D03*
X144780000Y-73025000D03*
X147320000Y-73025000D03*
X149860000Y-73025000D03*
X152400000Y-73025000D03*
X154940000Y-73025000D03*
X71120000Y-75565000D03*
X73660000Y-75565000D03*
X76200000Y-75565000D03*
X78740000Y-75565000D03*
X81280000Y-75565000D03*
X83820000Y-75565000D03*
X86360000Y-75565000D03*
X88900000Y-75565000D03*
X91440000Y-75565000D03*
X93980000Y-75565000D03*
X96520000Y-75565000D03*
X99060000Y-75565000D03*
X101600000Y-75565000D03*
X104140000Y-75565000D03*
X106680000Y-75565000D03*
X109220000Y-75565000D03*
X111760000Y-75565000D03*
X114300000Y-75565000D03*
X116840000Y-75565000D03*
X119380000Y-75565000D03*
X121920000Y-75565000D03*
X124460000Y-75565000D03*
X127000000Y-75565000D03*
X129540000Y-75565000D03*
X132080000Y-75565000D03*
X134620000Y-75565000D03*
X137160000Y-75565000D03*
X139700000Y-75565000D03*
X142240000Y-75565000D03*
X144780000Y-75565000D03*
X147320000Y-75565000D03*
X149860000Y-75565000D03*
X152400000Y-75565000D03*
X154940000Y-75565000D03*
X71120000Y-78105000D03*
X73660000Y-78105000D03*
X76200000Y-78105000D03*
X78740000Y-78105000D03*
X81280000Y-78105000D03*
X83820000Y-78105000D03*
X86360000Y-78105000D03*
X88900000Y-78105000D03*
X91440000Y-78105000D03*
X93980000Y-78105000D03*
X96520000Y-78105000D03*
X99060000Y-78105000D03*
X101600000Y-78105000D03*
X104140000Y-78105000D03*
X106680000Y-78105000D03*
X109220000Y-78105000D03*
X111760000Y-78105000D03*
X114300000Y-78105000D03*
X116840000Y-78105000D03*
X119380000Y-78105000D03*
X121920000Y-78105000D03*
X124460000Y-78105000D03*
X127000000Y-78105000D03*
X129540000Y-78105000D03*
X132080000Y-78105000D03*
X134620000Y-78105000D03*
X137160000Y-78105000D03*
X139700000Y-78105000D03*
X142240000Y-78105000D03*
X144780000Y-78105000D03*
X147320000Y-78105000D03*
X149860000Y-78105000D03*
X152400000Y-78105000D03*
X154940000Y-78105000D03*
X71120000Y-80645000D03*
X73660000Y-80645000D03*
X76200000Y-80645000D03*
X78740000Y-80645000D03*
X81280000Y-80645000D03*
X83820000Y-80645000D03*
X86360000Y-80645000D03*
X88900000Y-80645000D03*
X91440000Y-80645000D03*
X93980000Y-80645000D03*
X96520000Y-80645000D03*
X99060000Y-80645000D03*
X101600000Y-80645000D03*
X104140000Y-80645000D03*
X106680000Y-80645000D03*
X109220000Y-80645000D03*
X111760000Y-80645000D03*
X114300000Y-80645000D03*
X116840000Y-80645000D03*
X119380000Y-80645000D03*
X121920000Y-80645000D03*
X124460000Y-80645000D03*
X127000000Y-80645000D03*
X129540000Y-80645000D03*
X132080000Y-80645000D03*
X134620000Y-80645000D03*
X137160000Y-80645000D03*
X139700000Y-80645000D03*
X142240000Y-80645000D03*
X144780000Y-80645000D03*
X147320000Y-80645000D03*
X149860000Y-80645000D03*
X152400000Y-80645000D03*
X154940000Y-80645000D03*
X71120000Y-83185000D03*
X73660000Y-83185000D03*
X76200000Y-83185000D03*
X78740000Y-83185000D03*
X81280000Y-83185000D03*
X83820000Y-83185000D03*
X86360000Y-83185000D03*
X88900000Y-83185000D03*
X91440000Y-83185000D03*
X93980000Y-83185000D03*
X96520000Y-83185000D03*
X99060000Y-83185000D03*
X101600000Y-83185000D03*
X104140000Y-83185000D03*
X106680000Y-83185000D03*
X109220000Y-83185000D03*
X111760000Y-83185000D03*
X114300000Y-83185000D03*
X116840000Y-83185000D03*
X119380000Y-83185000D03*
X121920000Y-83185000D03*
X124460000Y-83185000D03*
X127000000Y-83185000D03*
X129540000Y-83185000D03*
X132080000Y-83185000D03*
X134620000Y-83185000D03*
X137160000Y-83185000D03*
X139700000Y-83185000D03*
X142240000Y-83185000D03*
X144780000Y-83185000D03*
X147320000Y-83185000D03*
X149860000Y-83185000D03*
X152400000Y-83185000D03*
X154940000Y-83185000D03*
X71120000Y-85725000D03*
X73660000Y-85725000D03*
X76200000Y-85725000D03*
X78740000Y-85725000D03*
X81280000Y-85725000D03*
X83820000Y-85725000D03*
X86360000Y-85725000D03*
X88900000Y-85725000D03*
X91440000Y-85725000D03*
X93980000Y-85725000D03*
X96520000Y-85725000D03*
X99060000Y-85725000D03*
X101600000Y-85725000D03*
X104140000Y-85725000D03*
X106680000Y-85725000D03*
X109220000Y-85725000D03*
X111760000Y-85725000D03*
X114300000Y-85725000D03*
X116840000Y-85725000D03*
X119380000Y-85725000D03*
X121920000Y-85725000D03*
X124460000Y-85725000D03*
X127000000Y-85725000D03*
X129540000Y-85725000D03*
X132080000Y-85725000D03*
X134620000Y-85725000D03*
X137160000Y-85725000D03*
X139700000Y-85725000D03*
X142240000Y-85725000D03*
X144780000Y-85725000D03*
X147320000Y-85725000D03*
X149860000Y-85725000D03*
X152400000Y-85725000D03*
X154940000Y-85725000D03*
X71120000Y-88265000D03*
X73660000Y-88265000D03*
X76200000Y-88265000D03*
X78740000Y-88265000D03*
X81280000Y-88265000D03*
X83820000Y-88265000D03*
X86360000Y-88265000D03*
X88900000Y-88265000D03*
X91440000Y-88265000D03*
X93980000Y-88265000D03*
X96520000Y-88265000D03*
X99060000Y-88265000D03*
X101600000Y-88265000D03*
X104140000Y-88265000D03*
X106680000Y-88265000D03*
X109220000Y-88265000D03*
X111760000Y-88265000D03*
X114300000Y-88265000D03*
X116840000Y-88265000D03*
X119380000Y-88265000D03*
X121920000Y-88265000D03*
X124460000Y-88265000D03*
X127000000Y-88265000D03*
X129540000Y-88265000D03*
X132080000Y-88265000D03*
X134620000Y-88265000D03*
X137160000Y-88265000D03*
X139700000Y-88265000D03*
X142240000Y-88265000D03*
X144780000Y-88265000D03*
X147320000Y-88265000D03*
X149860000Y-88265000D03*
X152400000Y-88265000D03*
X154940000Y-88265000D03*
X157480000Y-60325000D03*
X160020000Y-60325000D03*
X162560000Y-60325000D03*
X165100000Y-60325000D03*
D19*
X193675000Y-135255000D03*
D20*
X198755000Y-135255000D03*
X203835000Y-135255000D03*
X208915000Y-135255000D03*
D10*
X191770000Y-49715000D03*
X186770000Y-49715000D03*
X170180000Y-60920000D03*
X170180000Y-59670000D03*
X170180000Y-57170000D03*
X170180000Y-55920000D03*
D13*
X142248750Y-94615000D03*
D14*
X132088750Y-94615000D03*
D16*
X132080000Y-90805000D03*
D33*
X188025000Y-97100000D03*
D34*
X194025000Y-97100000D03*
X182025000Y-63500000D03*
X200025000Y-63500000D03*
D12*
X68580000Y-70485000D03*
D16*
X91440000Y-90805000D03*
D31*
X86360000Y-109220000D03*
D32*
X86360000Y-114300000D03*
D35*
X202565000Y-103505000D03*
D11*
X202565000Y-106045000D03*
X210185000Y-106045000D03*
X210185000Y-103505000D03*
D19*
X91457500Y-135255000D03*
D20*
X96537500Y-135255000D03*
X101617500Y-135255000D03*
D19*
X71137500Y-126365000D03*
D20*
X76217500Y-126365000D03*
X81297500Y-126365000D03*
D15*
X214630000Y-51435000D03*
X209530000Y-49835000D03*
D16*
X167640000Y-75565000D03*
D31*
X66040000Y-109220000D03*
D32*
X66040000Y-114300000D03*
D19*
X172720000Y-135255000D03*
D20*
X177800000Y-135255000D03*
X182880000Y-135255000D03*
X187960000Y-135255000D03*
D16*
X167640000Y-88265000D03*
D19*
X71137500Y-135255000D03*
D20*
X76217500Y-135255000D03*
X81297500Y-135255000D03*
D31*
X106697500Y-109220000D03*
D32*
X106697500Y-114300000D03*
D35*
X181620000Y-103500000D03*
D11*
X181620000Y-106040000D03*
X189240000Y-106040000D03*
X189240000Y-103500000D03*
D16*
X144780000Y-90805000D03*
D10*
X175260000Y-60920000D03*
X175260000Y-59670000D03*
X175260000Y-57170000D03*
X175260000Y-55920000D03*
D19*
X111777500Y-135255000D03*
D20*
X116857500Y-135255000D03*
X121937500Y-135255000D03*
D10*
X177800000Y-111125000D03*
D11*
X193040000Y-111125000D03*
D16*
X167640000Y-65405000D03*
X167640000Y-67945000D03*
D12*
X68580000Y-80645000D03*
D13*
X101617500Y-94615000D03*
D14*
X91457500Y-94615000D03*
D27*
X213995000Y-121585000D03*
D28*
X213995000Y-126665000D03*
D36*
X219680000Y-65405000D03*
D37*
X220980000Y-65405000D03*
D36*
X219710000Y-75565000D03*
D37*
X221010000Y-75565000D03*
D36*
X219680000Y-80645000D03*
D37*
X220980000Y-80645000D03*
D36*
X219710000Y-85725000D03*
D37*
X221010000Y-85725000D03*
D36*
X219710000Y-90805000D03*
D37*
X221010000Y-90805000D03*
D38*
X182600000Y-55245000D03*
X185700000Y-55245000D03*
D39*
X207925000Y-111125000D03*
X204825000Y-111125000D03*
X186970000Y-111125000D03*
X183870000Y-111125000D03*
D36*
X219680000Y-70485000D03*
D37*
X220980000Y-70485000D03*
D40*
X172085000Y-46540000D02*
X199985000Y-46540000D01*
X167640000Y-52070000D02*
X170815000Y-48895000D01*
X168890000Y-59670000D02*
X167640000Y-58420000D01*
X170815000Y-47810000D02*
X172085000Y-46540000D01*
X199985000Y-46540000D02*
X203160000Y-49715000D01*
X170815000Y-48895000D02*
X170815000Y-47810000D01*
X170180000Y-60920000D02*
X170180000Y-59670000D01*
X203160000Y-49715000D02*
X209550000Y-49715000D01*
X167640000Y-58420000D02*
X167640000Y-52070000D01*
X170180000Y-59670000D02*
X168890000Y-59670000D01*
X208915000Y-138430000D02*
X206375000Y-140970000D01*
X217805000Y-106045000D02*
X210185000Y-106045000D01*
X173355000Y-48895000D02*
X173355000Y-54015000D01*
D41*
X220980000Y-70485000D02*
X222250000Y-70485000D01*
D40*
X187960000Y-138430000D02*
X187960000Y-135255000D01*
D41*
X220980000Y-65405000D02*
X222250000Y-65405000D01*
D40*
X173355000Y-54015000D02*
X175260000Y-55920000D01*
D41*
X221010000Y-90805000D02*
X222250000Y-90805000D01*
D40*
X222250000Y-101600000D02*
X222250000Y-90805000D01*
X222250000Y-101600000D02*
X217805000Y-106045000D01*
X222250000Y-90805000D02*
X222250000Y-70485000D01*
X222250000Y-70485000D02*
X222250000Y-65405000D01*
X190500000Y-140970000D02*
X187960000Y-138430000D01*
X206375000Y-140970000D02*
X190500000Y-140970000D01*
D41*
X220980000Y-80645000D02*
X222250000Y-80645000D01*
D40*
X208915000Y-135255000D02*
X208915000Y-138430000D01*
D41*
X221010000Y-85725000D02*
X222250000Y-85725000D01*
X221010000Y-75565000D02*
X222250000Y-75565000D01*
D40*
X177800000Y-52705000D02*
X185420000Y-52705000D01*
X185420000Y-52705000D02*
X191770000Y-52705000D01*
X175260000Y-60920000D02*
X175260000Y-59670000D01*
X175260000Y-59670000D02*
X176550000Y-59670000D01*
D41*
X185700000Y-52985000D02*
X185420000Y-52705000D01*
D40*
X176550000Y-59670000D02*
X177800000Y-58420000D01*
D41*
X185700000Y-55245000D02*
X185700000Y-52985000D01*
D40*
X177800000Y-58420000D02*
X177800000Y-52705000D01*
X177800000Y-50800000D02*
X177800000Y-52705000D01*
X175895000Y-48895000D02*
X177800000Y-50800000D01*
X191770000Y-52705000D02*
X191770000Y-49715000D01*
D42*
X213995000Y-121585000D02*
X209805000Y-121585000D01*
X209805000Y-121585000D02*
X208835000Y-122555000D01*
X213995000Y-121585000D02*
X213995000Y-111125000D01*
D41*
X207925000Y-111125000D02*
X213995000Y-111125000D01*
D42*
X203835000Y-125730000D02*
X203835000Y-135255000D01*
X204770000Y-126665000D02*
X203835000Y-125730000D01*
D41*
X202565000Y-121285000D02*
X203835000Y-122555000D01*
D42*
X203835000Y-122555000D02*
X203835000Y-125730000D01*
X203835000Y-135255000D02*
X203835000Y-136525000D01*
X213995000Y-126665000D02*
X204770000Y-126665000D01*
D41*
X202565000Y-106045000D02*
X202565000Y-121285000D01*
X186970000Y-111125000D02*
X193040000Y-111125000D01*
D42*
X193040000Y-121585000D02*
X193040000Y-111125000D01*
X193040000Y-121585000D02*
X188850000Y-121585000D01*
X188850000Y-121585000D02*
X187880000Y-122555000D01*
D41*
X181610000Y-106045000D02*
X181610000Y-121285000D01*
D42*
X182880000Y-135255000D02*
X182880000Y-136525000D01*
X183815000Y-126665000D02*
X182880000Y-125730000D01*
X182880000Y-122555000D02*
X182880000Y-125730000D01*
X193040000Y-126665000D02*
X183815000Y-126665000D01*
D41*
X181610000Y-121285000D02*
X182880000Y-122555000D01*
D42*
X182880000Y-125730000D02*
X182880000Y-135255000D01*
D40*
X71137500Y-94615000D02*
X71137500Y-102027500D01*
X71137500Y-102027500D02*
X70200000Y-102965000D01*
X71120000Y-94597500D02*
X71137500Y-94615000D01*
X71120000Y-90805000D02*
X71120000Y-94597500D01*
X91457500Y-94615000D02*
X91457500Y-102045000D01*
X91440000Y-90805000D02*
X91440000Y-94597500D01*
X91457500Y-102045000D02*
X90537500Y-102965000D01*
X91440000Y-94597500D02*
X91457500Y-94615000D01*
X111795000Y-94615000D02*
X111795000Y-102045000D01*
X111760000Y-94580000D02*
X111795000Y-94615000D01*
X111795000Y-102045000D02*
X110875000Y-102965000D01*
X111760000Y-90805000D02*
X111760000Y-94580000D01*
X132088750Y-102036250D02*
X131160000Y-102965000D01*
X132080000Y-90805000D02*
X132080000Y-94606250D01*
X132080000Y-94606250D02*
X132088750Y-94615000D01*
X132088750Y-94615000D02*
X132088750Y-102036250D01*
D41*
X180340000Y-55245000D02*
X182600000Y-55245000D01*
D42*
X198755000Y-117475000D02*
X198755000Y-111125000D01*
X198755000Y-135255000D02*
X198755000Y-136525000D01*
X198755000Y-135255000D02*
X198755000Y-127635000D01*
X177800000Y-117475000D02*
X177800000Y-111125000D01*
X177800000Y-135255000D02*
X177800000Y-136525000D01*
X177800000Y-135255000D02*
X177800000Y-127635000D01*
D43*
X156845000Y-124840000D02*
X156845000Y-117570000D01*
X164370000Y-124840000D02*
X164465000Y-124935000D01*
X167640000Y-124935000D02*
X167640000Y-117665000D01*
X156845000Y-124840000D02*
X164370000Y-124840000D01*
X164465000Y-124935000D02*
X167640000Y-124935000D01*
X162560000Y-135255000D02*
X162560000Y-126840000D01*
X147320000Y-120015000D02*
X149225000Y-118110000D01*
X94615000Y-109220000D02*
X96520000Y-111125000D01*
X96520000Y-111125000D02*
X96520000Y-118110000D01*
X96520000Y-118110000D02*
X98425000Y-120015000D01*
X98425000Y-120015000D02*
X147320000Y-120015000D01*
X86360000Y-109220000D02*
X94615000Y-109220000D01*
X66040000Y-109220000D02*
X86360000Y-109220000D01*
X149225000Y-118110000D02*
X149225000Y-115570000D01*
X156845000Y-101220000D02*
X156845000Y-108490000D01*
X156305000Y-108490000D02*
X156845000Y-108490000D01*
X149225000Y-115570000D02*
X156305000Y-108490000D01*
X167640000Y-108585000D02*
X167640000Y-101315000D01*
X127000000Y-109220000D02*
X145415000Y-109220000D01*
X167640000Y-97790000D02*
X167640000Y-101315000D01*
X151765000Y-94615000D02*
X164465000Y-94615000D01*
X147955000Y-106680000D02*
X147955000Y-98425000D01*
X147955000Y-98425000D02*
X151765000Y-94615000D01*
X106697500Y-109220000D02*
X127000000Y-109220000D01*
X164465000Y-94615000D02*
X167640000Y-97790000D01*
X145415000Y-109220000D02*
X147955000Y-106680000D01*
X111795000Y-141587500D02*
X111777500Y-141605000D01*
D42*
X92057500Y-141587500D02*
X74930000Y-141587500D01*
D43*
X132123750Y-141605000D02*
X132106250Y-141587500D01*
X92057500Y-141587500D02*
X91440000Y-140970000D01*
D42*
X74930000Y-141587500D02*
X71137500Y-137795000D01*
X111777500Y-135255000D02*
X111777500Y-133367500D01*
D43*
X132106250Y-133358750D02*
X132097500Y-133350000D01*
X146050000Y-141605000D02*
X132123750Y-141605000D01*
X132106250Y-141587500D02*
X132106250Y-133358750D01*
X152400000Y-135255000D02*
X146050000Y-141605000D01*
X132106250Y-141587500D02*
X116840000Y-141587500D01*
X116840000Y-141587500D02*
X92057500Y-141587500D01*
D42*
X111777500Y-135255000D02*
X111777500Y-141605000D01*
X71137500Y-137795000D02*
X71137500Y-135255000D01*
D43*
X91440000Y-140970000D02*
X91440000Y-134002500D01*
X116840000Y-141587500D02*
X111795000Y-141587500D01*
D42*
X76217500Y-126365000D02*
X76217500Y-128270000D01*
X81297500Y-133350000D02*
X81297500Y-135255000D01*
X81297500Y-135255000D02*
X81297500Y-135890000D01*
X76217500Y-128270000D02*
X81297500Y-133350000D01*
X76217500Y-126365000D02*
X76217500Y-125730000D01*
X96537500Y-126365000D02*
X96537500Y-128270000D01*
X101617500Y-135255000D02*
X101617500Y-135890000D01*
X96537500Y-126365000D02*
X96537500Y-125730000D01*
X96537500Y-128270000D02*
X101617500Y-133350000D01*
X101617500Y-133350000D02*
X101617500Y-135255000D01*
X116857500Y-126365000D02*
X116857500Y-128270000D01*
X121937500Y-133350000D02*
X121937500Y-135255000D01*
X121937500Y-135255000D02*
X121937500Y-135890000D01*
X116857500Y-128270000D02*
X121937500Y-133350000D01*
X116857500Y-126365000D02*
X116857500Y-125730000D01*
X137177500Y-128270000D02*
X142257500Y-133350000D01*
X137177500Y-126365000D02*
X137177500Y-125730000D01*
X137177500Y-126365000D02*
X137177500Y-128270000D01*
X142257500Y-133350000D02*
X142257500Y-135255000D01*
X142257500Y-135255000D02*
X142257500Y-135890000D01*
D41*
X198120000Y-83185000D02*
X210820000Y-95885000D01*
X210820000Y-95885000D02*
X213360000Y-95885000D01*
X167640000Y-83185000D02*
X198120000Y-83185000D01*
X198755000Y-80645000D02*
X208915000Y-90805000D01*
X213360000Y-90805000D02*
X219710000Y-90805000D01*
X208915000Y-90805000D02*
X213360000Y-90805000D01*
X167640000Y-80645000D02*
X198755000Y-80645000D01*
X198755000Y-78105000D02*
X206375000Y-85725000D01*
X167640000Y-78105000D02*
X198755000Y-78105000D01*
X213360000Y-85725000D02*
X219710000Y-85725000D01*
X206375000Y-85725000D02*
X213360000Y-85725000D01*
X167640000Y-75565000D02*
X198755000Y-75565000D01*
X203835000Y-80645000D02*
X213360000Y-80645000D01*
X213360000Y-80645000D02*
X219680000Y-80645000D01*
X198755000Y-75565000D02*
X203835000Y-80645000D01*
X200660000Y-73660000D02*
X202565000Y-75565000D01*
X167640000Y-73025000D02*
X175895000Y-73025000D01*
X175895000Y-73025000D02*
X176530000Y-73660000D01*
X213360000Y-75565000D02*
X219710000Y-75565000D01*
X202565000Y-75565000D02*
X213360000Y-75565000D01*
X176530000Y-73660000D02*
X200660000Y-73660000D01*
X175895000Y-70485000D02*
X177165000Y-71755000D01*
X167640000Y-70485000D02*
X175895000Y-70485000D01*
X177165000Y-71755000D02*
X200660000Y-71755000D01*
X200660000Y-71755000D02*
X201930000Y-70485000D01*
X201930000Y-70485000D02*
X213360000Y-70485000D01*
X213360000Y-70485000D02*
X219680000Y-70485000D01*
X175895000Y-67945000D02*
X177800000Y-69850000D01*
X204470000Y-65405000D02*
X213360000Y-65405000D01*
X177800000Y-69850000D02*
X200025000Y-69850000D01*
X200025000Y-69850000D02*
X204470000Y-65405000D01*
X167640000Y-67945000D02*
X175895000Y-67945000D01*
X213360000Y-65405000D02*
X219680000Y-65405000D01*
X207010000Y-60325000D02*
X213360000Y-60325000D01*
X175895000Y-65405000D02*
X178435000Y-67945000D01*
X167640000Y-65405000D02*
X175895000Y-65405000D01*
X199390000Y-67945000D02*
X207010000Y-60325000D01*
X178435000Y-67945000D02*
X199390000Y-67945000D01*
X204825000Y-104495000D02*
X203835000Y-103505000D01*
X204825000Y-111125000D02*
X204825000Y-104495000D01*
X203835000Y-103505000D02*
X202565000Y-103505000D01*
X183870000Y-111125000D02*
X183870000Y-104495000D01*
X182880000Y-103505000D02*
X181610000Y-103505000D01*
X183870000Y-104495000D02*
X182880000Y-103505000D01*
X191135000Y-85725000D02*
X167640000Y-85725000D01*
X208915000Y-103505000D02*
X191135000Y-85725000D01*
X210185000Y-103505000D02*
X208915000Y-103505000D01*
X186050000Y-103500000D02*
X170815000Y-88265000D01*
X170815000Y-88265000D02*
X170180000Y-88265000D01*
X189240000Y-103500000D02*
X186050000Y-103500000D01*
X167640000Y-88265000D02*
X170180000Y-88265000D01*
D40*
X81297500Y-94615000D02*
X81297500Y-102062500D01*
X142248750Y-94615000D02*
X142248750Y-90813750D01*
X121955000Y-94615000D02*
X121955000Y-102045000D01*
X121955000Y-102045000D02*
X122875000Y-102965000D01*
X81297500Y-102062500D02*
X82200000Y-102965000D01*
X101617500Y-94615000D02*
X101617500Y-102045000D01*
X101617500Y-102045000D02*
X102537500Y-102965000D01*
X142248750Y-102053750D02*
X143160000Y-102965000D01*
X142248750Y-90813750D02*
X142240000Y-90805000D01*
X142248750Y-94615000D02*
X142248750Y-102053750D01*
M02*
