%TF.GenerationSoftware,KiCad,Pcbnew,7.0.9*%
%TF.CreationDate,2024-10-14T21:49:45+02:00*%
%TF.ProjectId,unister,756e6973-7465-4722-9e6b-696361645f70,rev?*%
%TF.SameCoordinates,Original*%
%TF.FileFunction,Drillmap*%
%TF.FilePolarity,Positive*%
%FSLAX45Y45*%
G04 Gerber Fmt 4.5, Leading zero omitted, Abs format (unit mm)*
G04 Created by KiCad (PCBNEW 7.0.9) date 2024-10-14 21:49:45*
%MOMM*%
%LPD*%
G01*
G04 APERTURE LIST*
%ADD10C,0.100000*%
%ADD11C,0.200000*%
%ADD12C,0.220000*%
G04 APERTURE END LIST*
D10*
X6096000Y-4318000D02*
X22479000Y-4318000D01*
X22479000Y-14605000D01*
X6096000Y-14605000D01*
X6096000Y-4318000D01*
D11*
D12*
X6490000Y-5290000D02*
X6710000Y-5510000D01*
X6710000Y-5290000D02*
X6490000Y-5510000D01*
X6490000Y-14090000D02*
X6710000Y-14310000D01*
X6710000Y-14090000D02*
X6490000Y-14310000D01*
X15980000Y-14090000D02*
X16200000Y-14310000D01*
X16200000Y-14090000D02*
X15980000Y-14310000D01*
X15990000Y-5290000D02*
X16210000Y-5510000D01*
X16210000Y-5290000D02*
X15990000Y-5510000D01*
X21940000Y-5290000D02*
X22160000Y-5510000D01*
X22160000Y-5290000D02*
X21940000Y-5510000D01*
X21940000Y-14090000D02*
X22160000Y-14310000D01*
X22160000Y-14090000D02*
X21940000Y-14310000D01*
D11*
X6351777Y-14921484D02*
X6351777Y-14721484D01*
X6351777Y-14721484D02*
X6399396Y-14721484D01*
X6399396Y-14721484D02*
X6427967Y-14731008D01*
X6427967Y-14731008D02*
X6447015Y-14750055D01*
X6447015Y-14750055D02*
X6456539Y-14769103D01*
X6456539Y-14769103D02*
X6466062Y-14807198D01*
X6466062Y-14807198D02*
X6466062Y-14835769D01*
X6466062Y-14835769D02*
X6456539Y-14873865D01*
X6456539Y-14873865D02*
X6447015Y-14892912D01*
X6447015Y-14892912D02*
X6427967Y-14911960D01*
X6427967Y-14911960D02*
X6399396Y-14921484D01*
X6399396Y-14921484D02*
X6351777Y-14921484D01*
X6551777Y-14921484D02*
X6551777Y-14788150D01*
X6551777Y-14826246D02*
X6561301Y-14807198D01*
X6561301Y-14807198D02*
X6570824Y-14797674D01*
X6570824Y-14797674D02*
X6589872Y-14788150D01*
X6589872Y-14788150D02*
X6608920Y-14788150D01*
X6675586Y-14921484D02*
X6675586Y-14788150D01*
X6675586Y-14721484D02*
X6666062Y-14731008D01*
X6666062Y-14731008D02*
X6675586Y-14740531D01*
X6675586Y-14740531D02*
X6685110Y-14731008D01*
X6685110Y-14731008D02*
X6675586Y-14721484D01*
X6675586Y-14721484D02*
X6675586Y-14740531D01*
X6799396Y-14921484D02*
X6780348Y-14911960D01*
X6780348Y-14911960D02*
X6770824Y-14892912D01*
X6770824Y-14892912D02*
X6770824Y-14721484D01*
X6904158Y-14921484D02*
X6885110Y-14911960D01*
X6885110Y-14911960D02*
X6875586Y-14892912D01*
X6875586Y-14892912D02*
X6875586Y-14721484D01*
X7132729Y-14921484D02*
X7132729Y-14721484D01*
X7132729Y-14721484D02*
X7199396Y-14864341D01*
X7199396Y-14864341D02*
X7266062Y-14721484D01*
X7266062Y-14721484D02*
X7266062Y-14921484D01*
X7447015Y-14921484D02*
X7447015Y-14816722D01*
X7447015Y-14816722D02*
X7437491Y-14797674D01*
X7437491Y-14797674D02*
X7418443Y-14788150D01*
X7418443Y-14788150D02*
X7380348Y-14788150D01*
X7380348Y-14788150D02*
X7361301Y-14797674D01*
X7447015Y-14911960D02*
X7427967Y-14921484D01*
X7427967Y-14921484D02*
X7380348Y-14921484D01*
X7380348Y-14921484D02*
X7361301Y-14911960D01*
X7361301Y-14911960D02*
X7351777Y-14892912D01*
X7351777Y-14892912D02*
X7351777Y-14873865D01*
X7351777Y-14873865D02*
X7361301Y-14854817D01*
X7361301Y-14854817D02*
X7380348Y-14845293D01*
X7380348Y-14845293D02*
X7427967Y-14845293D01*
X7427967Y-14845293D02*
X7447015Y-14835769D01*
X7542253Y-14788150D02*
X7542253Y-14988150D01*
X7542253Y-14797674D02*
X7561301Y-14788150D01*
X7561301Y-14788150D02*
X7599396Y-14788150D01*
X7599396Y-14788150D02*
X7618443Y-14797674D01*
X7618443Y-14797674D02*
X7627967Y-14807198D01*
X7627967Y-14807198D02*
X7637491Y-14826246D01*
X7637491Y-14826246D02*
X7637491Y-14883388D01*
X7637491Y-14883388D02*
X7627967Y-14902436D01*
X7627967Y-14902436D02*
X7618443Y-14911960D01*
X7618443Y-14911960D02*
X7599396Y-14921484D01*
X7599396Y-14921484D02*
X7561301Y-14921484D01*
X7561301Y-14921484D02*
X7542253Y-14911960D01*
X7723205Y-14902436D02*
X7732729Y-14911960D01*
X7732729Y-14911960D02*
X7723205Y-14921484D01*
X7723205Y-14921484D02*
X7713682Y-14911960D01*
X7713682Y-14911960D02*
X7723205Y-14902436D01*
X7723205Y-14902436D02*
X7723205Y-14921484D01*
X7723205Y-14797674D02*
X7732729Y-14807198D01*
X7732729Y-14807198D02*
X7723205Y-14816722D01*
X7723205Y-14816722D02*
X7713682Y-14807198D01*
X7713682Y-14807198D02*
X7723205Y-14797674D01*
X7723205Y-14797674D02*
X7723205Y-14816722D01*
X5891000Y-15150000D02*
X6091000Y-15350000D01*
X6091000Y-15150000D02*
X5891000Y-15350000D01*
X6342253Y-15160531D02*
X6351777Y-15151008D01*
X6351777Y-15151008D02*
X6370824Y-15141484D01*
X6370824Y-15141484D02*
X6418443Y-15141484D01*
X6418443Y-15141484D02*
X6437491Y-15151008D01*
X6437491Y-15151008D02*
X6447015Y-15160531D01*
X6447015Y-15160531D02*
X6456539Y-15179579D01*
X6456539Y-15179579D02*
X6456539Y-15198627D01*
X6456539Y-15198627D02*
X6447015Y-15227198D01*
X6447015Y-15227198D02*
X6332729Y-15341484D01*
X6332729Y-15341484D02*
X6456539Y-15341484D01*
X6542253Y-15322436D02*
X6551777Y-15331960D01*
X6551777Y-15331960D02*
X6542253Y-15341484D01*
X6542253Y-15341484D02*
X6532729Y-15331960D01*
X6532729Y-15331960D02*
X6542253Y-15322436D01*
X6542253Y-15322436D02*
X6542253Y-15341484D01*
X6627967Y-15160531D02*
X6637491Y-15151008D01*
X6637491Y-15151008D02*
X6656539Y-15141484D01*
X6656539Y-15141484D02*
X6704158Y-15141484D01*
X6704158Y-15141484D02*
X6723205Y-15151008D01*
X6723205Y-15151008D02*
X6732729Y-15160531D01*
X6732729Y-15160531D02*
X6742253Y-15179579D01*
X6742253Y-15179579D02*
X6742253Y-15198627D01*
X6742253Y-15198627D02*
X6732729Y-15227198D01*
X6732729Y-15227198D02*
X6618443Y-15341484D01*
X6618443Y-15341484D02*
X6742253Y-15341484D01*
X6866062Y-15141484D02*
X6885110Y-15141484D01*
X6885110Y-15141484D02*
X6904158Y-15151008D01*
X6904158Y-15151008D02*
X6913682Y-15160531D01*
X6913682Y-15160531D02*
X6923205Y-15179579D01*
X6923205Y-15179579D02*
X6932729Y-15217674D01*
X6932729Y-15217674D02*
X6932729Y-15265293D01*
X6932729Y-15265293D02*
X6923205Y-15303388D01*
X6923205Y-15303388D02*
X6913682Y-15322436D01*
X6913682Y-15322436D02*
X6904158Y-15331960D01*
X6904158Y-15331960D02*
X6885110Y-15341484D01*
X6885110Y-15341484D02*
X6866062Y-15341484D01*
X6866062Y-15341484D02*
X6847015Y-15331960D01*
X6847015Y-15331960D02*
X6837491Y-15322436D01*
X6837491Y-15322436D02*
X6827967Y-15303388D01*
X6827967Y-15303388D02*
X6818443Y-15265293D01*
X6818443Y-15265293D02*
X6818443Y-15217674D01*
X6818443Y-15217674D02*
X6827967Y-15179579D01*
X6827967Y-15179579D02*
X6837491Y-15160531D01*
X6837491Y-15160531D02*
X6847015Y-15151008D01*
X6847015Y-15151008D02*
X6866062Y-15141484D01*
X7056539Y-15141484D02*
X7075586Y-15141484D01*
X7075586Y-15141484D02*
X7094634Y-15151008D01*
X7094634Y-15151008D02*
X7104158Y-15160531D01*
X7104158Y-15160531D02*
X7113682Y-15179579D01*
X7113682Y-15179579D02*
X7123205Y-15217674D01*
X7123205Y-15217674D02*
X7123205Y-15265293D01*
X7123205Y-15265293D02*
X7113682Y-15303388D01*
X7113682Y-15303388D02*
X7104158Y-15322436D01*
X7104158Y-15322436D02*
X7094634Y-15331960D01*
X7094634Y-15331960D02*
X7075586Y-15341484D01*
X7075586Y-15341484D02*
X7056539Y-15341484D01*
X7056539Y-15341484D02*
X7037491Y-15331960D01*
X7037491Y-15331960D02*
X7027967Y-15322436D01*
X7027967Y-15322436D02*
X7018443Y-15303388D01*
X7018443Y-15303388D02*
X7008920Y-15265293D01*
X7008920Y-15265293D02*
X7008920Y-15217674D01*
X7008920Y-15217674D02*
X7018443Y-15179579D01*
X7018443Y-15179579D02*
X7027967Y-15160531D01*
X7027967Y-15160531D02*
X7037491Y-15151008D01*
X7037491Y-15151008D02*
X7056539Y-15141484D01*
X7208920Y-15341484D02*
X7208920Y-15208150D01*
X7208920Y-15227198D02*
X7218443Y-15217674D01*
X7218443Y-15217674D02*
X7237491Y-15208150D01*
X7237491Y-15208150D02*
X7266063Y-15208150D01*
X7266063Y-15208150D02*
X7285110Y-15217674D01*
X7285110Y-15217674D02*
X7294634Y-15236722D01*
X7294634Y-15236722D02*
X7294634Y-15341484D01*
X7294634Y-15236722D02*
X7304158Y-15217674D01*
X7304158Y-15217674D02*
X7323205Y-15208150D01*
X7323205Y-15208150D02*
X7351777Y-15208150D01*
X7351777Y-15208150D02*
X7370824Y-15217674D01*
X7370824Y-15217674D02*
X7380348Y-15236722D01*
X7380348Y-15236722D02*
X7380348Y-15341484D01*
X7475586Y-15341484D02*
X7475586Y-15208150D01*
X7475586Y-15227198D02*
X7485110Y-15217674D01*
X7485110Y-15217674D02*
X7504158Y-15208150D01*
X7504158Y-15208150D02*
X7532729Y-15208150D01*
X7532729Y-15208150D02*
X7551777Y-15217674D01*
X7551777Y-15217674D02*
X7561301Y-15236722D01*
X7561301Y-15236722D02*
X7561301Y-15341484D01*
X7561301Y-15236722D02*
X7570824Y-15217674D01*
X7570824Y-15217674D02*
X7589872Y-15208150D01*
X7589872Y-15208150D02*
X7618443Y-15208150D01*
X7618443Y-15208150D02*
X7637491Y-15217674D01*
X7637491Y-15217674D02*
X7647015Y-15236722D01*
X7647015Y-15236722D02*
X7647015Y-15341484D01*
X8037491Y-15131960D02*
X7866063Y-15389103D01*
X8294634Y-15141484D02*
X8313682Y-15141484D01*
X8313682Y-15141484D02*
X8332729Y-15151008D01*
X8332729Y-15151008D02*
X8342253Y-15160531D01*
X8342253Y-15160531D02*
X8351777Y-15179579D01*
X8351777Y-15179579D02*
X8361301Y-15217674D01*
X8361301Y-15217674D02*
X8361301Y-15265293D01*
X8361301Y-15265293D02*
X8351777Y-15303388D01*
X8351777Y-15303388D02*
X8342253Y-15322436D01*
X8342253Y-15322436D02*
X8332729Y-15331960D01*
X8332729Y-15331960D02*
X8313682Y-15341484D01*
X8313682Y-15341484D02*
X8294634Y-15341484D01*
X8294634Y-15341484D02*
X8275586Y-15331960D01*
X8275586Y-15331960D02*
X8266063Y-15322436D01*
X8266063Y-15322436D02*
X8256539Y-15303388D01*
X8256539Y-15303388D02*
X8247015Y-15265293D01*
X8247015Y-15265293D02*
X8247015Y-15217674D01*
X8247015Y-15217674D02*
X8256539Y-15179579D01*
X8256539Y-15179579D02*
X8266063Y-15160531D01*
X8266063Y-15160531D02*
X8275586Y-15151008D01*
X8275586Y-15151008D02*
X8294634Y-15141484D01*
X8447015Y-15322436D02*
X8456539Y-15331960D01*
X8456539Y-15331960D02*
X8447015Y-15341484D01*
X8447015Y-15341484D02*
X8437491Y-15331960D01*
X8437491Y-15331960D02*
X8447015Y-15322436D01*
X8447015Y-15322436D02*
X8447015Y-15341484D01*
X8580348Y-15141484D02*
X8599396Y-15141484D01*
X8599396Y-15141484D02*
X8618444Y-15151008D01*
X8618444Y-15151008D02*
X8627968Y-15160531D01*
X8627968Y-15160531D02*
X8637491Y-15179579D01*
X8637491Y-15179579D02*
X8647015Y-15217674D01*
X8647015Y-15217674D02*
X8647015Y-15265293D01*
X8647015Y-15265293D02*
X8637491Y-15303388D01*
X8637491Y-15303388D02*
X8627968Y-15322436D01*
X8627968Y-15322436D02*
X8618444Y-15331960D01*
X8618444Y-15331960D02*
X8599396Y-15341484D01*
X8599396Y-15341484D02*
X8580348Y-15341484D01*
X8580348Y-15341484D02*
X8561301Y-15331960D01*
X8561301Y-15331960D02*
X8551777Y-15322436D01*
X8551777Y-15322436D02*
X8542253Y-15303388D01*
X8542253Y-15303388D02*
X8532729Y-15265293D01*
X8532729Y-15265293D02*
X8532729Y-15217674D01*
X8532729Y-15217674D02*
X8542253Y-15179579D01*
X8542253Y-15179579D02*
X8551777Y-15160531D01*
X8551777Y-15160531D02*
X8561301Y-15151008D01*
X8561301Y-15151008D02*
X8580348Y-15141484D01*
X8761301Y-15227198D02*
X8742253Y-15217674D01*
X8742253Y-15217674D02*
X8732729Y-15208150D01*
X8732729Y-15208150D02*
X8723206Y-15189103D01*
X8723206Y-15189103D02*
X8723206Y-15179579D01*
X8723206Y-15179579D02*
X8732729Y-15160531D01*
X8732729Y-15160531D02*
X8742253Y-15151008D01*
X8742253Y-15151008D02*
X8761301Y-15141484D01*
X8761301Y-15141484D02*
X8799396Y-15141484D01*
X8799396Y-15141484D02*
X8818444Y-15151008D01*
X8818444Y-15151008D02*
X8827968Y-15160531D01*
X8827968Y-15160531D02*
X8837491Y-15179579D01*
X8837491Y-15179579D02*
X8837491Y-15189103D01*
X8837491Y-15189103D02*
X8827968Y-15208150D01*
X8827968Y-15208150D02*
X8818444Y-15217674D01*
X8818444Y-15217674D02*
X8799396Y-15227198D01*
X8799396Y-15227198D02*
X8761301Y-15227198D01*
X8761301Y-15227198D02*
X8742253Y-15236722D01*
X8742253Y-15236722D02*
X8732729Y-15246246D01*
X8732729Y-15246246D02*
X8723206Y-15265293D01*
X8723206Y-15265293D02*
X8723206Y-15303388D01*
X8723206Y-15303388D02*
X8732729Y-15322436D01*
X8732729Y-15322436D02*
X8742253Y-15331960D01*
X8742253Y-15331960D02*
X8761301Y-15341484D01*
X8761301Y-15341484D02*
X8799396Y-15341484D01*
X8799396Y-15341484D02*
X8818444Y-15331960D01*
X8818444Y-15331960D02*
X8827968Y-15322436D01*
X8827968Y-15322436D02*
X8837491Y-15303388D01*
X8837491Y-15303388D02*
X8837491Y-15265293D01*
X8837491Y-15265293D02*
X8827968Y-15246246D01*
X8827968Y-15246246D02*
X8818444Y-15236722D01*
X8818444Y-15236722D02*
X8799396Y-15227198D01*
X9008920Y-15141484D02*
X8970825Y-15141484D01*
X8970825Y-15141484D02*
X8951777Y-15151008D01*
X8951777Y-15151008D02*
X8942253Y-15160531D01*
X8942253Y-15160531D02*
X8923206Y-15189103D01*
X8923206Y-15189103D02*
X8913682Y-15227198D01*
X8913682Y-15227198D02*
X8913682Y-15303388D01*
X8913682Y-15303388D02*
X8923206Y-15322436D01*
X8923206Y-15322436D02*
X8932729Y-15331960D01*
X8932729Y-15331960D02*
X8951777Y-15341484D01*
X8951777Y-15341484D02*
X8989872Y-15341484D01*
X8989872Y-15341484D02*
X9008920Y-15331960D01*
X9008920Y-15331960D02*
X9018444Y-15322436D01*
X9018444Y-15322436D02*
X9027968Y-15303388D01*
X9027968Y-15303388D02*
X9027968Y-15255769D01*
X9027968Y-15255769D02*
X9018444Y-15236722D01*
X9018444Y-15236722D02*
X9008920Y-15227198D01*
X9008920Y-15227198D02*
X8989872Y-15217674D01*
X8989872Y-15217674D02*
X8951777Y-15217674D01*
X8951777Y-15217674D02*
X8932729Y-15227198D01*
X8932729Y-15227198D02*
X8923206Y-15236722D01*
X8923206Y-15236722D02*
X8913682Y-15255769D01*
X9199396Y-15141484D02*
X9161301Y-15141484D01*
X9161301Y-15141484D02*
X9142253Y-15151008D01*
X9142253Y-15151008D02*
X9132729Y-15160531D01*
X9132729Y-15160531D02*
X9113682Y-15189103D01*
X9113682Y-15189103D02*
X9104158Y-15227198D01*
X9104158Y-15227198D02*
X9104158Y-15303388D01*
X9104158Y-15303388D02*
X9113682Y-15322436D01*
X9113682Y-15322436D02*
X9123206Y-15331960D01*
X9123206Y-15331960D02*
X9142253Y-15341484D01*
X9142253Y-15341484D02*
X9180349Y-15341484D01*
X9180349Y-15341484D02*
X9199396Y-15331960D01*
X9199396Y-15331960D02*
X9208920Y-15322436D01*
X9208920Y-15322436D02*
X9218444Y-15303388D01*
X9218444Y-15303388D02*
X9218444Y-15255769D01*
X9218444Y-15255769D02*
X9208920Y-15236722D01*
X9208920Y-15236722D02*
X9199396Y-15227198D01*
X9199396Y-15227198D02*
X9180349Y-15217674D01*
X9180349Y-15217674D02*
X9142253Y-15217674D01*
X9142253Y-15217674D02*
X9123206Y-15227198D01*
X9123206Y-15227198D02*
X9113682Y-15236722D01*
X9113682Y-15236722D02*
X9104158Y-15255769D01*
X9294634Y-15141484D02*
X9294634Y-15179579D01*
X9370825Y-15141484D02*
X9370825Y-15179579D01*
X9666063Y-15417674D02*
X9656539Y-15408150D01*
X9656539Y-15408150D02*
X9637491Y-15379579D01*
X9637491Y-15379579D02*
X9627968Y-15360531D01*
X9627968Y-15360531D02*
X9618444Y-15331960D01*
X9618444Y-15331960D02*
X9608920Y-15284341D01*
X9608920Y-15284341D02*
X9608920Y-15246246D01*
X9608920Y-15246246D02*
X9618444Y-15198627D01*
X9618444Y-15198627D02*
X9627968Y-15170055D01*
X9627968Y-15170055D02*
X9637491Y-15151008D01*
X9637491Y-15151008D02*
X9656539Y-15122436D01*
X9656539Y-15122436D02*
X9666063Y-15112912D01*
X9827968Y-15141484D02*
X9789872Y-15141484D01*
X9789872Y-15141484D02*
X9770825Y-15151008D01*
X9770825Y-15151008D02*
X9761301Y-15160531D01*
X9761301Y-15160531D02*
X9742253Y-15189103D01*
X9742253Y-15189103D02*
X9732730Y-15227198D01*
X9732730Y-15227198D02*
X9732730Y-15303388D01*
X9732730Y-15303388D02*
X9742253Y-15322436D01*
X9742253Y-15322436D02*
X9751777Y-15331960D01*
X9751777Y-15331960D02*
X9770825Y-15341484D01*
X9770825Y-15341484D02*
X9808920Y-15341484D01*
X9808920Y-15341484D02*
X9827968Y-15331960D01*
X9827968Y-15331960D02*
X9837491Y-15322436D01*
X9837491Y-15322436D02*
X9847015Y-15303388D01*
X9847015Y-15303388D02*
X9847015Y-15255769D01*
X9847015Y-15255769D02*
X9837491Y-15236722D01*
X9837491Y-15236722D02*
X9827968Y-15227198D01*
X9827968Y-15227198D02*
X9808920Y-15217674D01*
X9808920Y-15217674D02*
X9770825Y-15217674D01*
X9770825Y-15217674D02*
X9751777Y-15227198D01*
X9751777Y-15227198D02*
X9742253Y-15236722D01*
X9742253Y-15236722D02*
X9732730Y-15255769D01*
X10085111Y-15341484D02*
X10085111Y-15141484D01*
X10170825Y-15341484D02*
X10170825Y-15236722D01*
X10170825Y-15236722D02*
X10161301Y-15217674D01*
X10161301Y-15217674D02*
X10142253Y-15208150D01*
X10142253Y-15208150D02*
X10113682Y-15208150D01*
X10113682Y-15208150D02*
X10094634Y-15217674D01*
X10094634Y-15217674D02*
X10085111Y-15227198D01*
X10294634Y-15341484D02*
X10275587Y-15331960D01*
X10275587Y-15331960D02*
X10266063Y-15322436D01*
X10266063Y-15322436D02*
X10256539Y-15303388D01*
X10256539Y-15303388D02*
X10256539Y-15246246D01*
X10256539Y-15246246D02*
X10266063Y-15227198D01*
X10266063Y-15227198D02*
X10275587Y-15217674D01*
X10275587Y-15217674D02*
X10294634Y-15208150D01*
X10294634Y-15208150D02*
X10323206Y-15208150D01*
X10323206Y-15208150D02*
X10342253Y-15217674D01*
X10342253Y-15217674D02*
X10351777Y-15227198D01*
X10351777Y-15227198D02*
X10361301Y-15246246D01*
X10361301Y-15246246D02*
X10361301Y-15303388D01*
X10361301Y-15303388D02*
X10351777Y-15322436D01*
X10351777Y-15322436D02*
X10342253Y-15331960D01*
X10342253Y-15331960D02*
X10323206Y-15341484D01*
X10323206Y-15341484D02*
X10294634Y-15341484D01*
X10475587Y-15341484D02*
X10456539Y-15331960D01*
X10456539Y-15331960D02*
X10447015Y-15312912D01*
X10447015Y-15312912D02*
X10447015Y-15141484D01*
X10627968Y-15331960D02*
X10608920Y-15341484D01*
X10608920Y-15341484D02*
X10570825Y-15341484D01*
X10570825Y-15341484D02*
X10551777Y-15331960D01*
X10551777Y-15331960D02*
X10542253Y-15312912D01*
X10542253Y-15312912D02*
X10542253Y-15236722D01*
X10542253Y-15236722D02*
X10551777Y-15217674D01*
X10551777Y-15217674D02*
X10570825Y-15208150D01*
X10570825Y-15208150D02*
X10608920Y-15208150D01*
X10608920Y-15208150D02*
X10627968Y-15217674D01*
X10627968Y-15217674D02*
X10637492Y-15236722D01*
X10637492Y-15236722D02*
X10637492Y-15255769D01*
X10637492Y-15255769D02*
X10542253Y-15274817D01*
X10713682Y-15331960D02*
X10732730Y-15341484D01*
X10732730Y-15341484D02*
X10770825Y-15341484D01*
X10770825Y-15341484D02*
X10789873Y-15331960D01*
X10789873Y-15331960D02*
X10799396Y-15312912D01*
X10799396Y-15312912D02*
X10799396Y-15303388D01*
X10799396Y-15303388D02*
X10789873Y-15284341D01*
X10789873Y-15284341D02*
X10770825Y-15274817D01*
X10770825Y-15274817D02*
X10742253Y-15274817D01*
X10742253Y-15274817D02*
X10723206Y-15265293D01*
X10723206Y-15265293D02*
X10713682Y-15246246D01*
X10713682Y-15246246D02*
X10713682Y-15236722D01*
X10713682Y-15236722D02*
X10723206Y-15217674D01*
X10723206Y-15217674D02*
X10742253Y-15208150D01*
X10742253Y-15208150D02*
X10770825Y-15208150D01*
X10770825Y-15208150D02*
X10789873Y-15217674D01*
X10866063Y-15417674D02*
X10875587Y-15408150D01*
X10875587Y-15408150D02*
X10894634Y-15379579D01*
X10894634Y-15379579D02*
X10904158Y-15360531D01*
X10904158Y-15360531D02*
X10913682Y-15331960D01*
X10913682Y-15331960D02*
X10923206Y-15284341D01*
X10923206Y-15284341D02*
X10923206Y-15246246D01*
X10923206Y-15246246D02*
X10913682Y-15198627D01*
X10913682Y-15198627D02*
X10904158Y-15170055D01*
X10904158Y-15170055D02*
X10894634Y-15151008D01*
X10894634Y-15151008D02*
X10875587Y-15122436D01*
X10875587Y-15122436D02*
X10866063Y-15112912D01*
X11227968Y-15417674D02*
X11218444Y-15408150D01*
X11218444Y-15408150D02*
X11199396Y-15379579D01*
X11199396Y-15379579D02*
X11189872Y-15360531D01*
X11189872Y-15360531D02*
X11180349Y-15331960D01*
X11180349Y-15331960D02*
X11170825Y-15284341D01*
X11170825Y-15284341D02*
X11170825Y-15246246D01*
X11170825Y-15246246D02*
X11180349Y-15198627D01*
X11180349Y-15198627D02*
X11189872Y-15170055D01*
X11189872Y-15170055D02*
X11199396Y-15151008D01*
X11199396Y-15151008D02*
X11218444Y-15122436D01*
X11218444Y-15122436D02*
X11227968Y-15112912D01*
X11304158Y-15208150D02*
X11304158Y-15341484D01*
X11304158Y-15227198D02*
X11313682Y-15217674D01*
X11313682Y-15217674D02*
X11332730Y-15208150D01*
X11332730Y-15208150D02*
X11361301Y-15208150D01*
X11361301Y-15208150D02*
X11380349Y-15217674D01*
X11380349Y-15217674D02*
X11389872Y-15236722D01*
X11389872Y-15236722D02*
X11389872Y-15341484D01*
X11513682Y-15341484D02*
X11494634Y-15331960D01*
X11494634Y-15331960D02*
X11485111Y-15322436D01*
X11485111Y-15322436D02*
X11475587Y-15303388D01*
X11475587Y-15303388D02*
X11475587Y-15246246D01*
X11475587Y-15246246D02*
X11485111Y-15227198D01*
X11485111Y-15227198D02*
X11494634Y-15217674D01*
X11494634Y-15217674D02*
X11513682Y-15208150D01*
X11513682Y-15208150D02*
X11542253Y-15208150D01*
X11542253Y-15208150D02*
X11561301Y-15217674D01*
X11561301Y-15217674D02*
X11570825Y-15227198D01*
X11570825Y-15227198D02*
X11580349Y-15246246D01*
X11580349Y-15246246D02*
X11580349Y-15303388D01*
X11580349Y-15303388D02*
X11570825Y-15322436D01*
X11570825Y-15322436D02*
X11561301Y-15331960D01*
X11561301Y-15331960D02*
X11542253Y-15341484D01*
X11542253Y-15341484D02*
X11513682Y-15341484D01*
X11637492Y-15208150D02*
X11713682Y-15208150D01*
X11666063Y-15141484D02*
X11666063Y-15312912D01*
X11666063Y-15312912D02*
X11675587Y-15331960D01*
X11675587Y-15331960D02*
X11694634Y-15341484D01*
X11694634Y-15341484D02*
X11713682Y-15341484D01*
X11932730Y-15208150D02*
X11932730Y-15408150D01*
X11932730Y-15217674D02*
X11951777Y-15208150D01*
X11951777Y-15208150D02*
X11989873Y-15208150D01*
X11989873Y-15208150D02*
X12008920Y-15217674D01*
X12008920Y-15217674D02*
X12018444Y-15227198D01*
X12018444Y-15227198D02*
X12027968Y-15246246D01*
X12027968Y-15246246D02*
X12027968Y-15303388D01*
X12027968Y-15303388D02*
X12018444Y-15322436D01*
X12018444Y-15322436D02*
X12008920Y-15331960D01*
X12008920Y-15331960D02*
X11989873Y-15341484D01*
X11989873Y-15341484D02*
X11951777Y-15341484D01*
X11951777Y-15341484D02*
X11932730Y-15331960D01*
X12142253Y-15341484D02*
X12123206Y-15331960D01*
X12123206Y-15331960D02*
X12113682Y-15312912D01*
X12113682Y-15312912D02*
X12113682Y-15141484D01*
X12304158Y-15341484D02*
X12304158Y-15236722D01*
X12304158Y-15236722D02*
X12294634Y-15217674D01*
X12294634Y-15217674D02*
X12275587Y-15208150D01*
X12275587Y-15208150D02*
X12237492Y-15208150D01*
X12237492Y-15208150D02*
X12218444Y-15217674D01*
X12304158Y-15331960D02*
X12285111Y-15341484D01*
X12285111Y-15341484D02*
X12237492Y-15341484D01*
X12237492Y-15341484D02*
X12218444Y-15331960D01*
X12218444Y-15331960D02*
X12208920Y-15312912D01*
X12208920Y-15312912D02*
X12208920Y-15293865D01*
X12208920Y-15293865D02*
X12218444Y-15274817D01*
X12218444Y-15274817D02*
X12237492Y-15265293D01*
X12237492Y-15265293D02*
X12285111Y-15265293D01*
X12285111Y-15265293D02*
X12304158Y-15255769D01*
X12370825Y-15208150D02*
X12447015Y-15208150D01*
X12399396Y-15141484D02*
X12399396Y-15312912D01*
X12399396Y-15312912D02*
X12408920Y-15331960D01*
X12408920Y-15331960D02*
X12427968Y-15341484D01*
X12427968Y-15341484D02*
X12447015Y-15341484D01*
X12589873Y-15331960D02*
X12570825Y-15341484D01*
X12570825Y-15341484D02*
X12532730Y-15341484D01*
X12532730Y-15341484D02*
X12513682Y-15331960D01*
X12513682Y-15331960D02*
X12504158Y-15312912D01*
X12504158Y-15312912D02*
X12504158Y-15236722D01*
X12504158Y-15236722D02*
X12513682Y-15217674D01*
X12513682Y-15217674D02*
X12532730Y-15208150D01*
X12532730Y-15208150D02*
X12570825Y-15208150D01*
X12570825Y-15208150D02*
X12589873Y-15217674D01*
X12589873Y-15217674D02*
X12599396Y-15236722D01*
X12599396Y-15236722D02*
X12599396Y-15255769D01*
X12599396Y-15255769D02*
X12504158Y-15274817D01*
X12770825Y-15341484D02*
X12770825Y-15141484D01*
X12770825Y-15331960D02*
X12751777Y-15341484D01*
X12751777Y-15341484D02*
X12713682Y-15341484D01*
X12713682Y-15341484D02*
X12694634Y-15331960D01*
X12694634Y-15331960D02*
X12685111Y-15322436D01*
X12685111Y-15322436D02*
X12675587Y-15303388D01*
X12675587Y-15303388D02*
X12675587Y-15246246D01*
X12675587Y-15246246D02*
X12685111Y-15227198D01*
X12685111Y-15227198D02*
X12694634Y-15217674D01*
X12694634Y-15217674D02*
X12713682Y-15208150D01*
X12713682Y-15208150D02*
X12751777Y-15208150D01*
X12751777Y-15208150D02*
X12770825Y-15217674D01*
X12847015Y-15417674D02*
X12856539Y-15408150D01*
X12856539Y-15408150D02*
X12875587Y-15379579D01*
X12875587Y-15379579D02*
X12885111Y-15360531D01*
X12885111Y-15360531D02*
X12894634Y-15331960D01*
X12894634Y-15331960D02*
X12904158Y-15284341D01*
X12904158Y-15284341D02*
X12904158Y-15246246D01*
X12904158Y-15246246D02*
X12894634Y-15198627D01*
X12894634Y-15198627D02*
X12885111Y-15170055D01*
X12885111Y-15170055D02*
X12875587Y-15151008D01*
X12875587Y-15151008D02*
X12856539Y-15122436D01*
X12856539Y-15122436D02*
X12847015Y-15112912D01*
M02*
