G04 #@! TF.GenerationSoftware,KiCad,Pcbnew,9.0.2-9.0.2-0~ubuntu24.04.1*
G04 #@! TF.CreationDate,2025-08-24T21:10:56+02:00*
G04 #@! TF.ProjectId,unister,756e6973-7465-4722-9e6b-696361645f70,rev?*
G04 #@! TF.SameCoordinates,Original*
G04 #@! TF.FileFunction,Legend,Top*
G04 #@! TF.FilePolarity,Positive*
%FSLAX46Y46*%
G04 Gerber Fmt 4.6, Leading zero omitted, Abs format (unit mm)*
G04 Created by KiCad (PCBNEW 9.0.2-9.0.2-0~ubuntu24.04.1) date 2025-08-24 21:10:56*
%MOMM*%
%LPD*%
G01*
G04 APERTURE LIST*
G04 Aperture macros list*
%AMRoundRect*
0 Rectangle with rounded corners*
0 $1 Rounding radius*
0 $2 $3 $4 $5 $6 $7 $8 $9 X,Y pos of 4 corners*
0 Add a 4 corners polygon primitive as box body*
4,1,4,$2,$3,$4,$5,$6,$7,$8,$9,$2,$3,0*
0 Add four circle primitives for the rounded corners*
1,1,$1+$1,$2,$3*
1,1,$1+$1,$4,$5*
1,1,$1+$1,$6,$7*
1,1,$1+$1,$8,$9*
0 Add four rect primitives between the rounded corners*
20,1,$1+$1,$2,$3,$4,$5,0*
20,1,$1+$1,$4,$5,$6,$7,0*
20,1,$1+$1,$6,$7,$8,$9,0*
20,1,$1+$1,$8,$9,$2,$3,0*%
G04 Aperture macros list end*
%ADD10C,0.150000*%
%ADD11C,0.120000*%
%ADD12C,1.600000*%
%ADD13O,1.600000X1.600000*%
%ADD14C,1.524000*%
%ADD15R,2.200000X2.200000*%
%ADD16O,2.200000X2.200000*%
%ADD17C,1.270000*%
%ADD18C,1.400000*%
%ADD19RoundRect,0.250000X1.550000X-0.650000X1.550000X0.650000X-1.550000X0.650000X-1.550000X-0.650000X0*%
%ADD20O,3.600000X1.800000*%
%ADD21RoundRect,0.250000X-0.650000X-1.550000X0.650000X-1.550000X0.650000X1.550000X-0.650000X1.550000X0*%
%ADD22O,1.800000X3.600000*%
%ADD23R,1.500000X1.500000*%
%ADD24C,1.500000*%
%ADD25R,2.500000X2.500000*%
%ADD26O,2.500000X2.500000*%
%ADD27RoundRect,0.500000X0.900000X-0.500000X0.900000X0.500000X-0.900000X0.500000X-0.900000X-0.500000X0*%
%ADD28O,2.800000X2.000000*%
%ADD29C,2.200000*%
%ADD30R,2.400000X2.400000*%
%ADD31O,2.400000X2.400000*%
%ADD32R,1.800000X1.800000*%
%ADD33C,1.800000*%
%ADD34RoundRect,0.650000X-0.650000X0.650000X-0.650000X-0.650000X0.650000X-0.650000X0.650000X0.650000X0*%
%ADD35C,2.600000*%
%ADD36R,2.000000X2.000000*%
%ADD37C,2.000000*%
%ADD38R,1.600000X1.600000*%
G04 APERTURE END LIST*
D10*
X154217731Y-93247438D02*
X153551064Y-92295057D01*
X153074874Y-93247438D02*
X153074874Y-91247438D01*
X153074874Y-91247438D02*
X153836779Y-91247438D01*
X153836779Y-91247438D02*
X154027255Y-91342676D01*
X154027255Y-91342676D02*
X154122493Y-91437914D01*
X154122493Y-91437914D02*
X154217731Y-91628390D01*
X154217731Y-91628390D02*
X154217731Y-91914104D01*
X154217731Y-91914104D02*
X154122493Y-92104580D01*
X154122493Y-92104580D02*
X154027255Y-92199819D01*
X154027255Y-92199819D02*
X153836779Y-92295057D01*
X153836779Y-92295057D02*
X153074874Y-92295057D01*
X155836779Y-93152200D02*
X155646303Y-93247438D01*
X155646303Y-93247438D02*
X155265350Y-93247438D01*
X155265350Y-93247438D02*
X155074874Y-93152200D01*
X155074874Y-93152200D02*
X154979636Y-92961723D01*
X154979636Y-92961723D02*
X154979636Y-92199819D01*
X154979636Y-92199819D02*
X155074874Y-92009342D01*
X155074874Y-92009342D02*
X155265350Y-91914104D01*
X155265350Y-91914104D02*
X155646303Y-91914104D01*
X155646303Y-91914104D02*
X155836779Y-92009342D01*
X155836779Y-92009342D02*
X155932017Y-92199819D01*
X155932017Y-92199819D02*
X155932017Y-92390295D01*
X155932017Y-92390295D02*
X154979636Y-92580771D01*
X156598684Y-91914104D02*
X157074874Y-93247438D01*
X157074874Y-93247438D02*
X157551065Y-91914104D01*
X158312970Y-93056961D02*
X158408208Y-93152200D01*
X158408208Y-93152200D02*
X158312970Y-93247438D01*
X158312970Y-93247438D02*
X158217732Y-93152200D01*
X158217732Y-93152200D02*
X158312970Y-93056961D01*
X158312970Y-93056961D02*
X158312970Y-93247438D01*
X160693923Y-91437914D02*
X160789161Y-91342676D01*
X160789161Y-91342676D02*
X160979637Y-91247438D01*
X160979637Y-91247438D02*
X161455828Y-91247438D01*
X161455828Y-91247438D02*
X161646304Y-91342676D01*
X161646304Y-91342676D02*
X161741542Y-91437914D01*
X161741542Y-91437914D02*
X161836780Y-91628390D01*
X161836780Y-91628390D02*
X161836780Y-91818866D01*
X161836780Y-91818866D02*
X161741542Y-92104580D01*
X161741542Y-92104580D02*
X160598685Y-93247438D01*
X160598685Y-93247438D02*
X161836780Y-93247438D01*
X206208333Y-108859819D02*
X205875000Y-108383628D01*
X205636905Y-108859819D02*
X205636905Y-107859819D01*
X205636905Y-107859819D02*
X206017857Y-107859819D01*
X206017857Y-107859819D02*
X206113095Y-107907438D01*
X206113095Y-107907438D02*
X206160714Y-107955057D01*
X206160714Y-107955057D02*
X206208333Y-108050295D01*
X206208333Y-108050295D02*
X206208333Y-108193152D01*
X206208333Y-108193152D02*
X206160714Y-108288390D01*
X206160714Y-108288390D02*
X206113095Y-108336009D01*
X206113095Y-108336009D02*
X206017857Y-108383628D01*
X206017857Y-108383628D02*
X205636905Y-108383628D01*
X206541667Y-107859819D02*
X207160714Y-107859819D01*
X207160714Y-107859819D02*
X206827381Y-108240771D01*
X206827381Y-108240771D02*
X206970238Y-108240771D01*
X206970238Y-108240771D02*
X207065476Y-108288390D01*
X207065476Y-108288390D02*
X207113095Y-108336009D01*
X207113095Y-108336009D02*
X207160714Y-108431247D01*
X207160714Y-108431247D02*
X207160714Y-108669342D01*
X207160714Y-108669342D02*
X207113095Y-108764580D01*
X207113095Y-108764580D02*
X207065476Y-108812200D01*
X207065476Y-108812200D02*
X206970238Y-108859819D01*
X206970238Y-108859819D02*
X206684524Y-108859819D01*
X206684524Y-108859819D02*
X206589286Y-108812200D01*
X206589286Y-108812200D02*
X206541667Y-108764580D01*
X201679819Y-123293094D02*
X200679819Y-123293094D01*
X200679819Y-123293094D02*
X200679819Y-123054999D01*
X200679819Y-123054999D02*
X200727438Y-122912142D01*
X200727438Y-122912142D02*
X200822676Y-122816904D01*
X200822676Y-122816904D02*
X200917914Y-122769285D01*
X200917914Y-122769285D02*
X201108390Y-122721666D01*
X201108390Y-122721666D02*
X201251247Y-122721666D01*
X201251247Y-122721666D02*
X201441723Y-122769285D01*
X201441723Y-122769285D02*
X201536961Y-122816904D01*
X201536961Y-122816904D02*
X201632200Y-122912142D01*
X201632200Y-122912142D02*
X201679819Y-123054999D01*
X201679819Y-123054999D02*
X201679819Y-123293094D01*
X200679819Y-121864523D02*
X200679819Y-122054999D01*
X200679819Y-122054999D02*
X200727438Y-122150237D01*
X200727438Y-122150237D02*
X200775057Y-122197856D01*
X200775057Y-122197856D02*
X200917914Y-122293094D01*
X200917914Y-122293094D02*
X201108390Y-122340713D01*
X201108390Y-122340713D02*
X201489342Y-122340713D01*
X201489342Y-122340713D02*
X201584580Y-122293094D01*
X201584580Y-122293094D02*
X201632200Y-122245475D01*
X201632200Y-122245475D02*
X201679819Y-122150237D01*
X201679819Y-122150237D02*
X201679819Y-121959761D01*
X201679819Y-121959761D02*
X201632200Y-121864523D01*
X201632200Y-121864523D02*
X201584580Y-121816904D01*
X201584580Y-121816904D02*
X201489342Y-121769285D01*
X201489342Y-121769285D02*
X201251247Y-121769285D01*
X201251247Y-121769285D02*
X201156009Y-121816904D01*
X201156009Y-121816904D02*
X201108390Y-121864523D01*
X201108390Y-121864523D02*
X201060771Y-121959761D01*
X201060771Y-121959761D02*
X201060771Y-122150237D01*
X201060771Y-122150237D02*
X201108390Y-122245475D01*
X201108390Y-122245475D02*
X201156009Y-122293094D01*
X201156009Y-122293094D02*
X201251247Y-122340713D01*
X201309819Y-117736904D02*
X200309819Y-117736904D01*
X201309819Y-117165476D02*
X200738390Y-117594047D01*
X200309819Y-117165476D02*
X200881247Y-117736904D01*
X75461905Y-92529819D02*
X75461905Y-91529819D01*
X75461905Y-91529819D02*
X75700000Y-91529819D01*
X75700000Y-91529819D02*
X75842857Y-91577438D01*
X75842857Y-91577438D02*
X75938095Y-91672676D01*
X75938095Y-91672676D02*
X75985714Y-91767914D01*
X75985714Y-91767914D02*
X76033333Y-91958390D01*
X76033333Y-91958390D02*
X76033333Y-92101247D01*
X76033333Y-92101247D02*
X75985714Y-92291723D01*
X75985714Y-92291723D02*
X75938095Y-92386961D01*
X75938095Y-92386961D02*
X75842857Y-92482200D01*
X75842857Y-92482200D02*
X75700000Y-92529819D01*
X75700000Y-92529819D02*
X75461905Y-92529819D01*
X76985714Y-92529819D02*
X76414286Y-92529819D01*
X76700000Y-92529819D02*
X76700000Y-91529819D01*
X76700000Y-91529819D02*
X76604762Y-91672676D01*
X76604762Y-91672676D02*
X76509524Y-91767914D01*
X76509524Y-91767914D02*
X76414286Y-91815533D01*
X81035595Y-97169819D02*
X81035595Y-96169819D01*
X81607023Y-97169819D02*
X81178452Y-96598390D01*
X81607023Y-96169819D02*
X81035595Y-96741247D01*
X180724819Y-123293094D02*
X179724819Y-123293094D01*
X179724819Y-123293094D02*
X179724819Y-123054999D01*
X179724819Y-123054999D02*
X179772438Y-122912142D01*
X179772438Y-122912142D02*
X179867676Y-122816904D01*
X179867676Y-122816904D02*
X179962914Y-122769285D01*
X179962914Y-122769285D02*
X180153390Y-122721666D01*
X180153390Y-122721666D02*
X180296247Y-122721666D01*
X180296247Y-122721666D02*
X180486723Y-122769285D01*
X180486723Y-122769285D02*
X180581961Y-122816904D01*
X180581961Y-122816904D02*
X180677200Y-122912142D01*
X180677200Y-122912142D02*
X180724819Y-123054999D01*
X180724819Y-123054999D02*
X180724819Y-123293094D01*
X180153390Y-122150237D02*
X180105771Y-122245475D01*
X180105771Y-122245475D02*
X180058152Y-122293094D01*
X180058152Y-122293094D02*
X179962914Y-122340713D01*
X179962914Y-122340713D02*
X179915295Y-122340713D01*
X179915295Y-122340713D02*
X179820057Y-122293094D01*
X179820057Y-122293094D02*
X179772438Y-122245475D01*
X179772438Y-122245475D02*
X179724819Y-122150237D01*
X179724819Y-122150237D02*
X179724819Y-121959761D01*
X179724819Y-121959761D02*
X179772438Y-121864523D01*
X179772438Y-121864523D02*
X179820057Y-121816904D01*
X179820057Y-121816904D02*
X179915295Y-121769285D01*
X179915295Y-121769285D02*
X179962914Y-121769285D01*
X179962914Y-121769285D02*
X180058152Y-121816904D01*
X180058152Y-121816904D02*
X180105771Y-121864523D01*
X180105771Y-121864523D02*
X180153390Y-121959761D01*
X180153390Y-121959761D02*
X180153390Y-122150237D01*
X180153390Y-122150237D02*
X180201009Y-122245475D01*
X180201009Y-122245475D02*
X180248628Y-122293094D01*
X180248628Y-122293094D02*
X180343866Y-122340713D01*
X180343866Y-122340713D02*
X180534342Y-122340713D01*
X180534342Y-122340713D02*
X180629580Y-122293094D01*
X180629580Y-122293094D02*
X180677200Y-122245475D01*
X180677200Y-122245475D02*
X180724819Y-122150237D01*
X180724819Y-122150237D02*
X180724819Y-121959761D01*
X180724819Y-121959761D02*
X180677200Y-121864523D01*
X180677200Y-121864523D02*
X180629580Y-121816904D01*
X180629580Y-121816904D02*
X180534342Y-121769285D01*
X180534342Y-121769285D02*
X180343866Y-121769285D01*
X180343866Y-121769285D02*
X180248628Y-121816904D01*
X180248628Y-121816904D02*
X180201009Y-121864523D01*
X180201009Y-121864523D02*
X180153390Y-121959761D01*
X180354819Y-117736904D02*
X179354819Y-117736904D01*
X180354819Y-117165476D02*
X179783390Y-117594047D01*
X179354819Y-117165476D02*
X179926247Y-117736904D01*
X207264819Y-78438333D02*
X207979104Y-78438333D01*
X207979104Y-78438333D02*
X208121961Y-78485952D01*
X208121961Y-78485952D02*
X208217200Y-78581190D01*
X208217200Y-78581190D02*
X208264819Y-78724047D01*
X208264819Y-78724047D02*
X208264819Y-78819285D01*
X208264819Y-77914523D02*
X208264819Y-77724047D01*
X208264819Y-77724047D02*
X208217200Y-77628809D01*
X208217200Y-77628809D02*
X208169580Y-77581190D01*
X208169580Y-77581190D02*
X208026723Y-77485952D01*
X208026723Y-77485952D02*
X207836247Y-77438333D01*
X207836247Y-77438333D02*
X207455295Y-77438333D01*
X207455295Y-77438333D02*
X207360057Y-77485952D01*
X207360057Y-77485952D02*
X207312438Y-77533571D01*
X207312438Y-77533571D02*
X207264819Y-77628809D01*
X207264819Y-77628809D02*
X207264819Y-77819285D01*
X207264819Y-77819285D02*
X207312438Y-77914523D01*
X207312438Y-77914523D02*
X207360057Y-77962142D01*
X207360057Y-77962142D02*
X207455295Y-78009761D01*
X207455295Y-78009761D02*
X207693390Y-78009761D01*
X207693390Y-78009761D02*
X207788628Y-77962142D01*
X207788628Y-77962142D02*
X207836247Y-77914523D01*
X207836247Y-77914523D02*
X207883866Y-77819285D01*
X207883866Y-77819285D02*
X207883866Y-77628809D01*
X207883866Y-77628809D02*
X207836247Y-77533571D01*
X207836247Y-77533571D02*
X207788628Y-77485952D01*
X207788628Y-77485952D02*
X207693390Y-77438333D01*
X166036666Y-134709819D02*
X166036666Y-135424104D01*
X166036666Y-135424104D02*
X165989047Y-135566961D01*
X165989047Y-135566961D02*
X165893809Y-135662200D01*
X165893809Y-135662200D02*
X165750952Y-135709819D01*
X165750952Y-135709819D02*
X165655714Y-135709819D01*
X166703333Y-134709819D02*
X166798571Y-134709819D01*
X166798571Y-134709819D02*
X166893809Y-134757438D01*
X166893809Y-134757438D02*
X166941428Y-134805057D01*
X166941428Y-134805057D02*
X166989047Y-134900295D01*
X166989047Y-134900295D02*
X167036666Y-135090771D01*
X167036666Y-135090771D02*
X167036666Y-135328866D01*
X167036666Y-135328866D02*
X166989047Y-135519342D01*
X166989047Y-135519342D02*
X166941428Y-135614580D01*
X166941428Y-135614580D02*
X166893809Y-135662200D01*
X166893809Y-135662200D02*
X166798571Y-135709819D01*
X166798571Y-135709819D02*
X166703333Y-135709819D01*
X166703333Y-135709819D02*
X166608095Y-135662200D01*
X166608095Y-135662200D02*
X166560476Y-135614580D01*
X166560476Y-135614580D02*
X166512857Y-135519342D01*
X166512857Y-135519342D02*
X166465238Y-135328866D01*
X166465238Y-135328866D02*
X166465238Y-135090771D01*
X166465238Y-135090771D02*
X166512857Y-134900295D01*
X166512857Y-134900295D02*
X166560476Y-134805057D01*
X166560476Y-134805057D02*
X166608095Y-134757438D01*
X166608095Y-134757438D02*
X166703333Y-134709819D01*
X185253333Y-116564580D02*
X185205714Y-116612200D01*
X185205714Y-116612200D02*
X185062857Y-116659819D01*
X185062857Y-116659819D02*
X184967619Y-116659819D01*
X184967619Y-116659819D02*
X184824762Y-116612200D01*
X184824762Y-116612200D02*
X184729524Y-116516961D01*
X184729524Y-116516961D02*
X184681905Y-116421723D01*
X184681905Y-116421723D02*
X184634286Y-116231247D01*
X184634286Y-116231247D02*
X184634286Y-116088390D01*
X184634286Y-116088390D02*
X184681905Y-115897914D01*
X184681905Y-115897914D02*
X184729524Y-115802676D01*
X184729524Y-115802676D02*
X184824762Y-115707438D01*
X184824762Y-115707438D02*
X184967619Y-115659819D01*
X184967619Y-115659819D02*
X185062857Y-115659819D01*
X185062857Y-115659819D02*
X185205714Y-115707438D01*
X185205714Y-115707438D02*
X185253333Y-115755057D01*
X186110476Y-115659819D02*
X185920000Y-115659819D01*
X185920000Y-115659819D02*
X185824762Y-115707438D01*
X185824762Y-115707438D02*
X185777143Y-115755057D01*
X185777143Y-115755057D02*
X185681905Y-115897914D01*
X185681905Y-115897914D02*
X185634286Y-116088390D01*
X185634286Y-116088390D02*
X185634286Y-116469342D01*
X185634286Y-116469342D02*
X185681905Y-116564580D01*
X185681905Y-116564580D02*
X185729524Y-116612200D01*
X185729524Y-116612200D02*
X185824762Y-116659819D01*
X185824762Y-116659819D02*
X186015238Y-116659819D01*
X186015238Y-116659819D02*
X186110476Y-116612200D01*
X186110476Y-116612200D02*
X186158095Y-116564580D01*
X186158095Y-116564580D02*
X186205714Y-116469342D01*
X186205714Y-116469342D02*
X186205714Y-116231247D01*
X186205714Y-116231247D02*
X186158095Y-116136009D01*
X186158095Y-116136009D02*
X186110476Y-116088390D01*
X186110476Y-116088390D02*
X186015238Y-116040771D01*
X186015238Y-116040771D02*
X185824762Y-116040771D01*
X185824762Y-116040771D02*
X185729524Y-116088390D01*
X185729524Y-116088390D02*
X185681905Y-116136009D01*
X185681905Y-116136009D02*
X185634286Y-116231247D01*
X206208333Y-116564580D02*
X206160714Y-116612200D01*
X206160714Y-116612200D02*
X206017857Y-116659819D01*
X206017857Y-116659819D02*
X205922619Y-116659819D01*
X205922619Y-116659819D02*
X205779762Y-116612200D01*
X205779762Y-116612200D02*
X205684524Y-116516961D01*
X205684524Y-116516961D02*
X205636905Y-116421723D01*
X205636905Y-116421723D02*
X205589286Y-116231247D01*
X205589286Y-116231247D02*
X205589286Y-116088390D01*
X205589286Y-116088390D02*
X205636905Y-115897914D01*
X205636905Y-115897914D02*
X205684524Y-115802676D01*
X205684524Y-115802676D02*
X205779762Y-115707438D01*
X205779762Y-115707438D02*
X205922619Y-115659819D01*
X205922619Y-115659819D02*
X206017857Y-115659819D01*
X206017857Y-115659819D02*
X206160714Y-115707438D01*
X206160714Y-115707438D02*
X206208333Y-115755057D01*
X207113095Y-115659819D02*
X206636905Y-115659819D01*
X206636905Y-115659819D02*
X206589286Y-116136009D01*
X206589286Y-116136009D02*
X206636905Y-116088390D01*
X206636905Y-116088390D02*
X206732143Y-116040771D01*
X206732143Y-116040771D02*
X206970238Y-116040771D01*
X206970238Y-116040771D02*
X207065476Y-116088390D01*
X207065476Y-116088390D02*
X207113095Y-116136009D01*
X207113095Y-116136009D02*
X207160714Y-116231247D01*
X207160714Y-116231247D02*
X207160714Y-116469342D01*
X207160714Y-116469342D02*
X207113095Y-116564580D01*
X207113095Y-116564580D02*
X207065476Y-116612200D01*
X207065476Y-116612200D02*
X206970238Y-116659819D01*
X206970238Y-116659819D02*
X206732143Y-116659819D01*
X206732143Y-116659819D02*
X206636905Y-116612200D01*
X206636905Y-116612200D02*
X206589286Y-116564580D01*
X95799405Y-97619819D02*
X95799405Y-96619819D01*
X96370833Y-97619819D02*
X95942262Y-97048390D01*
X96370833Y-96619819D02*
X95799405Y-97191247D01*
X96751786Y-96715057D02*
X96799405Y-96667438D01*
X96799405Y-96667438D02*
X96894643Y-96619819D01*
X96894643Y-96619819D02*
X97132738Y-96619819D01*
X97132738Y-96619819D02*
X97227976Y-96667438D01*
X97227976Y-96667438D02*
X97275595Y-96715057D01*
X97275595Y-96715057D02*
X97323214Y-96810295D01*
X97323214Y-96810295D02*
X97323214Y-96905533D01*
X97323214Y-96905533D02*
X97275595Y-97048390D01*
X97275595Y-97048390D02*
X96704167Y-97619819D01*
X96704167Y-97619819D02*
X97323214Y-97619819D01*
X172016009Y-120348333D02*
X172016009Y-120681666D01*
X172539819Y-120681666D02*
X171539819Y-120681666D01*
X171539819Y-120681666D02*
X171539819Y-120205476D01*
X171539819Y-119919761D02*
X171539819Y-119300714D01*
X171539819Y-119300714D02*
X171920771Y-119634047D01*
X171920771Y-119634047D02*
X171920771Y-119491190D01*
X171920771Y-119491190D02*
X171968390Y-119395952D01*
X171968390Y-119395952D02*
X172016009Y-119348333D01*
X172016009Y-119348333D02*
X172111247Y-119300714D01*
X172111247Y-119300714D02*
X172349342Y-119300714D01*
X172349342Y-119300714D02*
X172444580Y-119348333D01*
X172444580Y-119348333D02*
X172492200Y-119395952D01*
X172492200Y-119395952D02*
X172539819Y-119491190D01*
X172539819Y-119491190D02*
X172539819Y-119776904D01*
X172539819Y-119776904D02*
X172492200Y-119872142D01*
X172492200Y-119872142D02*
X172444580Y-119919761D01*
X145716666Y-125819819D02*
X145716666Y-126534104D01*
X145716666Y-126534104D02*
X145669047Y-126676961D01*
X145669047Y-126676961D02*
X145573809Y-126772200D01*
X145573809Y-126772200D02*
X145430952Y-126819819D01*
X145430952Y-126819819D02*
X145335714Y-126819819D01*
X146097619Y-125819819D02*
X146764285Y-125819819D01*
X146764285Y-125819819D02*
X146335714Y-126819819D01*
X145716666Y-134709819D02*
X145716666Y-135424104D01*
X145716666Y-135424104D02*
X145669047Y-135566961D01*
X145669047Y-135566961D02*
X145573809Y-135662200D01*
X145573809Y-135662200D02*
X145430952Y-135709819D01*
X145430952Y-135709819D02*
X145335714Y-135709819D01*
X146335714Y-135138390D02*
X146240476Y-135090771D01*
X146240476Y-135090771D02*
X146192857Y-135043152D01*
X146192857Y-135043152D02*
X146145238Y-134947914D01*
X146145238Y-134947914D02*
X146145238Y-134900295D01*
X146145238Y-134900295D02*
X146192857Y-134805057D01*
X146192857Y-134805057D02*
X146240476Y-134757438D01*
X146240476Y-134757438D02*
X146335714Y-134709819D01*
X146335714Y-134709819D02*
X146526190Y-134709819D01*
X146526190Y-134709819D02*
X146621428Y-134757438D01*
X146621428Y-134757438D02*
X146669047Y-134805057D01*
X146669047Y-134805057D02*
X146716666Y-134900295D01*
X146716666Y-134900295D02*
X146716666Y-134947914D01*
X146716666Y-134947914D02*
X146669047Y-135043152D01*
X146669047Y-135043152D02*
X146621428Y-135090771D01*
X146621428Y-135090771D02*
X146526190Y-135138390D01*
X146526190Y-135138390D02*
X146335714Y-135138390D01*
X146335714Y-135138390D02*
X146240476Y-135186009D01*
X146240476Y-135186009D02*
X146192857Y-135233628D01*
X146192857Y-135233628D02*
X146145238Y-135328866D01*
X146145238Y-135328866D02*
X146145238Y-135519342D01*
X146145238Y-135519342D02*
X146192857Y-135614580D01*
X146192857Y-135614580D02*
X146240476Y-135662200D01*
X146240476Y-135662200D02*
X146335714Y-135709819D01*
X146335714Y-135709819D02*
X146526190Y-135709819D01*
X146526190Y-135709819D02*
X146621428Y-135662200D01*
X146621428Y-135662200D02*
X146669047Y-135614580D01*
X146669047Y-135614580D02*
X146716666Y-135519342D01*
X146716666Y-135519342D02*
X146716666Y-135328866D01*
X146716666Y-135328866D02*
X146669047Y-135233628D01*
X146669047Y-135233628D02*
X146621428Y-135186009D01*
X146621428Y-135186009D02*
X146526190Y-135138390D01*
X203668333Y-55604580D02*
X203620714Y-55652200D01*
X203620714Y-55652200D02*
X203477857Y-55699819D01*
X203477857Y-55699819D02*
X203382619Y-55699819D01*
X203382619Y-55699819D02*
X203239762Y-55652200D01*
X203239762Y-55652200D02*
X203144524Y-55556961D01*
X203144524Y-55556961D02*
X203096905Y-55461723D01*
X203096905Y-55461723D02*
X203049286Y-55271247D01*
X203049286Y-55271247D02*
X203049286Y-55128390D01*
X203049286Y-55128390D02*
X203096905Y-54937914D01*
X203096905Y-54937914D02*
X203144524Y-54842676D01*
X203144524Y-54842676D02*
X203239762Y-54747438D01*
X203239762Y-54747438D02*
X203382619Y-54699819D01*
X203382619Y-54699819D02*
X203477857Y-54699819D01*
X203477857Y-54699819D02*
X203620714Y-54747438D01*
X203620714Y-54747438D02*
X203668333Y-54795057D01*
X204620714Y-55699819D02*
X204049286Y-55699819D01*
X204335000Y-55699819D02*
X204335000Y-54699819D01*
X204335000Y-54699819D02*
X204239762Y-54842676D01*
X204239762Y-54842676D02*
X204144524Y-54937914D01*
X204144524Y-54937914D02*
X204049286Y-54985533D01*
X116101905Y-92529819D02*
X116101905Y-91529819D01*
X116101905Y-91529819D02*
X116340000Y-91529819D01*
X116340000Y-91529819D02*
X116482857Y-91577438D01*
X116482857Y-91577438D02*
X116578095Y-91672676D01*
X116578095Y-91672676D02*
X116625714Y-91767914D01*
X116625714Y-91767914D02*
X116673333Y-91958390D01*
X116673333Y-91958390D02*
X116673333Y-92101247D01*
X116673333Y-92101247D02*
X116625714Y-92291723D01*
X116625714Y-92291723D02*
X116578095Y-92386961D01*
X116578095Y-92386961D02*
X116482857Y-92482200D01*
X116482857Y-92482200D02*
X116340000Y-92529819D01*
X116340000Y-92529819D02*
X116101905Y-92529819D01*
X117006667Y-91529819D02*
X117625714Y-91529819D01*
X117625714Y-91529819D02*
X117292381Y-91910771D01*
X117292381Y-91910771D02*
X117435238Y-91910771D01*
X117435238Y-91910771D02*
X117530476Y-91958390D01*
X117530476Y-91958390D02*
X117578095Y-92006009D01*
X117578095Y-92006009D02*
X117625714Y-92101247D01*
X117625714Y-92101247D02*
X117625714Y-92339342D01*
X117625714Y-92339342D02*
X117578095Y-92434580D01*
X117578095Y-92434580D02*
X117530476Y-92482200D01*
X117530476Y-92482200D02*
X117435238Y-92529819D01*
X117435238Y-92529819D02*
X117149524Y-92529819D01*
X117149524Y-92529819D02*
X117054286Y-92482200D01*
X117054286Y-92482200D02*
X117006667Y-92434580D01*
X121693095Y-97169819D02*
X121693095Y-96169819D01*
X122264523Y-97169819D02*
X121835952Y-96598390D01*
X122264523Y-96169819D02*
X121693095Y-96741247D01*
X196414819Y-124863094D02*
X195414819Y-124863094D01*
X195414819Y-124863094D02*
X195414819Y-124624999D01*
X195414819Y-124624999D02*
X195462438Y-124482142D01*
X195462438Y-124482142D02*
X195557676Y-124386904D01*
X195557676Y-124386904D02*
X195652914Y-124339285D01*
X195652914Y-124339285D02*
X195843390Y-124291666D01*
X195843390Y-124291666D02*
X195986247Y-124291666D01*
X195986247Y-124291666D02*
X196176723Y-124339285D01*
X196176723Y-124339285D02*
X196271961Y-124386904D01*
X196271961Y-124386904D02*
X196367200Y-124482142D01*
X196367200Y-124482142D02*
X196414819Y-124624999D01*
X196414819Y-124624999D02*
X196414819Y-124863094D01*
X196414819Y-123815475D02*
X196414819Y-123624999D01*
X196414819Y-123624999D02*
X196367200Y-123529761D01*
X196367200Y-123529761D02*
X196319580Y-123482142D01*
X196319580Y-123482142D02*
X196176723Y-123386904D01*
X196176723Y-123386904D02*
X195986247Y-123339285D01*
X195986247Y-123339285D02*
X195605295Y-123339285D01*
X195605295Y-123339285D02*
X195510057Y-123386904D01*
X195510057Y-123386904D02*
X195462438Y-123434523D01*
X195462438Y-123434523D02*
X195414819Y-123529761D01*
X195414819Y-123529761D02*
X195414819Y-123720237D01*
X195414819Y-123720237D02*
X195462438Y-123815475D01*
X195462438Y-123815475D02*
X195510057Y-123863094D01*
X195510057Y-123863094D02*
X195605295Y-123910713D01*
X195605295Y-123910713D02*
X195843390Y-123910713D01*
X195843390Y-123910713D02*
X195938628Y-123863094D01*
X195938628Y-123863094D02*
X195986247Y-123815475D01*
X195986247Y-123815475D02*
X196033866Y-123720237D01*
X196033866Y-123720237D02*
X196033866Y-123529761D01*
X196033866Y-123529761D02*
X195986247Y-123434523D01*
X195986247Y-123434523D02*
X195938628Y-123386904D01*
X195938628Y-123386904D02*
X195843390Y-123339285D01*
X192009104Y-125003094D02*
X192009104Y-124526904D01*
X192294819Y-125098332D02*
X191294819Y-124764999D01*
X191294819Y-124764999D02*
X192294819Y-124431666D01*
X116136905Y-97619819D02*
X116136905Y-96619819D01*
X116708333Y-97619819D02*
X116279762Y-97048390D01*
X116708333Y-96619819D02*
X116136905Y-97191247D01*
X117041667Y-96619819D02*
X117660714Y-96619819D01*
X117660714Y-96619819D02*
X117327381Y-97000771D01*
X117327381Y-97000771D02*
X117470238Y-97000771D01*
X117470238Y-97000771D02*
X117565476Y-97048390D01*
X117565476Y-97048390D02*
X117613095Y-97096009D01*
X117613095Y-97096009D02*
X117660714Y-97191247D01*
X117660714Y-97191247D02*
X117660714Y-97429342D01*
X117660714Y-97429342D02*
X117613095Y-97524580D01*
X117613095Y-97524580D02*
X117565476Y-97572200D01*
X117565476Y-97572200D02*
X117470238Y-97619819D01*
X117470238Y-97619819D02*
X117184524Y-97619819D01*
X117184524Y-97619819D02*
X117089286Y-97572200D01*
X117089286Y-97572200D02*
X117041667Y-97524580D01*
X75461905Y-97619819D02*
X75461905Y-96619819D01*
X76033333Y-97619819D02*
X75604762Y-97048390D01*
X76033333Y-96619819D02*
X75461905Y-97191247D01*
X76985714Y-97619819D02*
X76414286Y-97619819D01*
X76700000Y-97619819D02*
X76700000Y-96619819D01*
X76700000Y-96619819D02*
X76604762Y-96762676D01*
X76604762Y-96762676D02*
X76509524Y-96857914D01*
X76509524Y-96857914D02*
X76414286Y-96905533D01*
X136421905Y-97609819D02*
X136421905Y-96609819D01*
X136993333Y-97609819D02*
X136564762Y-97038390D01*
X136993333Y-96609819D02*
X136421905Y-97181247D01*
X137850476Y-96943152D02*
X137850476Y-97609819D01*
X137612381Y-96562200D02*
X137374286Y-97276485D01*
X137374286Y-97276485D02*
X137993333Y-97276485D01*
X152331009Y-120348333D02*
X152331009Y-120681666D01*
X152854819Y-120681666D02*
X151854819Y-120681666D01*
X151854819Y-120681666D02*
X151854819Y-120205476D01*
X151950057Y-119872142D02*
X151902438Y-119824523D01*
X151902438Y-119824523D02*
X151854819Y-119729285D01*
X151854819Y-119729285D02*
X151854819Y-119491190D01*
X151854819Y-119491190D02*
X151902438Y-119395952D01*
X151902438Y-119395952D02*
X151950057Y-119348333D01*
X151950057Y-119348333D02*
X152045295Y-119300714D01*
X152045295Y-119300714D02*
X152140533Y-119300714D01*
X152140533Y-119300714D02*
X152283390Y-119348333D01*
X152283390Y-119348333D02*
X152854819Y-119919761D01*
X152854819Y-119919761D02*
X152854819Y-119300714D01*
X179601905Y-60139819D02*
X179601905Y-59139819D01*
X179601905Y-59139819D02*
X179840000Y-59139819D01*
X179840000Y-59139819D02*
X179982857Y-59187438D01*
X179982857Y-59187438D02*
X180078095Y-59282676D01*
X180078095Y-59282676D02*
X180125714Y-59377914D01*
X180125714Y-59377914D02*
X180173333Y-59568390D01*
X180173333Y-59568390D02*
X180173333Y-59711247D01*
X180173333Y-59711247D02*
X180125714Y-59901723D01*
X180125714Y-59901723D02*
X180078095Y-59996961D01*
X180078095Y-59996961D02*
X179982857Y-60092200D01*
X179982857Y-60092200D02*
X179840000Y-60139819D01*
X179840000Y-60139819D02*
X179601905Y-60139819D01*
X181078095Y-59139819D02*
X180601905Y-59139819D01*
X180601905Y-59139819D02*
X180554286Y-59616009D01*
X180554286Y-59616009D02*
X180601905Y-59568390D01*
X180601905Y-59568390D02*
X180697143Y-59520771D01*
X180697143Y-59520771D02*
X180935238Y-59520771D01*
X180935238Y-59520771D02*
X181030476Y-59568390D01*
X181030476Y-59568390D02*
X181078095Y-59616009D01*
X181078095Y-59616009D02*
X181125714Y-59711247D01*
X181125714Y-59711247D02*
X181125714Y-59949342D01*
X181125714Y-59949342D02*
X181078095Y-60044580D01*
X181078095Y-60044580D02*
X181030476Y-60092200D01*
X181030476Y-60092200D02*
X180935238Y-60139819D01*
X180935238Y-60139819D02*
X180697143Y-60139819D01*
X180697143Y-60139819D02*
X180601905Y-60092200D01*
X180601905Y-60092200D02*
X180554286Y-60044580D01*
X105076666Y-125819819D02*
X105076666Y-126534104D01*
X105076666Y-126534104D02*
X105029047Y-126676961D01*
X105029047Y-126676961D02*
X104933809Y-126772200D01*
X104933809Y-126772200D02*
X104790952Y-126819819D01*
X104790952Y-126819819D02*
X104695714Y-126819819D01*
X105457619Y-125819819D02*
X106076666Y-125819819D01*
X106076666Y-125819819D02*
X105743333Y-126200771D01*
X105743333Y-126200771D02*
X105886190Y-126200771D01*
X105886190Y-126200771D02*
X105981428Y-126248390D01*
X105981428Y-126248390D02*
X106029047Y-126296009D01*
X106029047Y-126296009D02*
X106076666Y-126391247D01*
X106076666Y-126391247D02*
X106076666Y-126629342D01*
X106076666Y-126629342D02*
X106029047Y-126724580D01*
X106029047Y-126724580D02*
X105981428Y-126772200D01*
X105981428Y-126772200D02*
X105886190Y-126819819D01*
X105886190Y-126819819D02*
X105600476Y-126819819D01*
X105600476Y-126819819D02*
X105505238Y-126772200D01*
X105505238Y-126772200D02*
X105457619Y-126724580D01*
X126454819Y-106878333D02*
X127169104Y-106878333D01*
X127169104Y-106878333D02*
X127311961Y-106925952D01*
X127311961Y-106925952D02*
X127407200Y-107021190D01*
X127407200Y-107021190D02*
X127454819Y-107164047D01*
X127454819Y-107164047D02*
X127454819Y-107259285D01*
X127454819Y-106402142D02*
X126454819Y-106402142D01*
X126454819Y-106402142D02*
X126454819Y-106021190D01*
X126454819Y-106021190D02*
X126502438Y-105925952D01*
X126502438Y-105925952D02*
X126550057Y-105878333D01*
X126550057Y-105878333D02*
X126645295Y-105830714D01*
X126645295Y-105830714D02*
X126788152Y-105830714D01*
X126788152Y-105830714D02*
X126883390Y-105878333D01*
X126883390Y-105878333D02*
X126931009Y-105925952D01*
X126931009Y-105925952D02*
X126978628Y-106021190D01*
X126978628Y-106021190D02*
X126978628Y-106402142D01*
X126788152Y-104973571D02*
X127454819Y-104973571D01*
X126407200Y-105211666D02*
X127121485Y-105449761D01*
X127121485Y-105449761D02*
X127121485Y-104830714D01*
X125396666Y-125819819D02*
X125396666Y-126534104D01*
X125396666Y-126534104D02*
X125349047Y-126676961D01*
X125349047Y-126676961D02*
X125253809Y-126772200D01*
X125253809Y-126772200D02*
X125110952Y-126819819D01*
X125110952Y-126819819D02*
X125015714Y-126819819D01*
X126349047Y-125819819D02*
X125872857Y-125819819D01*
X125872857Y-125819819D02*
X125825238Y-126296009D01*
X125825238Y-126296009D02*
X125872857Y-126248390D01*
X125872857Y-126248390D02*
X125968095Y-126200771D01*
X125968095Y-126200771D02*
X126206190Y-126200771D01*
X126206190Y-126200771D02*
X126301428Y-126248390D01*
X126301428Y-126248390D02*
X126349047Y-126296009D01*
X126349047Y-126296009D02*
X126396666Y-126391247D01*
X126396666Y-126391247D02*
X126396666Y-126629342D01*
X126396666Y-126629342D02*
X126349047Y-126724580D01*
X126349047Y-126724580D02*
X126301428Y-126772200D01*
X126301428Y-126772200D02*
X126206190Y-126819819D01*
X126206190Y-126819819D02*
X125968095Y-126819819D01*
X125968095Y-126819819D02*
X125872857Y-126772200D01*
X125872857Y-126772200D02*
X125825238Y-126724580D01*
X200485476Y-129159819D02*
X200485476Y-129874104D01*
X200485476Y-129874104D02*
X200437857Y-130016961D01*
X200437857Y-130016961D02*
X200342619Y-130112200D01*
X200342619Y-130112200D02*
X200199762Y-130159819D01*
X200199762Y-130159819D02*
X200104524Y-130159819D01*
X201485476Y-130159819D02*
X200914048Y-130159819D01*
X201199762Y-130159819D02*
X201199762Y-129159819D01*
X201199762Y-129159819D02*
X201104524Y-129302676D01*
X201104524Y-129302676D02*
X201009286Y-129397914D01*
X201009286Y-129397914D02*
X200914048Y-129445533D01*
X202104524Y-129159819D02*
X202199762Y-129159819D01*
X202199762Y-129159819D02*
X202295000Y-129207438D01*
X202295000Y-129207438D02*
X202342619Y-129255057D01*
X202342619Y-129255057D02*
X202390238Y-129350295D01*
X202390238Y-129350295D02*
X202437857Y-129540771D01*
X202437857Y-129540771D02*
X202437857Y-129778866D01*
X202437857Y-129778866D02*
X202390238Y-129969342D01*
X202390238Y-129969342D02*
X202342619Y-130064580D01*
X202342619Y-130064580D02*
X202295000Y-130112200D01*
X202295000Y-130112200D02*
X202199762Y-130159819D01*
X202199762Y-130159819D02*
X202104524Y-130159819D01*
X202104524Y-130159819D02*
X202009286Y-130112200D01*
X202009286Y-130112200D02*
X201961667Y-130064580D01*
X201961667Y-130064580D02*
X201914048Y-129969342D01*
X201914048Y-129969342D02*
X201866429Y-129778866D01*
X201866429Y-129778866D02*
X201866429Y-129540771D01*
X201866429Y-129540771D02*
X201914048Y-129350295D01*
X201914048Y-129350295D02*
X201961667Y-129255057D01*
X201961667Y-129255057D02*
X202009286Y-129207438D01*
X202009286Y-129207438D02*
X202104524Y-129159819D01*
X192238333Y-55604580D02*
X192190714Y-55652200D01*
X192190714Y-55652200D02*
X192047857Y-55699819D01*
X192047857Y-55699819D02*
X191952619Y-55699819D01*
X191952619Y-55699819D02*
X191809762Y-55652200D01*
X191809762Y-55652200D02*
X191714524Y-55556961D01*
X191714524Y-55556961D02*
X191666905Y-55461723D01*
X191666905Y-55461723D02*
X191619286Y-55271247D01*
X191619286Y-55271247D02*
X191619286Y-55128390D01*
X191619286Y-55128390D02*
X191666905Y-54937914D01*
X191666905Y-54937914D02*
X191714524Y-54842676D01*
X191714524Y-54842676D02*
X191809762Y-54747438D01*
X191809762Y-54747438D02*
X191952619Y-54699819D01*
X191952619Y-54699819D02*
X192047857Y-54699819D01*
X192047857Y-54699819D02*
X192190714Y-54747438D01*
X192190714Y-54747438D02*
X192238333Y-54795057D01*
X192571667Y-54699819D02*
X193190714Y-54699819D01*
X193190714Y-54699819D02*
X192857381Y-55080771D01*
X192857381Y-55080771D02*
X193000238Y-55080771D01*
X193000238Y-55080771D02*
X193095476Y-55128390D01*
X193095476Y-55128390D02*
X193143095Y-55176009D01*
X193143095Y-55176009D02*
X193190714Y-55271247D01*
X193190714Y-55271247D02*
X193190714Y-55509342D01*
X193190714Y-55509342D02*
X193143095Y-55604580D01*
X193143095Y-55604580D02*
X193095476Y-55652200D01*
X193095476Y-55652200D02*
X193000238Y-55699819D01*
X193000238Y-55699819D02*
X192714524Y-55699819D01*
X192714524Y-55699819D02*
X192619286Y-55652200D01*
X192619286Y-55652200D02*
X192571667Y-55604580D01*
X170539580Y-63666666D02*
X170587200Y-63714285D01*
X170587200Y-63714285D02*
X170634819Y-63857142D01*
X170634819Y-63857142D02*
X170634819Y-63952380D01*
X170634819Y-63952380D02*
X170587200Y-64095237D01*
X170587200Y-64095237D02*
X170491961Y-64190475D01*
X170491961Y-64190475D02*
X170396723Y-64238094D01*
X170396723Y-64238094D02*
X170206247Y-64285713D01*
X170206247Y-64285713D02*
X170063390Y-64285713D01*
X170063390Y-64285713D02*
X169872914Y-64238094D01*
X169872914Y-64238094D02*
X169777676Y-64190475D01*
X169777676Y-64190475D02*
X169682438Y-64095237D01*
X169682438Y-64095237D02*
X169634819Y-63952380D01*
X169634819Y-63952380D02*
X169634819Y-63857142D01*
X169634819Y-63857142D02*
X169682438Y-63714285D01*
X169682438Y-63714285D02*
X169730057Y-63666666D01*
X169730057Y-63285713D02*
X169682438Y-63238094D01*
X169682438Y-63238094D02*
X169634819Y-63142856D01*
X169634819Y-63142856D02*
X169634819Y-62904761D01*
X169634819Y-62904761D02*
X169682438Y-62809523D01*
X169682438Y-62809523D02*
X169730057Y-62761904D01*
X169730057Y-62761904D02*
X169825295Y-62714285D01*
X169825295Y-62714285D02*
X169920533Y-62714285D01*
X169920533Y-62714285D02*
X170063390Y-62761904D01*
X170063390Y-62761904D02*
X170634819Y-63333332D01*
X170634819Y-63333332D02*
X170634819Y-62714285D01*
X136430655Y-92529819D02*
X136430655Y-91529819D01*
X136430655Y-91529819D02*
X136668750Y-91529819D01*
X136668750Y-91529819D02*
X136811607Y-91577438D01*
X136811607Y-91577438D02*
X136906845Y-91672676D01*
X136906845Y-91672676D02*
X136954464Y-91767914D01*
X136954464Y-91767914D02*
X137002083Y-91958390D01*
X137002083Y-91958390D02*
X137002083Y-92101247D01*
X137002083Y-92101247D02*
X136954464Y-92291723D01*
X136954464Y-92291723D02*
X136906845Y-92386961D01*
X136906845Y-92386961D02*
X136811607Y-92482200D01*
X136811607Y-92482200D02*
X136668750Y-92529819D01*
X136668750Y-92529819D02*
X136430655Y-92529819D01*
X137859226Y-91863152D02*
X137859226Y-92529819D01*
X137621131Y-91482200D02*
X137383036Y-92196485D01*
X137383036Y-92196485D02*
X138002083Y-92196485D01*
X141986845Y-97169819D02*
X141986845Y-96169819D01*
X142558273Y-97169819D02*
X142129702Y-96598390D01*
X142558273Y-96169819D02*
X141986845Y-96741247D01*
X178254819Y-79954285D02*
X177254819Y-79954285D01*
X177254819Y-79954285D02*
X177254819Y-79573333D01*
X177254819Y-79573333D02*
X177302438Y-79478095D01*
X177302438Y-79478095D02*
X177350057Y-79430476D01*
X177350057Y-79430476D02*
X177445295Y-79382857D01*
X177445295Y-79382857D02*
X177588152Y-79382857D01*
X177588152Y-79382857D02*
X177683390Y-79430476D01*
X177683390Y-79430476D02*
X177731009Y-79478095D01*
X177731009Y-79478095D02*
X177778628Y-79573333D01*
X177778628Y-79573333D02*
X177778628Y-79954285D01*
X178207200Y-79001904D02*
X178254819Y-78859047D01*
X178254819Y-78859047D02*
X178254819Y-78620952D01*
X178254819Y-78620952D02*
X178207200Y-78525714D01*
X178207200Y-78525714D02*
X178159580Y-78478095D01*
X178159580Y-78478095D02*
X178064342Y-78430476D01*
X178064342Y-78430476D02*
X177969104Y-78430476D01*
X177969104Y-78430476D02*
X177873866Y-78478095D01*
X177873866Y-78478095D02*
X177826247Y-78525714D01*
X177826247Y-78525714D02*
X177778628Y-78620952D01*
X177778628Y-78620952D02*
X177731009Y-78811428D01*
X177731009Y-78811428D02*
X177683390Y-78906666D01*
X177683390Y-78906666D02*
X177635771Y-78954285D01*
X177635771Y-78954285D02*
X177540533Y-79001904D01*
X177540533Y-79001904D02*
X177445295Y-79001904D01*
X177445295Y-79001904D02*
X177350057Y-78954285D01*
X177350057Y-78954285D02*
X177302438Y-78906666D01*
X177302438Y-78906666D02*
X177254819Y-78811428D01*
X177254819Y-78811428D02*
X177254819Y-78573333D01*
X177254819Y-78573333D02*
X177302438Y-78430476D01*
X178254819Y-77478095D02*
X178254819Y-78049523D01*
X178254819Y-77763809D02*
X177254819Y-77763809D01*
X177254819Y-77763809D02*
X177397676Y-77859047D01*
X177397676Y-77859047D02*
X177492914Y-77954285D01*
X177492914Y-77954285D02*
X177540533Y-78049523D01*
X85814819Y-106878333D02*
X86529104Y-106878333D01*
X86529104Y-106878333D02*
X86671961Y-106925952D01*
X86671961Y-106925952D02*
X86767200Y-107021190D01*
X86767200Y-107021190D02*
X86814819Y-107164047D01*
X86814819Y-107164047D02*
X86814819Y-107259285D01*
X86814819Y-106402142D02*
X85814819Y-106402142D01*
X85814819Y-106402142D02*
X85814819Y-106021190D01*
X85814819Y-106021190D02*
X85862438Y-105925952D01*
X85862438Y-105925952D02*
X85910057Y-105878333D01*
X85910057Y-105878333D02*
X86005295Y-105830714D01*
X86005295Y-105830714D02*
X86148152Y-105830714D01*
X86148152Y-105830714D02*
X86243390Y-105878333D01*
X86243390Y-105878333D02*
X86291009Y-105925952D01*
X86291009Y-105925952D02*
X86338628Y-106021190D01*
X86338628Y-106021190D02*
X86338628Y-106402142D01*
X85910057Y-105449761D02*
X85862438Y-105402142D01*
X85862438Y-105402142D02*
X85814819Y-105306904D01*
X85814819Y-105306904D02*
X85814819Y-105068809D01*
X85814819Y-105068809D02*
X85862438Y-104973571D01*
X85862438Y-104973571D02*
X85910057Y-104925952D01*
X85910057Y-104925952D02*
X86005295Y-104878333D01*
X86005295Y-104878333D02*
X86100533Y-104878333D01*
X86100533Y-104878333D02*
X86243390Y-104925952D01*
X86243390Y-104925952D02*
X86814819Y-105497380D01*
X86814819Y-105497380D02*
X86814819Y-104878333D01*
X205613095Y-100629819D02*
X205613095Y-101439342D01*
X205613095Y-101439342D02*
X205660714Y-101534580D01*
X205660714Y-101534580D02*
X205708333Y-101582200D01*
X205708333Y-101582200D02*
X205803571Y-101629819D01*
X205803571Y-101629819D02*
X205994047Y-101629819D01*
X205994047Y-101629819D02*
X206089285Y-101582200D01*
X206089285Y-101582200D02*
X206136904Y-101534580D01*
X206136904Y-101534580D02*
X206184523Y-101439342D01*
X206184523Y-101439342D02*
X206184523Y-100629819D01*
X206613095Y-100725057D02*
X206660714Y-100677438D01*
X206660714Y-100677438D02*
X206755952Y-100629819D01*
X206755952Y-100629819D02*
X206994047Y-100629819D01*
X206994047Y-100629819D02*
X207089285Y-100677438D01*
X207089285Y-100677438D02*
X207136904Y-100725057D01*
X207136904Y-100725057D02*
X207184523Y-100820295D01*
X207184523Y-100820295D02*
X207184523Y-100915533D01*
X207184523Y-100915533D02*
X207136904Y-101058390D01*
X207136904Y-101058390D02*
X206565476Y-101629819D01*
X206565476Y-101629819D02*
X207184523Y-101629819D01*
X105076666Y-134709819D02*
X105076666Y-135424104D01*
X105076666Y-135424104D02*
X105029047Y-135566961D01*
X105029047Y-135566961D02*
X104933809Y-135662200D01*
X104933809Y-135662200D02*
X104790952Y-135709819D01*
X104790952Y-135709819D02*
X104695714Y-135709819D01*
X105981428Y-135043152D02*
X105981428Y-135709819D01*
X105743333Y-134662200D02*
X105505238Y-135376485D01*
X105505238Y-135376485D02*
X106124285Y-135376485D01*
X84756666Y-125819819D02*
X84756666Y-126534104D01*
X84756666Y-126534104D02*
X84709047Y-126676961D01*
X84709047Y-126676961D02*
X84613809Y-126772200D01*
X84613809Y-126772200D02*
X84470952Y-126819819D01*
X84470952Y-126819819D02*
X84375714Y-126819819D01*
X85756666Y-126819819D02*
X85185238Y-126819819D01*
X85470952Y-126819819D02*
X85470952Y-125819819D01*
X85470952Y-125819819D02*
X85375714Y-125962676D01*
X85375714Y-125962676D02*
X85280476Y-126057914D01*
X85280476Y-126057914D02*
X85185238Y-126105533D01*
X211756666Y-53906009D02*
X211423333Y-53906009D01*
X211423333Y-54429819D02*
X211423333Y-53429819D01*
X211423333Y-53429819D02*
X211899523Y-53429819D01*
X212709047Y-53763152D02*
X212709047Y-54429819D01*
X212470952Y-53382200D02*
X212232857Y-54096485D01*
X212232857Y-54096485D02*
X212851904Y-54096485D01*
X179530476Y-129159819D02*
X179530476Y-129874104D01*
X179530476Y-129874104D02*
X179482857Y-130016961D01*
X179482857Y-130016961D02*
X179387619Y-130112200D01*
X179387619Y-130112200D02*
X179244762Y-130159819D01*
X179244762Y-130159819D02*
X179149524Y-130159819D01*
X180530476Y-130159819D02*
X179959048Y-130159819D01*
X180244762Y-130159819D02*
X180244762Y-129159819D01*
X180244762Y-129159819D02*
X180149524Y-129302676D01*
X180149524Y-129302676D02*
X180054286Y-129397914D01*
X180054286Y-129397914D02*
X179959048Y-129445533D01*
X181482857Y-130159819D02*
X180911429Y-130159819D01*
X181197143Y-130159819D02*
X181197143Y-129159819D01*
X181197143Y-129159819D02*
X181101905Y-129302676D01*
X181101905Y-129302676D02*
X181006667Y-129397914D01*
X181006667Y-129397914D02*
X180911429Y-129445533D01*
X84756666Y-134709819D02*
X84756666Y-135424104D01*
X84756666Y-135424104D02*
X84709047Y-135566961D01*
X84709047Y-135566961D02*
X84613809Y-135662200D01*
X84613809Y-135662200D02*
X84470952Y-135709819D01*
X84470952Y-135709819D02*
X84375714Y-135709819D01*
X85185238Y-134805057D02*
X85232857Y-134757438D01*
X85232857Y-134757438D02*
X85328095Y-134709819D01*
X85328095Y-134709819D02*
X85566190Y-134709819D01*
X85566190Y-134709819D02*
X85661428Y-134757438D01*
X85661428Y-134757438D02*
X85709047Y-134805057D01*
X85709047Y-134805057D02*
X85756666Y-134900295D01*
X85756666Y-134900295D02*
X85756666Y-134995533D01*
X85756666Y-134995533D02*
X85709047Y-135138390D01*
X85709047Y-135138390D02*
X85137619Y-135709819D01*
X85137619Y-135709819D02*
X85756666Y-135709819D01*
X106134819Y-106878333D02*
X106849104Y-106878333D01*
X106849104Y-106878333D02*
X106991961Y-106925952D01*
X106991961Y-106925952D02*
X107087200Y-107021190D01*
X107087200Y-107021190D02*
X107134819Y-107164047D01*
X107134819Y-107164047D02*
X107134819Y-107259285D01*
X107134819Y-106402142D02*
X106134819Y-106402142D01*
X106134819Y-106402142D02*
X106134819Y-106021190D01*
X106134819Y-106021190D02*
X106182438Y-105925952D01*
X106182438Y-105925952D02*
X106230057Y-105878333D01*
X106230057Y-105878333D02*
X106325295Y-105830714D01*
X106325295Y-105830714D02*
X106468152Y-105830714D01*
X106468152Y-105830714D02*
X106563390Y-105878333D01*
X106563390Y-105878333D02*
X106611009Y-105925952D01*
X106611009Y-105925952D02*
X106658628Y-106021190D01*
X106658628Y-106021190D02*
X106658628Y-106402142D01*
X106134819Y-105497380D02*
X106134819Y-104878333D01*
X106134819Y-104878333D02*
X106515771Y-105211666D01*
X106515771Y-105211666D02*
X106515771Y-105068809D01*
X106515771Y-105068809D02*
X106563390Y-104973571D01*
X106563390Y-104973571D02*
X106611009Y-104925952D01*
X106611009Y-104925952D02*
X106706247Y-104878333D01*
X106706247Y-104878333D02*
X106944342Y-104878333D01*
X106944342Y-104878333D02*
X107039580Y-104925952D01*
X107039580Y-104925952D02*
X107087200Y-104973571D01*
X107087200Y-104973571D02*
X107134819Y-105068809D01*
X107134819Y-105068809D02*
X107134819Y-105354523D01*
X107134819Y-105354523D02*
X107087200Y-105449761D01*
X107087200Y-105449761D02*
X107039580Y-105497380D01*
X184668095Y-100624819D02*
X184668095Y-101434342D01*
X184668095Y-101434342D02*
X184715714Y-101529580D01*
X184715714Y-101529580D02*
X184763333Y-101577200D01*
X184763333Y-101577200D02*
X184858571Y-101624819D01*
X184858571Y-101624819D02*
X185049047Y-101624819D01*
X185049047Y-101624819D02*
X185144285Y-101577200D01*
X185144285Y-101577200D02*
X185191904Y-101529580D01*
X185191904Y-101529580D02*
X185239523Y-101434342D01*
X185239523Y-101434342D02*
X185239523Y-100624819D01*
X185620476Y-100624819D02*
X186239523Y-100624819D01*
X186239523Y-100624819D02*
X185906190Y-101005771D01*
X185906190Y-101005771D02*
X186049047Y-101005771D01*
X186049047Y-101005771D02*
X186144285Y-101053390D01*
X186144285Y-101053390D02*
X186191904Y-101101009D01*
X186191904Y-101101009D02*
X186239523Y-101196247D01*
X186239523Y-101196247D02*
X186239523Y-101434342D01*
X186239523Y-101434342D02*
X186191904Y-101529580D01*
X186191904Y-101529580D02*
X186144285Y-101577200D01*
X186144285Y-101577200D02*
X186049047Y-101624819D01*
X186049047Y-101624819D02*
X185763333Y-101624819D01*
X185763333Y-101624819D02*
X185668095Y-101577200D01*
X185668095Y-101577200D02*
X185620476Y-101529580D01*
X175619580Y-63666666D02*
X175667200Y-63714285D01*
X175667200Y-63714285D02*
X175714819Y-63857142D01*
X175714819Y-63857142D02*
X175714819Y-63952380D01*
X175714819Y-63952380D02*
X175667200Y-64095237D01*
X175667200Y-64095237D02*
X175571961Y-64190475D01*
X175571961Y-64190475D02*
X175476723Y-64238094D01*
X175476723Y-64238094D02*
X175286247Y-64285713D01*
X175286247Y-64285713D02*
X175143390Y-64285713D01*
X175143390Y-64285713D02*
X174952914Y-64238094D01*
X174952914Y-64238094D02*
X174857676Y-64190475D01*
X174857676Y-64190475D02*
X174762438Y-64095237D01*
X174762438Y-64095237D02*
X174714819Y-63952380D01*
X174714819Y-63952380D02*
X174714819Y-63857142D01*
X174714819Y-63857142D02*
X174762438Y-63714285D01*
X174762438Y-63714285D02*
X174810057Y-63666666D01*
X175048152Y-62809523D02*
X175714819Y-62809523D01*
X174667200Y-63047618D02*
X175381485Y-63285713D01*
X175381485Y-63285713D02*
X175381485Y-62666666D01*
X125396666Y-134709819D02*
X125396666Y-135424104D01*
X125396666Y-135424104D02*
X125349047Y-135566961D01*
X125349047Y-135566961D02*
X125253809Y-135662200D01*
X125253809Y-135662200D02*
X125110952Y-135709819D01*
X125110952Y-135709819D02*
X125015714Y-135709819D01*
X126301428Y-134709819D02*
X126110952Y-134709819D01*
X126110952Y-134709819D02*
X126015714Y-134757438D01*
X126015714Y-134757438D02*
X125968095Y-134805057D01*
X125968095Y-134805057D02*
X125872857Y-134947914D01*
X125872857Y-134947914D02*
X125825238Y-135138390D01*
X125825238Y-135138390D02*
X125825238Y-135519342D01*
X125825238Y-135519342D02*
X125872857Y-135614580D01*
X125872857Y-135614580D02*
X125920476Y-135662200D01*
X125920476Y-135662200D02*
X126015714Y-135709819D01*
X126015714Y-135709819D02*
X126206190Y-135709819D01*
X126206190Y-135709819D02*
X126301428Y-135662200D01*
X126301428Y-135662200D02*
X126349047Y-135614580D01*
X126349047Y-135614580D02*
X126396666Y-135519342D01*
X126396666Y-135519342D02*
X126396666Y-135281247D01*
X126396666Y-135281247D02*
X126349047Y-135186009D01*
X126349047Y-135186009D02*
X126301428Y-135138390D01*
X126301428Y-135138390D02*
X126206190Y-135090771D01*
X126206190Y-135090771D02*
X126015714Y-135090771D01*
X126015714Y-135090771D02*
X125920476Y-135138390D01*
X125920476Y-135138390D02*
X125872857Y-135186009D01*
X125872857Y-135186009D02*
X125825238Y-135281247D01*
X185253333Y-108859819D02*
X184920000Y-108383628D01*
X184681905Y-108859819D02*
X184681905Y-107859819D01*
X184681905Y-107859819D02*
X185062857Y-107859819D01*
X185062857Y-107859819D02*
X185158095Y-107907438D01*
X185158095Y-107907438D02*
X185205714Y-107955057D01*
X185205714Y-107955057D02*
X185253333Y-108050295D01*
X185253333Y-108050295D02*
X185253333Y-108193152D01*
X185253333Y-108193152D02*
X185205714Y-108288390D01*
X185205714Y-108288390D02*
X185158095Y-108336009D01*
X185158095Y-108336009D02*
X185062857Y-108383628D01*
X185062857Y-108383628D02*
X184681905Y-108383628D01*
X186110476Y-108193152D02*
X186110476Y-108859819D01*
X185872381Y-107812200D02*
X185634286Y-108526485D01*
X185634286Y-108526485D02*
X186253333Y-108526485D01*
X95799405Y-92529819D02*
X95799405Y-91529819D01*
X95799405Y-91529819D02*
X96037500Y-91529819D01*
X96037500Y-91529819D02*
X96180357Y-91577438D01*
X96180357Y-91577438D02*
X96275595Y-91672676D01*
X96275595Y-91672676D02*
X96323214Y-91767914D01*
X96323214Y-91767914D02*
X96370833Y-91958390D01*
X96370833Y-91958390D02*
X96370833Y-92101247D01*
X96370833Y-92101247D02*
X96323214Y-92291723D01*
X96323214Y-92291723D02*
X96275595Y-92386961D01*
X96275595Y-92386961D02*
X96180357Y-92482200D01*
X96180357Y-92482200D02*
X96037500Y-92529819D01*
X96037500Y-92529819D02*
X95799405Y-92529819D01*
X96751786Y-91625057D02*
X96799405Y-91577438D01*
X96799405Y-91577438D02*
X96894643Y-91529819D01*
X96894643Y-91529819D02*
X97132738Y-91529819D01*
X97132738Y-91529819D02*
X97227976Y-91577438D01*
X97227976Y-91577438D02*
X97275595Y-91625057D01*
X97275595Y-91625057D02*
X97323214Y-91720295D01*
X97323214Y-91720295D02*
X97323214Y-91815533D01*
X97323214Y-91815533D02*
X97275595Y-91958390D01*
X97275595Y-91958390D02*
X96704167Y-92529819D01*
X96704167Y-92529819D02*
X97323214Y-92529819D01*
X101355595Y-97169819D02*
X101355595Y-96169819D01*
X101927023Y-97169819D02*
X101498452Y-96598390D01*
X101927023Y-96169819D02*
X101355595Y-96741247D01*
X217369819Y-124863094D02*
X216369819Y-124863094D01*
X216369819Y-124863094D02*
X216369819Y-124624999D01*
X216369819Y-124624999D02*
X216417438Y-124482142D01*
X216417438Y-124482142D02*
X216512676Y-124386904D01*
X216512676Y-124386904D02*
X216607914Y-124339285D01*
X216607914Y-124339285D02*
X216798390Y-124291666D01*
X216798390Y-124291666D02*
X216941247Y-124291666D01*
X216941247Y-124291666D02*
X217131723Y-124339285D01*
X217131723Y-124339285D02*
X217226961Y-124386904D01*
X217226961Y-124386904D02*
X217322200Y-124482142D01*
X217322200Y-124482142D02*
X217369819Y-124624999D01*
X217369819Y-124624999D02*
X217369819Y-124863094D01*
X216369819Y-123958332D02*
X216369819Y-123291666D01*
X216369819Y-123291666D02*
X217369819Y-123720237D01*
X212964104Y-125003094D02*
X212964104Y-124526904D01*
X213249819Y-125098332D02*
X212249819Y-124764999D01*
X212249819Y-124764999D02*
X213249819Y-124431666D01*
D11*
X199795000Y-111125000D02*
X201755000Y-111125000D01*
X201755000Y-109405000D02*
X201755000Y-112845000D01*
X201755000Y-112845000D02*
X210995000Y-112845000D01*
X210995000Y-109405000D02*
X201755000Y-109405000D01*
X210995000Y-112845000D02*
X210995000Y-109405000D01*
X212955000Y-111125000D02*
X210995000Y-111125000D01*
X197285000Y-119835000D02*
X197285000Y-125275000D01*
X197285000Y-125275000D02*
X200225000Y-125275000D01*
X198755000Y-118815000D02*
X198755000Y-119835000D01*
X198755000Y-126295000D02*
X198755000Y-125275000D01*
X200225000Y-119835000D02*
X197285000Y-119835000D01*
X200225000Y-120615000D02*
X197285000Y-120615000D01*
X200225000Y-120735000D02*
X197285000Y-120735000D01*
X200225000Y-120855000D02*
X197285000Y-120855000D01*
X200225000Y-125275000D02*
X200225000Y-119835000D01*
X173210000Y-98570000D02*
X177310000Y-98570000D01*
X173210000Y-107170000D02*
X173210000Y-98570000D01*
X173210000Y-107170000D02*
X177310000Y-107170000D01*
X177310000Y-107170000D02*
X177310000Y-98570000D01*
X166690000Y-77155000D02*
X166690000Y-79055000D01*
X166690000Y-79055000D02*
X168540000Y-79055000D01*
X168540000Y-77155000D02*
X166690000Y-77155000D01*
X168540000Y-77205000D02*
X168540000Y-77155000D01*
X168540000Y-79055000D02*
X168540000Y-77205000D01*
X72477500Y-94615000D02*
X73497500Y-94615000D01*
X73497500Y-93145000D02*
X73497500Y-96085000D01*
X73497500Y-96085000D02*
X78937500Y-96085000D01*
X77917500Y-96085000D02*
X77917500Y-93145000D01*
X78037500Y-96085000D02*
X78037500Y-93145000D01*
X78157500Y-96085000D02*
X78157500Y-93145000D01*
X78937500Y-93145000D02*
X73497500Y-93145000D01*
X78937500Y-96085000D02*
X78937500Y-93145000D01*
X79957500Y-94615000D02*
X78937500Y-94615000D01*
X176330000Y-119835000D02*
X176330000Y-125275000D01*
X176330000Y-125275000D02*
X179270000Y-125275000D01*
X177800000Y-118815000D02*
X177800000Y-119835000D01*
X177800000Y-126295000D02*
X177800000Y-125275000D01*
X179270000Y-119835000D02*
X176330000Y-119835000D01*
X179270000Y-120615000D02*
X176330000Y-120615000D01*
X179270000Y-120735000D02*
X176330000Y-120735000D01*
X179270000Y-120855000D02*
X176330000Y-120855000D01*
X179270000Y-125275000D02*
X179270000Y-119835000D01*
X208510000Y-98925000D02*
X208510000Y-96925000D01*
X208900000Y-57675000D02*
X208900000Y-98535000D01*
X208900000Y-98535000D02*
X216370000Y-98535000D01*
X209760000Y-98925000D02*
X208510000Y-98925000D01*
X209860000Y-58825000D02*
X210860000Y-59075000D01*
X209860000Y-61825000D02*
X209860000Y-58825000D01*
X209860000Y-63905000D02*
X210860000Y-64155000D01*
X209860000Y-66905000D02*
X209860000Y-63905000D01*
X209860000Y-68985000D02*
X210860000Y-69235000D01*
X209860000Y-71985000D02*
X209860000Y-68985000D01*
X209860000Y-74065000D02*
X210860000Y-74315000D01*
X209860000Y-77065000D02*
X209860000Y-74065000D01*
X209860000Y-79145000D02*
X210860000Y-79395000D01*
X209860000Y-82145000D02*
X209860000Y-79145000D01*
X209860000Y-84225000D02*
X210860000Y-84475000D01*
X209860000Y-87225000D02*
X209860000Y-84225000D01*
X209860000Y-89305000D02*
X210860000Y-89555000D01*
X209860000Y-92305000D02*
X209860000Y-89305000D01*
X209860000Y-94385000D02*
X210860000Y-94635000D01*
X209860000Y-97385000D02*
X209860000Y-94385000D01*
X210860000Y-59075000D02*
X210860000Y-59575000D01*
X210860000Y-59575000D02*
X211210000Y-59575000D01*
X210860000Y-61075000D02*
X210860000Y-61575000D01*
X210860000Y-61575000D02*
X209860000Y-61825000D01*
X210860000Y-64155000D02*
X210860000Y-64655000D01*
X210860000Y-64655000D02*
X211210000Y-64655000D01*
X210860000Y-66155000D02*
X210860000Y-66655000D01*
X210860000Y-66655000D02*
X209860000Y-66905000D01*
X210860000Y-69235000D02*
X210860000Y-69735000D01*
X210860000Y-69735000D02*
X211210000Y-69735000D01*
X210860000Y-71235000D02*
X210860000Y-71735000D01*
X210860000Y-71735000D02*
X209860000Y-71985000D01*
X210860000Y-74315000D02*
X210860000Y-74815000D01*
X210860000Y-74815000D02*
X211210000Y-74815000D01*
X210860000Y-76315000D02*
X210860000Y-76815000D01*
X210860000Y-76815000D02*
X209860000Y-77065000D01*
X210860000Y-79395000D02*
X210860000Y-79895000D01*
X210860000Y-79895000D02*
X211210000Y-79895000D01*
X210860000Y-81395000D02*
X210860000Y-81895000D01*
X210860000Y-81895000D02*
X209860000Y-82145000D01*
X210860000Y-84475000D02*
X210860000Y-84975000D01*
X210860000Y-84975000D02*
X211210000Y-84975000D01*
X210860000Y-86475000D02*
X210860000Y-86975000D01*
X210860000Y-86975000D02*
X209860000Y-87225000D01*
X210860000Y-89555000D02*
X210860000Y-90055000D01*
X210860000Y-90055000D02*
X211210000Y-90055000D01*
X210860000Y-91555000D02*
X210860000Y-92055000D01*
X210860000Y-92055000D02*
X209860000Y-92305000D01*
X210860000Y-94635000D02*
X210860000Y-95135000D01*
X210860000Y-95135000D02*
X211210000Y-95135000D01*
X210860000Y-96635000D02*
X210860000Y-97135000D01*
X210860000Y-97135000D02*
X209860000Y-97385000D01*
X211210000Y-58825000D02*
X215510000Y-58825000D01*
X211210000Y-59575000D02*
X211210000Y-58825000D01*
X211210000Y-61075000D02*
X210860000Y-61075000D01*
X211210000Y-61825000D02*
X211210000Y-61075000D01*
X211210000Y-63905000D02*
X215510000Y-63905000D01*
X211210000Y-64655000D02*
X211210000Y-63905000D01*
X211210000Y-66155000D02*
X210860000Y-66155000D01*
X211210000Y-66905000D02*
X211210000Y-66155000D01*
X211210000Y-68985000D02*
X215510000Y-68985000D01*
X211210000Y-69735000D02*
X211210000Y-68985000D01*
X211210000Y-71235000D02*
X210860000Y-71235000D01*
X211210000Y-71985000D02*
X211210000Y-71235000D01*
X211210000Y-74065000D02*
X215510000Y-74065000D01*
X211210000Y-74815000D02*
X211210000Y-74065000D01*
X211210000Y-76315000D02*
X210860000Y-76315000D01*
X211210000Y-77065000D02*
X211210000Y-76315000D01*
X211210000Y-79145000D02*
X215510000Y-79145000D01*
X211210000Y-79895000D02*
X211210000Y-79145000D01*
X211210000Y-81395000D02*
X210860000Y-81395000D01*
X211210000Y-82145000D02*
X211210000Y-81395000D01*
X211210000Y-84225000D02*
X215510000Y-84225000D01*
X211210000Y-84975000D02*
X211210000Y-84225000D01*
X211210000Y-86475000D02*
X210860000Y-86475000D01*
X211210000Y-87225000D02*
X211210000Y-86475000D01*
X211210000Y-89305000D02*
X215510000Y-89305000D01*
X211210000Y-90055000D02*
X211210000Y-89305000D01*
X211210000Y-91555000D02*
X210860000Y-91555000D01*
X211210000Y-92305000D02*
X211210000Y-91555000D01*
X211210000Y-94385000D02*
X215510000Y-94385000D01*
X211210000Y-95135000D02*
X211210000Y-94385000D01*
X211210000Y-96635000D02*
X210860000Y-96635000D01*
X211210000Y-97385000D02*
X211210000Y-96635000D01*
X215510000Y-58825000D02*
X215510000Y-59575000D01*
X215510000Y-61075000D02*
X215510000Y-61825000D01*
X215510000Y-61825000D02*
X211210000Y-61825000D01*
X215510000Y-63905000D02*
X215510000Y-64655000D01*
X215510000Y-66155000D02*
X215510000Y-66905000D01*
X215510000Y-66905000D02*
X211210000Y-66905000D01*
X215510000Y-68985000D02*
X215510000Y-69735000D01*
X215510000Y-71235000D02*
X215510000Y-71985000D01*
X215510000Y-71985000D02*
X211210000Y-71985000D01*
X215510000Y-74065000D02*
X215510000Y-74815000D01*
X215510000Y-76315000D02*
X215510000Y-77065000D01*
X215510000Y-77065000D02*
X211210000Y-77065000D01*
X215510000Y-79145000D02*
X215510000Y-79895000D01*
X215510000Y-81395000D02*
X215510000Y-82145000D01*
X215510000Y-82145000D02*
X211210000Y-82145000D01*
X215510000Y-84225000D02*
X215510000Y-84975000D01*
X215510000Y-86475000D02*
X215510000Y-87225000D01*
X215510000Y-87225000D02*
X211210000Y-87225000D01*
X215510000Y-89305000D02*
X215510000Y-90055000D01*
X215510000Y-91555000D02*
X215510000Y-92305000D01*
X215510000Y-92305000D02*
X211210000Y-92305000D01*
X215510000Y-94385000D02*
X215510000Y-95135000D01*
X215510000Y-96635000D02*
X215510000Y-97385000D01*
X215510000Y-97385000D02*
X211210000Y-97385000D01*
X216370000Y-57675000D02*
X208900000Y-57675000D01*
X216370000Y-98535000D02*
X216370000Y-57675000D01*
X215510000Y-61075000D02*
G75*
G02*
X215509844Y-59575353I1700000J750000D01*
G01*
X215510000Y-66155000D02*
G75*
G02*
X215509844Y-64655353I1700000J750000D01*
G01*
X215510000Y-71235000D02*
G75*
G02*
X215509844Y-69735353I1700000J750000D01*
G01*
X215510000Y-76315000D02*
G75*
G02*
X215509844Y-74815353I1700000J750000D01*
G01*
X215510000Y-81395000D02*
G75*
G02*
X215509844Y-79895353I1700000J750000D01*
G01*
X215510000Y-86475000D02*
G75*
G02*
X215509844Y-84975353I1700000J750000D01*
G01*
X215510000Y-91555000D02*
G75*
G02*
X215509844Y-90055353I1700000J750000D01*
G01*
X215510000Y-96635000D02*
G75*
G02*
X215509844Y-95135353I1700000J750000D01*
G01*
X149360000Y-130405000D02*
X151360000Y-130405000D01*
X149360000Y-131655000D02*
X149360000Y-130405000D01*
X149750000Y-130795000D02*
X149750000Y-138265000D01*
X149750000Y-138265000D02*
X165210000Y-138265000D01*
X150900000Y-131755000D02*
X153900000Y-131755000D01*
X150900000Y-133105000D02*
X151650000Y-133105000D01*
X150900000Y-137405000D02*
X150900000Y-133105000D01*
X151150000Y-132755000D02*
X150900000Y-131755000D01*
X151650000Y-132755000D02*
X151150000Y-132755000D01*
X151650000Y-133105000D02*
X151650000Y-132755000D01*
X151650000Y-137405000D02*
X150900000Y-137405000D01*
X153150000Y-132755000D02*
X153150000Y-133105000D01*
X153150000Y-133105000D02*
X153900000Y-133105000D01*
X153650000Y-132755000D02*
X153150000Y-132755000D01*
X153900000Y-131755000D02*
X153650000Y-132755000D01*
X153900000Y-133105000D02*
X153900000Y-137405000D01*
X153900000Y-137405000D02*
X153150000Y-137405000D01*
X155980000Y-131755000D02*
X158980000Y-131755000D01*
X155980000Y-133105000D02*
X156730000Y-133105000D01*
X155980000Y-137405000D02*
X155980000Y-133105000D01*
X156230000Y-132755000D02*
X155980000Y-131755000D01*
X156730000Y-132755000D02*
X156230000Y-132755000D01*
X156730000Y-133105000D02*
X156730000Y-132755000D01*
X156730000Y-137405000D02*
X155980000Y-137405000D01*
X158230000Y-132755000D02*
X158230000Y-133105000D01*
X158230000Y-133105000D02*
X158980000Y-133105000D01*
X158730000Y-132755000D02*
X158230000Y-132755000D01*
X158980000Y-131755000D02*
X158730000Y-132755000D01*
X158980000Y-133105000D02*
X158980000Y-137405000D01*
X158980000Y-137405000D02*
X158230000Y-137405000D01*
X161060000Y-131755000D02*
X164060000Y-131755000D01*
X161060000Y-133105000D02*
X161810000Y-133105000D01*
X161060000Y-137405000D02*
X161060000Y-133105000D01*
X161310000Y-132755000D02*
X161060000Y-131755000D01*
X161810000Y-132755000D02*
X161310000Y-132755000D01*
X161810000Y-133105000D02*
X161810000Y-132755000D01*
X161810000Y-137405000D02*
X161060000Y-137405000D01*
X163310000Y-132755000D02*
X163310000Y-133105000D01*
X163310000Y-133105000D02*
X164060000Y-133105000D01*
X163810000Y-132755000D02*
X163310000Y-132755000D01*
X164060000Y-131755000D02*
X163810000Y-132755000D01*
X164060000Y-133105000D02*
X164060000Y-137405000D01*
X164060000Y-137405000D02*
X163310000Y-137405000D01*
X165210000Y-130795000D02*
X149750000Y-130795000D01*
X165210000Y-138265000D02*
X165210000Y-130795000D01*
X151650000Y-137405000D02*
G75*
G02*
X153149647Y-137404844I750000J-1700000D01*
G01*
X156730000Y-137405000D02*
G75*
G02*
X158229647Y-137404844I750000J-1700000D01*
G01*
X161810000Y-137405000D02*
G75*
G02*
X163309647Y-137404844I750000J-1700000D01*
G01*
X110810000Y-89855000D02*
X110810000Y-91755000D01*
X110810000Y-91755000D02*
X112660000Y-91755000D01*
X112660000Y-89855000D02*
X110810000Y-89855000D01*
X112660000Y-89905000D02*
X112660000Y-89855000D01*
X112660000Y-91755000D02*
X112660000Y-89905000D01*
X171415000Y-50595000D02*
X175265000Y-50595000D01*
X170998600Y-47796193D02*
G75*
G02*
X173355000Y-46295000I2356400J-1098807D01*
G01*
X171415000Y-50595000D02*
G75*
G02*
X171032369Y-50017045I1940000J1700000D01*
G01*
X173355000Y-46295000D02*
G75*
G02*
X175711400Y-47796193I0J-2600000D01*
G01*
X175657383Y-50007264D02*
G75*
G02*
X175265000Y-50595000I-2302383J1112264D01*
G01*
X190540000Y-122555000D02*
G75*
G02*
X180300000Y-122555000I-5120000J0D01*
G01*
X180300000Y-122555000D02*
G75*
G02*
X190540000Y-122555000I5120000J0D01*
G01*
X211455000Y-122555000D02*
G75*
G02*
X201215000Y-122555000I-5120000J0D01*
G01*
X201215000Y-122555000D02*
G75*
G02*
X211455000Y-122555000I5120000J0D01*
G01*
X166690000Y-82235000D02*
X166690000Y-84135000D01*
X166690000Y-84135000D02*
X168540000Y-84135000D01*
X168540000Y-82235000D02*
X166690000Y-82235000D01*
X168540000Y-82285000D02*
X168540000Y-82235000D01*
X168540000Y-84135000D02*
X168540000Y-82285000D01*
X88187500Y-98315000D02*
X88187500Y-121015000D01*
X88187500Y-121015000D02*
X104887500Y-121015000D01*
X92037500Y-103165000D02*
X95187500Y-103165000D01*
X95537500Y-98055000D02*
X97537500Y-98055000D01*
X96187500Y-102565000D02*
X96187500Y-103765000D01*
X96187500Y-103365000D02*
X96887500Y-102965000D01*
X96187500Y-103765000D02*
X96887500Y-103765000D01*
X96887500Y-102565000D02*
X96187500Y-102565000D01*
X96887500Y-103765000D02*
X96887500Y-102565000D01*
X97887500Y-103165000D02*
X101037500Y-103165000D01*
X104887500Y-98315000D02*
X88187500Y-98315000D01*
X104887500Y-121015000D02*
X104887500Y-98315000D01*
X164465000Y-101825000D02*
X164465000Y-108075000D01*
X164465000Y-108075000D02*
X166240000Y-108075000D01*
X164465000Y-118175000D02*
X164465000Y-124425000D01*
X164465000Y-118175000D02*
X166040000Y-118175000D01*
X164465000Y-124425000D02*
X166040000Y-124425000D01*
X165140000Y-108075000D02*
X165140000Y-118175000D01*
X166240000Y-101825000D02*
X164465000Y-101825000D01*
X169040000Y-101825000D02*
X170815000Y-101825000D01*
X170140000Y-108075000D02*
X170140000Y-118175000D01*
X170815000Y-108075000D02*
X169040000Y-108075000D01*
X170815000Y-108075000D02*
X170815000Y-101825000D01*
X170815000Y-118175000D02*
X169240000Y-118175000D01*
X170815000Y-118175000D02*
X170815000Y-124425000D01*
X170815000Y-124425000D02*
X169240000Y-124425000D01*
X129048750Y-121515000D02*
X131048750Y-121515000D01*
X129048750Y-122765000D02*
X129048750Y-121515000D01*
X129438750Y-121905000D02*
X129438750Y-129375000D01*
X129438750Y-129375000D02*
X144898750Y-129375000D01*
X130588750Y-122865000D02*
X133588750Y-122865000D01*
X130588750Y-124215000D02*
X131338750Y-124215000D01*
X130588750Y-128515000D02*
X130588750Y-124215000D01*
X130838750Y-123865000D02*
X130588750Y-122865000D01*
X131338750Y-123865000D02*
X130838750Y-123865000D01*
X131338750Y-124215000D02*
X131338750Y-123865000D01*
X131338750Y-128515000D02*
X130588750Y-128515000D01*
X132838750Y-123865000D02*
X132838750Y-124215000D01*
X132838750Y-124215000D02*
X133588750Y-124215000D01*
X133338750Y-123865000D02*
X132838750Y-123865000D01*
X133588750Y-122865000D02*
X133338750Y-123865000D01*
X133588750Y-124215000D02*
X133588750Y-128515000D01*
X133588750Y-128515000D02*
X132838750Y-128515000D01*
X135668750Y-122865000D02*
X138668750Y-122865000D01*
X135668750Y-124215000D02*
X136418750Y-124215000D01*
X135668750Y-128515000D02*
X135668750Y-124215000D01*
X135918750Y-123865000D02*
X135668750Y-122865000D01*
X136418750Y-123865000D02*
X135918750Y-123865000D01*
X136418750Y-124215000D02*
X136418750Y-123865000D01*
X136418750Y-128515000D02*
X135668750Y-128515000D01*
X137918750Y-123865000D02*
X137918750Y-124215000D01*
X137918750Y-124215000D02*
X138668750Y-124215000D01*
X138418750Y-123865000D02*
X137918750Y-123865000D01*
X138668750Y-122865000D02*
X138418750Y-123865000D01*
X138668750Y-124215000D02*
X138668750Y-128515000D01*
X138668750Y-128515000D02*
X137918750Y-128515000D01*
X140748750Y-122865000D02*
X143748750Y-122865000D01*
X140748750Y-124215000D02*
X141498750Y-124215000D01*
X140748750Y-128515000D02*
X140748750Y-124215000D01*
X140998750Y-123865000D02*
X140748750Y-122865000D01*
X141498750Y-123865000D02*
X140998750Y-123865000D01*
X141498750Y-124215000D02*
X141498750Y-123865000D01*
X141498750Y-128515000D02*
X140748750Y-128515000D01*
X142998750Y-123865000D02*
X142998750Y-124215000D01*
X142998750Y-124215000D02*
X143748750Y-124215000D01*
X143498750Y-123865000D02*
X142998750Y-123865000D01*
X143748750Y-122865000D02*
X143498750Y-123865000D01*
X143748750Y-124215000D02*
X143748750Y-128515000D01*
X143748750Y-128515000D02*
X142998750Y-128515000D01*
X144898750Y-121905000D02*
X129438750Y-121905000D01*
X144898750Y-129375000D02*
X144898750Y-121905000D01*
X131338750Y-128515000D02*
G75*
G02*
X132838397Y-128514844I750000J-1700000D01*
G01*
X136418750Y-128515000D02*
G75*
G02*
X137918397Y-128514844I750000J-1700000D01*
G01*
X141498750Y-128515000D02*
G75*
G02*
X142998397Y-128514844I750000J-1700000D01*
G01*
X156530000Y-56835000D02*
X156530000Y-58735000D01*
X156530000Y-58735000D02*
X158380000Y-58735000D01*
X158380000Y-56835000D02*
X156530000Y-56835000D01*
X158380000Y-56885000D02*
X158380000Y-56835000D01*
X158380000Y-58735000D02*
X158380000Y-56885000D01*
X129048750Y-130405000D02*
X131048750Y-130405000D01*
X129048750Y-131655000D02*
X129048750Y-130405000D01*
X129438750Y-130795000D02*
X129438750Y-138265000D01*
X129438750Y-138265000D02*
X144898750Y-138265000D01*
X130588750Y-131755000D02*
X133588750Y-131755000D01*
X130588750Y-133105000D02*
X131338750Y-133105000D01*
X130588750Y-137405000D02*
X130588750Y-133105000D01*
X130838750Y-132755000D02*
X130588750Y-131755000D01*
X131338750Y-132755000D02*
X130838750Y-132755000D01*
X131338750Y-133105000D02*
X131338750Y-132755000D01*
X131338750Y-137405000D02*
X130588750Y-137405000D01*
X132838750Y-132755000D02*
X132838750Y-133105000D01*
X132838750Y-133105000D02*
X133588750Y-133105000D01*
X133338750Y-132755000D02*
X132838750Y-132755000D01*
X133588750Y-131755000D02*
X133338750Y-132755000D01*
X133588750Y-133105000D02*
X133588750Y-137405000D01*
X133588750Y-137405000D02*
X132838750Y-137405000D01*
X135668750Y-131755000D02*
X138668750Y-131755000D01*
X135668750Y-133105000D02*
X136418750Y-133105000D01*
X135668750Y-137405000D02*
X135668750Y-133105000D01*
X135918750Y-132755000D02*
X135668750Y-131755000D01*
X136418750Y-132755000D02*
X135918750Y-132755000D01*
X136418750Y-133105000D02*
X136418750Y-132755000D01*
X136418750Y-137405000D02*
X135668750Y-137405000D01*
X137918750Y-132755000D02*
X137918750Y-133105000D01*
X137918750Y-133105000D02*
X138668750Y-133105000D01*
X138418750Y-132755000D02*
X137918750Y-132755000D01*
X138668750Y-131755000D02*
X138418750Y-132755000D01*
X138668750Y-133105000D02*
X138668750Y-137405000D01*
X138668750Y-137405000D02*
X137918750Y-137405000D01*
X140748750Y-131755000D02*
X143748750Y-131755000D01*
X140748750Y-133105000D02*
X141498750Y-133105000D01*
X140748750Y-137405000D02*
X140748750Y-133105000D01*
X140998750Y-132755000D02*
X140748750Y-131755000D01*
X141498750Y-132755000D02*
X140998750Y-132755000D01*
X141498750Y-133105000D02*
X141498750Y-132755000D01*
X141498750Y-137405000D02*
X140748750Y-137405000D01*
X142998750Y-132755000D02*
X142998750Y-133105000D01*
X142998750Y-133105000D02*
X143748750Y-133105000D01*
X143498750Y-132755000D02*
X142998750Y-132755000D01*
X143748750Y-131755000D02*
X143498750Y-132755000D01*
X143748750Y-133105000D02*
X143748750Y-137405000D01*
X143748750Y-137405000D02*
X142998750Y-137405000D01*
X144898750Y-130795000D02*
X129438750Y-130795000D01*
X144898750Y-138265000D02*
X144898750Y-130795000D01*
X131338750Y-137405000D02*
G75*
G02*
X132838397Y-137404844I750000J-1700000D01*
G01*
X136418750Y-137405000D02*
G75*
G02*
X137918397Y-137404844I750000J-1700000D01*
G01*
X141498750Y-137405000D02*
G75*
G02*
X142998397Y-137404844I750000J-1700000D01*
G01*
X205780000Y-49715000D02*
G75*
G02*
X195540000Y-49715000I-5120000J0D01*
G01*
X195540000Y-49715000D02*
G75*
G02*
X205780000Y-49715000I5120000J0D01*
G01*
X156530000Y-49215000D02*
X156530000Y-51115000D01*
X156530000Y-51115000D02*
X158380000Y-51115000D01*
X158380000Y-49215000D02*
X156530000Y-49215000D01*
X158380000Y-49265000D02*
X158380000Y-49215000D01*
X158380000Y-51115000D02*
X158380000Y-49265000D01*
X113135000Y-94615000D02*
X114155000Y-94615000D01*
X114155000Y-93145000D02*
X114155000Y-96085000D01*
X114155000Y-96085000D02*
X119595000Y-96085000D01*
X118575000Y-96085000D02*
X118575000Y-93145000D01*
X118695000Y-96085000D02*
X118695000Y-93145000D01*
X118815000Y-96085000D02*
X118815000Y-93145000D01*
X119595000Y-93145000D02*
X114155000Y-93145000D01*
X119595000Y-96085000D02*
X119595000Y-93145000D01*
X120615000Y-94615000D02*
X119595000Y-94615000D01*
X166690000Y-84775000D02*
X166690000Y-86675000D01*
X166690000Y-86675000D02*
X168540000Y-86675000D01*
X168540000Y-84775000D02*
X166690000Y-84775000D01*
X168540000Y-84825000D02*
X168540000Y-84775000D01*
X168540000Y-86675000D02*
X168540000Y-84825000D01*
X193040000Y-123505000D02*
X193040000Y-125165000D01*
X194960000Y-121585000D02*
G75*
G02*
X191120000Y-121585000I-1920000J0D01*
G01*
X191120000Y-121585000D02*
G75*
G02*
X194960000Y-121585000I1920000J0D01*
G01*
X166690000Y-72075000D02*
X166690000Y-73975000D01*
X166690000Y-73975000D02*
X168540000Y-73975000D01*
X168540000Y-72075000D02*
X166690000Y-72075000D01*
X168540000Y-72125000D02*
X168540000Y-72075000D01*
X168540000Y-73975000D02*
X168540000Y-72125000D01*
X108525000Y-98315000D02*
X108525000Y-121015000D01*
X108525000Y-121015000D02*
X125225000Y-121015000D01*
X112375000Y-103165000D02*
X115525000Y-103165000D01*
X115875000Y-98055000D02*
X117875000Y-98055000D01*
X116525000Y-102565000D02*
X116525000Y-103765000D01*
X116525000Y-103365000D02*
X117225000Y-102965000D01*
X116525000Y-103765000D02*
X117225000Y-103765000D01*
X117225000Y-102565000D02*
X116525000Y-102565000D01*
X117225000Y-103765000D02*
X117225000Y-102565000D01*
X118225000Y-103165000D02*
X121375000Y-103165000D01*
X125225000Y-98315000D02*
X108525000Y-98315000D01*
X125225000Y-121015000D02*
X125225000Y-98315000D01*
X67850000Y-98315000D02*
X67850000Y-121015000D01*
X67850000Y-121015000D02*
X84550000Y-121015000D01*
X71700000Y-103165000D02*
X74850000Y-103165000D01*
X75200000Y-98055000D02*
X77200000Y-98055000D01*
X75850000Y-102565000D02*
X75850000Y-103765000D01*
X75850000Y-103365000D02*
X76550000Y-102965000D01*
X75850000Y-103765000D02*
X76550000Y-103765000D01*
X76550000Y-102565000D02*
X75850000Y-102565000D01*
X76550000Y-103765000D02*
X76550000Y-102565000D01*
X77550000Y-103165000D02*
X80700000Y-103165000D01*
X84550000Y-98315000D02*
X67850000Y-98315000D01*
X84550000Y-121015000D02*
X84550000Y-98315000D01*
X128810000Y-98315000D02*
X128810000Y-121015000D01*
X128810000Y-121015000D02*
X145510000Y-121015000D01*
X132660000Y-103165000D02*
X135810000Y-103165000D01*
X136160000Y-98055000D02*
X138160000Y-98055000D01*
X136810000Y-102565000D02*
X136810000Y-103765000D01*
X136810000Y-103365000D02*
X137510000Y-102965000D01*
X136810000Y-103765000D02*
X137510000Y-103765000D01*
X137510000Y-102565000D02*
X136810000Y-102565000D01*
X137510000Y-103765000D02*
X137510000Y-102565000D01*
X138510000Y-103165000D02*
X141660000Y-103165000D01*
X145510000Y-98315000D02*
X128810000Y-98315000D01*
X145510000Y-121015000D02*
X145510000Y-98315000D01*
X70170000Y-89855000D02*
X70170000Y-91755000D01*
X70170000Y-91755000D02*
X72020000Y-91755000D01*
X72020000Y-89855000D02*
X70170000Y-89855000D01*
X72020000Y-89905000D02*
X72020000Y-89855000D01*
X72020000Y-91755000D02*
X72020000Y-89905000D01*
X153670000Y-101730000D02*
X153670000Y-107980000D01*
X153670000Y-107980000D02*
X155445000Y-107980000D01*
X153670000Y-118080000D02*
X153670000Y-124330000D01*
X153670000Y-118080000D02*
X155245000Y-118080000D01*
X153670000Y-124330000D02*
X155245000Y-124330000D01*
X154345000Y-107980000D02*
X154345000Y-118080000D01*
X155445000Y-101730000D02*
X153670000Y-101730000D01*
X158245000Y-101730000D02*
X160020000Y-101730000D01*
X159345000Y-107980000D02*
X159345000Y-118080000D01*
X160020000Y-107980000D02*
X158245000Y-107980000D01*
X160020000Y-107980000D02*
X160020000Y-101730000D01*
X160020000Y-118080000D02*
X158445000Y-118080000D01*
X160020000Y-118080000D02*
X160020000Y-124330000D01*
X160020000Y-124330000D02*
X158445000Y-124330000D01*
X166690000Y-79695000D02*
X166690000Y-81595000D01*
X166690000Y-81595000D02*
X168540000Y-81595000D01*
X168540000Y-79695000D02*
X166690000Y-79695000D01*
X168540000Y-79745000D02*
X168540000Y-79695000D01*
X168540000Y-81595000D02*
X168540000Y-79745000D01*
X179104000Y-58075000D02*
X179260000Y-58075000D01*
X181420000Y-58075000D02*
X181576000Y-58075000D01*
X179104484Y-58075000D02*
G75*
G02*
X179261392Y-54842665I1235516J1560000D01*
G01*
X179260000Y-57555961D02*
G75*
G02*
X179260163Y-55473870I1080000J1040961D01*
G01*
X181418608Y-54842665D02*
G75*
G02*
X181575516Y-58075000I-1078608J-1672335D01*
G01*
X181419837Y-55473870D02*
G75*
G02*
X181420000Y-57555961I-1079837J-1041130D01*
G01*
X88417500Y-121515000D02*
X90417500Y-121515000D01*
X88417500Y-122765000D02*
X88417500Y-121515000D01*
X88807500Y-121905000D02*
X88807500Y-129375000D01*
X88807500Y-129375000D02*
X104267500Y-129375000D01*
X89957500Y-122865000D02*
X92957500Y-122865000D01*
X89957500Y-124215000D02*
X90707500Y-124215000D01*
X89957500Y-128515000D02*
X89957500Y-124215000D01*
X90207500Y-123865000D02*
X89957500Y-122865000D01*
X90707500Y-123865000D02*
X90207500Y-123865000D01*
X90707500Y-124215000D02*
X90707500Y-123865000D01*
X90707500Y-128515000D02*
X89957500Y-128515000D01*
X92207500Y-123865000D02*
X92207500Y-124215000D01*
X92207500Y-124215000D02*
X92957500Y-124215000D01*
X92707500Y-123865000D02*
X92207500Y-123865000D01*
X92957500Y-122865000D02*
X92707500Y-123865000D01*
X92957500Y-124215000D02*
X92957500Y-128515000D01*
X92957500Y-128515000D02*
X92207500Y-128515000D01*
X95037500Y-122865000D02*
X98037500Y-122865000D01*
X95037500Y-124215000D02*
X95787500Y-124215000D01*
X95037500Y-128515000D02*
X95037500Y-124215000D01*
X95287500Y-123865000D02*
X95037500Y-122865000D01*
X95787500Y-123865000D02*
X95287500Y-123865000D01*
X95787500Y-124215000D02*
X95787500Y-123865000D01*
X95787500Y-128515000D02*
X95037500Y-128515000D01*
X97287500Y-123865000D02*
X97287500Y-124215000D01*
X97287500Y-124215000D02*
X98037500Y-124215000D01*
X97787500Y-123865000D02*
X97287500Y-123865000D01*
X98037500Y-122865000D02*
X97787500Y-123865000D01*
X98037500Y-124215000D02*
X98037500Y-128515000D01*
X98037500Y-128515000D02*
X97287500Y-128515000D01*
X100117500Y-122865000D02*
X103117500Y-122865000D01*
X100117500Y-124215000D02*
X100867500Y-124215000D01*
X100117500Y-128515000D02*
X100117500Y-124215000D01*
X100367500Y-123865000D02*
X100117500Y-122865000D01*
X100867500Y-123865000D02*
X100367500Y-123865000D01*
X100867500Y-124215000D02*
X100867500Y-123865000D01*
X100867500Y-128515000D02*
X100117500Y-128515000D01*
X102367500Y-123865000D02*
X102367500Y-124215000D01*
X102367500Y-124215000D02*
X103117500Y-124215000D01*
X102867500Y-123865000D02*
X102367500Y-123865000D01*
X103117500Y-122865000D02*
X102867500Y-123865000D01*
X103117500Y-124215000D02*
X103117500Y-128515000D01*
X103117500Y-128515000D02*
X102367500Y-128515000D01*
X104267500Y-121905000D02*
X88807500Y-121905000D01*
X104267500Y-129375000D02*
X104267500Y-121905000D01*
X90707500Y-128515000D02*
G75*
G02*
X92207147Y-128514844I750000J-1700000D01*
G01*
X95787500Y-128515000D02*
G75*
G02*
X97287147Y-128514844I750000J-1700000D01*
G01*
X100867500Y-128515000D02*
G75*
G02*
X102367147Y-128514844I750000J-1700000D01*
G01*
X125500000Y-115820000D02*
X125500000Y-107720000D01*
X125500000Y-115820000D02*
X128500000Y-115820000D01*
X128500000Y-107720000D02*
X125500000Y-107720000D01*
X128500000Y-107720000D02*
X128500000Y-115820000D01*
X166690000Y-69535000D02*
X166690000Y-71435000D01*
X166690000Y-71435000D02*
X168540000Y-71435000D01*
X168540000Y-69535000D02*
X166690000Y-69535000D01*
X168540000Y-69585000D02*
X168540000Y-69535000D01*
X168540000Y-71435000D02*
X168540000Y-69585000D01*
X141290000Y-89855000D02*
X141290000Y-91755000D01*
X141290000Y-91755000D02*
X143140000Y-91755000D01*
X143140000Y-89855000D02*
X141290000Y-89855000D01*
X143140000Y-89905000D02*
X143140000Y-89855000D01*
X143140000Y-91755000D02*
X143140000Y-89905000D01*
X108737500Y-121515000D02*
X110737500Y-121515000D01*
X108737500Y-122765000D02*
X108737500Y-121515000D01*
X109127500Y-121905000D02*
X109127500Y-129375000D01*
X109127500Y-129375000D02*
X124587500Y-129375000D01*
X110277500Y-122865000D02*
X113277500Y-122865000D01*
X110277500Y-124215000D02*
X111027500Y-124215000D01*
X110277500Y-128515000D02*
X110277500Y-124215000D01*
X110527500Y-123865000D02*
X110277500Y-122865000D01*
X111027500Y-123865000D02*
X110527500Y-123865000D01*
X111027500Y-124215000D02*
X111027500Y-123865000D01*
X111027500Y-128515000D02*
X110277500Y-128515000D01*
X112527500Y-123865000D02*
X112527500Y-124215000D01*
X112527500Y-124215000D02*
X113277500Y-124215000D01*
X113027500Y-123865000D02*
X112527500Y-123865000D01*
X113277500Y-122865000D02*
X113027500Y-123865000D01*
X113277500Y-124215000D02*
X113277500Y-128515000D01*
X113277500Y-128515000D02*
X112527500Y-128515000D01*
X115357500Y-122865000D02*
X118357500Y-122865000D01*
X115357500Y-124215000D02*
X116107500Y-124215000D01*
X115357500Y-128515000D02*
X115357500Y-124215000D01*
X115607500Y-123865000D02*
X115357500Y-122865000D01*
X116107500Y-123865000D02*
X115607500Y-123865000D01*
X116107500Y-124215000D02*
X116107500Y-123865000D01*
X116107500Y-128515000D02*
X115357500Y-128515000D01*
X117607500Y-123865000D02*
X117607500Y-124215000D01*
X117607500Y-124215000D02*
X118357500Y-124215000D01*
X118107500Y-123865000D02*
X117607500Y-123865000D01*
X118357500Y-122865000D02*
X118107500Y-123865000D01*
X118357500Y-124215000D02*
X118357500Y-128515000D01*
X118357500Y-128515000D02*
X117607500Y-128515000D01*
X120437500Y-122865000D02*
X123437500Y-122865000D01*
X120437500Y-124215000D02*
X121187500Y-124215000D01*
X120437500Y-128515000D02*
X120437500Y-124215000D01*
X120687500Y-123865000D02*
X120437500Y-122865000D01*
X121187500Y-123865000D02*
X120687500Y-123865000D01*
X121187500Y-124215000D02*
X121187500Y-123865000D01*
X121187500Y-128515000D02*
X120437500Y-128515000D01*
X122687500Y-123865000D02*
X122687500Y-124215000D01*
X122687500Y-124215000D02*
X123437500Y-124215000D01*
X123187500Y-123865000D02*
X122687500Y-123865000D01*
X123437500Y-122865000D02*
X123187500Y-123865000D01*
X123437500Y-124215000D02*
X123437500Y-128515000D01*
X123437500Y-128515000D02*
X122687500Y-128515000D01*
X124587500Y-121905000D02*
X109127500Y-121905000D01*
X124587500Y-129375000D02*
X124587500Y-121905000D01*
X111027500Y-128515000D02*
G75*
G02*
X112527147Y-128514844I750000J-1700000D01*
G01*
X116107500Y-128515000D02*
G75*
G02*
X117607147Y-128514844I750000J-1700000D01*
G01*
X121187500Y-128515000D02*
G75*
G02*
X122687147Y-128514844I750000J-1700000D01*
G01*
X190635000Y-130405000D02*
X192635000Y-130405000D01*
X190635000Y-131655000D02*
X190635000Y-130405000D01*
X191025000Y-130795000D02*
X191025000Y-138265000D01*
X191025000Y-138265000D02*
X211565000Y-138265000D01*
X192175000Y-131755000D02*
X195175000Y-131755000D01*
X192175000Y-133105000D02*
X192925000Y-133105000D01*
X192175000Y-137405000D02*
X192175000Y-133105000D01*
X192425000Y-132755000D02*
X192175000Y-131755000D01*
X192925000Y-132755000D02*
X192425000Y-132755000D01*
X192925000Y-133105000D02*
X192925000Y-132755000D01*
X192925000Y-137405000D02*
X192175000Y-137405000D01*
X194425000Y-132755000D02*
X194425000Y-133105000D01*
X194425000Y-133105000D02*
X195175000Y-133105000D01*
X194925000Y-132755000D02*
X194425000Y-132755000D01*
X195175000Y-131755000D02*
X194925000Y-132755000D01*
X195175000Y-133105000D02*
X195175000Y-137405000D01*
X195175000Y-137405000D02*
X194425000Y-137405000D01*
X197255000Y-131755000D02*
X200255000Y-131755000D01*
X197255000Y-133105000D02*
X198005000Y-133105000D01*
X197255000Y-137405000D02*
X197255000Y-133105000D01*
X197505000Y-132755000D02*
X197255000Y-131755000D01*
X198005000Y-132755000D02*
X197505000Y-132755000D01*
X198005000Y-133105000D02*
X198005000Y-132755000D01*
X198005000Y-137405000D02*
X197255000Y-137405000D01*
X199505000Y-132755000D02*
X199505000Y-133105000D01*
X199505000Y-133105000D02*
X200255000Y-133105000D01*
X200005000Y-132755000D02*
X199505000Y-132755000D01*
X200255000Y-131755000D02*
X200005000Y-132755000D01*
X200255000Y-133105000D02*
X200255000Y-137405000D01*
X200255000Y-137405000D02*
X199505000Y-137405000D01*
X202335000Y-131755000D02*
X205335000Y-131755000D01*
X202335000Y-133105000D02*
X203085000Y-133105000D01*
X202335000Y-137405000D02*
X202335000Y-133105000D01*
X202585000Y-132755000D02*
X202335000Y-131755000D01*
X203085000Y-132755000D02*
X202585000Y-132755000D01*
X203085000Y-133105000D02*
X203085000Y-132755000D01*
X203085000Y-137405000D02*
X202335000Y-137405000D01*
X204585000Y-132755000D02*
X204585000Y-133105000D01*
X204585000Y-133105000D02*
X205335000Y-133105000D01*
X205085000Y-132755000D02*
X204585000Y-132755000D01*
X205335000Y-131755000D02*
X205085000Y-132755000D01*
X205335000Y-133105000D02*
X205335000Y-137405000D01*
X205335000Y-137405000D02*
X204585000Y-137405000D01*
X207415000Y-131755000D02*
X210415000Y-131755000D01*
X207415000Y-133105000D02*
X208165000Y-133105000D01*
X207415000Y-137405000D02*
X207415000Y-133105000D01*
X207665000Y-132755000D02*
X207415000Y-131755000D01*
X208165000Y-132755000D02*
X207665000Y-132755000D01*
X208165000Y-133105000D02*
X208165000Y-132755000D01*
X208165000Y-137405000D02*
X207415000Y-137405000D01*
X209665000Y-132755000D02*
X209665000Y-133105000D01*
X209665000Y-133105000D02*
X210415000Y-133105000D01*
X210165000Y-132755000D02*
X209665000Y-132755000D01*
X210415000Y-131755000D02*
X210165000Y-132755000D01*
X210415000Y-133105000D02*
X210415000Y-137405000D01*
X210415000Y-137405000D02*
X209665000Y-137405000D01*
X211565000Y-130795000D02*
X191025000Y-130795000D01*
X211565000Y-138265000D02*
X211565000Y-130795000D01*
X192925000Y-137405000D02*
G75*
G02*
X194424647Y-137404844I750000J-1700000D01*
G01*
X198005000Y-137405000D02*
G75*
G02*
X199504647Y-137404844I750000J-1700000D01*
G01*
X203085000Y-137405000D02*
G75*
G02*
X204584647Y-137404844I750000J-1700000D01*
G01*
X208165000Y-137405000D02*
G75*
G02*
X209664647Y-137404844I750000J-1700000D01*
G01*
X194390000Y-49715000D02*
G75*
G02*
X184150000Y-49715000I-5120000J0D01*
G01*
X184150000Y-49715000D02*
G75*
G02*
X194390000Y-49715000I5120000J0D01*
G01*
X168310000Y-54800000D02*
X172050000Y-54800000D01*
X168310000Y-62040000D02*
X168310000Y-54800000D01*
X168310000Y-62040000D02*
X172050000Y-62040000D01*
X172050000Y-62040000D02*
X172050000Y-54800000D01*
X133428750Y-94615000D02*
X134448750Y-94615000D01*
X134448750Y-93145000D02*
X134448750Y-96085000D01*
X134448750Y-96085000D02*
X139888750Y-96085000D01*
X138868750Y-96085000D02*
X138868750Y-93145000D01*
X138988750Y-96085000D02*
X138988750Y-93145000D01*
X139108750Y-96085000D02*
X139108750Y-93145000D01*
X139888750Y-93145000D02*
X134448750Y-93145000D01*
X139888750Y-96085000D02*
X139888750Y-93145000D01*
X140908750Y-94615000D02*
X139888750Y-94615000D01*
X131130000Y-89855000D02*
X131130000Y-91755000D01*
X131130000Y-91755000D02*
X132980000Y-91755000D01*
X132980000Y-89855000D02*
X131130000Y-89855000D01*
X132980000Y-89905000D02*
X132980000Y-89855000D01*
X132980000Y-91755000D02*
X132980000Y-89905000D01*
X179165000Y-60690000D02*
X179165000Y-99900000D01*
X179165000Y-99910000D02*
X202885000Y-99910000D01*
X187025000Y-100290000D02*
X189035000Y-100290000D01*
X202885000Y-60690000D02*
X179165000Y-60690000D01*
X202885000Y-99900000D02*
X202885000Y-60690000D01*
X90490000Y-89855000D02*
X90490000Y-91755000D01*
X90490000Y-91755000D02*
X92340000Y-91755000D01*
X92340000Y-89855000D02*
X90490000Y-89855000D01*
X92340000Y-89905000D02*
X92340000Y-89855000D01*
X92340000Y-91755000D02*
X92340000Y-89905000D01*
X84860000Y-115820000D02*
X84860000Y-107720000D01*
X84860000Y-115820000D02*
X87860000Y-115820000D01*
X87860000Y-107720000D02*
X84860000Y-107720000D01*
X87860000Y-107720000D02*
X87860000Y-115820000D01*
X203725000Y-102175000D02*
X203725000Y-107375000D01*
X203725000Y-107375000D02*
X209025000Y-107375000D01*
X205375000Y-102175000D02*
X203725000Y-102175000D01*
X209025000Y-102175000D02*
X207375000Y-102175000D01*
X209025000Y-107375000D02*
X209025000Y-102175000D01*
X207375000Y-102175000D02*
G75*
G02*
X205375000Y-102175000I-1000000J0D01*
G01*
X88417500Y-130405000D02*
X90417500Y-130405000D01*
X88417500Y-131655000D02*
X88417500Y-130405000D01*
X88807500Y-130795000D02*
X88807500Y-138265000D01*
X88807500Y-138265000D02*
X104267500Y-138265000D01*
X89957500Y-131755000D02*
X92957500Y-131755000D01*
X89957500Y-133105000D02*
X90707500Y-133105000D01*
X89957500Y-137405000D02*
X89957500Y-133105000D01*
X90207500Y-132755000D02*
X89957500Y-131755000D01*
X90707500Y-132755000D02*
X90207500Y-132755000D01*
X90707500Y-133105000D02*
X90707500Y-132755000D01*
X90707500Y-137405000D02*
X89957500Y-137405000D01*
X92207500Y-132755000D02*
X92207500Y-133105000D01*
X92207500Y-133105000D02*
X92957500Y-133105000D01*
X92707500Y-132755000D02*
X92207500Y-132755000D01*
X92957500Y-131755000D02*
X92707500Y-132755000D01*
X92957500Y-133105000D02*
X92957500Y-137405000D01*
X92957500Y-137405000D02*
X92207500Y-137405000D01*
X95037500Y-131755000D02*
X98037500Y-131755000D01*
X95037500Y-133105000D02*
X95787500Y-133105000D01*
X95037500Y-137405000D02*
X95037500Y-133105000D01*
X95287500Y-132755000D02*
X95037500Y-131755000D01*
X95787500Y-132755000D02*
X95287500Y-132755000D01*
X95787500Y-133105000D02*
X95787500Y-132755000D01*
X95787500Y-137405000D02*
X95037500Y-137405000D01*
X97287500Y-132755000D02*
X97287500Y-133105000D01*
X97287500Y-133105000D02*
X98037500Y-133105000D01*
X97787500Y-132755000D02*
X97287500Y-132755000D01*
X98037500Y-131755000D02*
X97787500Y-132755000D01*
X98037500Y-133105000D02*
X98037500Y-137405000D01*
X98037500Y-137405000D02*
X97287500Y-137405000D01*
X100117500Y-131755000D02*
X103117500Y-131755000D01*
X100117500Y-133105000D02*
X100867500Y-133105000D01*
X100117500Y-137405000D02*
X100117500Y-133105000D01*
X100367500Y-132755000D02*
X100117500Y-131755000D01*
X100867500Y-132755000D02*
X100367500Y-132755000D01*
X100867500Y-133105000D02*
X100867500Y-132755000D01*
X100867500Y-137405000D02*
X100117500Y-137405000D01*
X102367500Y-132755000D02*
X102367500Y-133105000D01*
X102367500Y-133105000D02*
X103117500Y-133105000D01*
X102867500Y-132755000D02*
X102367500Y-132755000D01*
X103117500Y-131755000D02*
X102867500Y-132755000D01*
X103117500Y-133105000D02*
X103117500Y-137405000D01*
X103117500Y-137405000D02*
X102367500Y-137405000D01*
X104267500Y-130795000D02*
X88807500Y-130795000D01*
X104267500Y-138265000D02*
X104267500Y-130795000D01*
X90707500Y-137405000D02*
G75*
G02*
X92207147Y-137404844I750000J-1700000D01*
G01*
X95787500Y-137405000D02*
G75*
G02*
X97287147Y-137404844I750000J-1700000D01*
G01*
X100867500Y-137405000D02*
G75*
G02*
X102367147Y-137404844I750000J-1700000D01*
G01*
X68097500Y-121515000D02*
X70097500Y-121515000D01*
X68097500Y-122765000D02*
X68097500Y-121515000D01*
X68487500Y-121905000D02*
X68487500Y-129375000D01*
X68487500Y-129375000D02*
X83947500Y-129375000D01*
X69637500Y-122865000D02*
X72637500Y-122865000D01*
X69637500Y-124215000D02*
X70387500Y-124215000D01*
X69637500Y-128515000D02*
X69637500Y-124215000D01*
X69887500Y-123865000D02*
X69637500Y-122865000D01*
X70387500Y-123865000D02*
X69887500Y-123865000D01*
X70387500Y-124215000D02*
X70387500Y-123865000D01*
X70387500Y-128515000D02*
X69637500Y-128515000D01*
X71887500Y-123865000D02*
X71887500Y-124215000D01*
X71887500Y-124215000D02*
X72637500Y-124215000D01*
X72387500Y-123865000D02*
X71887500Y-123865000D01*
X72637500Y-122865000D02*
X72387500Y-123865000D01*
X72637500Y-124215000D02*
X72637500Y-128515000D01*
X72637500Y-128515000D02*
X71887500Y-128515000D01*
X74717500Y-122865000D02*
X77717500Y-122865000D01*
X74717500Y-124215000D02*
X75467500Y-124215000D01*
X74717500Y-128515000D02*
X74717500Y-124215000D01*
X74967500Y-123865000D02*
X74717500Y-122865000D01*
X75467500Y-123865000D02*
X74967500Y-123865000D01*
X75467500Y-124215000D02*
X75467500Y-123865000D01*
X75467500Y-128515000D02*
X74717500Y-128515000D01*
X76967500Y-123865000D02*
X76967500Y-124215000D01*
X76967500Y-124215000D02*
X77717500Y-124215000D01*
X77467500Y-123865000D02*
X76967500Y-123865000D01*
X77717500Y-122865000D02*
X77467500Y-123865000D01*
X77717500Y-124215000D02*
X77717500Y-128515000D01*
X77717500Y-128515000D02*
X76967500Y-128515000D01*
X79797500Y-122865000D02*
X82797500Y-122865000D01*
X79797500Y-124215000D02*
X80547500Y-124215000D01*
X79797500Y-128515000D02*
X79797500Y-124215000D01*
X80047500Y-123865000D02*
X79797500Y-122865000D01*
X80547500Y-123865000D02*
X80047500Y-123865000D01*
X80547500Y-124215000D02*
X80547500Y-123865000D01*
X80547500Y-128515000D02*
X79797500Y-128515000D01*
X82047500Y-123865000D02*
X82047500Y-124215000D01*
X82047500Y-124215000D02*
X82797500Y-124215000D01*
X82547500Y-123865000D02*
X82047500Y-123865000D01*
X82797500Y-122865000D02*
X82547500Y-123865000D01*
X82797500Y-124215000D02*
X82797500Y-128515000D01*
X82797500Y-128515000D02*
X82047500Y-128515000D01*
X83947500Y-121905000D02*
X68487500Y-121905000D01*
X83947500Y-129375000D02*
X83947500Y-121905000D01*
X70387500Y-128515000D02*
G75*
G02*
X71887147Y-128514844I750000J-1700000D01*
G01*
X75467500Y-128515000D02*
G75*
G02*
X76967147Y-128514844I750000J-1700000D01*
G01*
X80547500Y-128515000D02*
G75*
G02*
X82047147Y-128514844I750000J-1700000D01*
G01*
X207780000Y-52685000D02*
X207780000Y-48585000D01*
X216380000Y-48585000D02*
X207780000Y-48585000D01*
X216380000Y-52685000D02*
X207780000Y-52685000D01*
X216380000Y-52685000D02*
X216380000Y-48585000D01*
X166690000Y-74615000D02*
X166690000Y-76515000D01*
X166690000Y-76515000D02*
X168540000Y-76515000D01*
X168540000Y-74615000D02*
X166690000Y-74615000D01*
X168540000Y-74665000D02*
X168540000Y-74615000D01*
X168540000Y-76515000D02*
X168540000Y-74665000D01*
X64540000Y-115820000D02*
X64540000Y-107720000D01*
X64540000Y-115820000D02*
X67540000Y-115820000D01*
X67540000Y-107720000D02*
X64540000Y-107720000D01*
X67540000Y-107720000D02*
X67540000Y-115820000D01*
X169680000Y-130405000D02*
X171680000Y-130405000D01*
X169680000Y-131655000D02*
X169680000Y-130405000D01*
X170070000Y-130795000D02*
X170070000Y-138265000D01*
X170070000Y-138265000D02*
X190610000Y-138265000D01*
X171220000Y-131755000D02*
X174220000Y-131755000D01*
X171220000Y-133105000D02*
X171970000Y-133105000D01*
X171220000Y-137405000D02*
X171220000Y-133105000D01*
X171470000Y-132755000D02*
X171220000Y-131755000D01*
X171970000Y-132755000D02*
X171470000Y-132755000D01*
X171970000Y-133105000D02*
X171970000Y-132755000D01*
X171970000Y-137405000D02*
X171220000Y-137405000D01*
X173470000Y-132755000D02*
X173470000Y-133105000D01*
X173470000Y-133105000D02*
X174220000Y-133105000D01*
X173970000Y-132755000D02*
X173470000Y-132755000D01*
X174220000Y-131755000D02*
X173970000Y-132755000D01*
X174220000Y-133105000D02*
X174220000Y-137405000D01*
X174220000Y-137405000D02*
X173470000Y-137405000D01*
X176300000Y-131755000D02*
X179300000Y-131755000D01*
X176300000Y-133105000D02*
X177050000Y-133105000D01*
X176300000Y-137405000D02*
X176300000Y-133105000D01*
X176550000Y-132755000D02*
X176300000Y-131755000D01*
X177050000Y-132755000D02*
X176550000Y-132755000D01*
X177050000Y-133105000D02*
X177050000Y-132755000D01*
X177050000Y-137405000D02*
X176300000Y-137405000D01*
X178550000Y-132755000D02*
X178550000Y-133105000D01*
X178550000Y-133105000D02*
X179300000Y-133105000D01*
X179050000Y-132755000D02*
X178550000Y-132755000D01*
X179300000Y-131755000D02*
X179050000Y-132755000D01*
X179300000Y-133105000D02*
X179300000Y-137405000D01*
X179300000Y-137405000D02*
X178550000Y-137405000D01*
X181380000Y-131755000D02*
X184380000Y-131755000D01*
X181380000Y-133105000D02*
X182130000Y-133105000D01*
X181380000Y-137405000D02*
X181380000Y-133105000D01*
X181630000Y-132755000D02*
X181380000Y-131755000D01*
X182130000Y-132755000D02*
X181630000Y-132755000D01*
X182130000Y-133105000D02*
X182130000Y-132755000D01*
X182130000Y-137405000D02*
X181380000Y-137405000D01*
X183630000Y-132755000D02*
X183630000Y-133105000D01*
X183630000Y-133105000D02*
X184380000Y-133105000D01*
X184130000Y-132755000D02*
X183630000Y-132755000D01*
X184380000Y-131755000D02*
X184130000Y-132755000D01*
X184380000Y-133105000D02*
X184380000Y-137405000D01*
X184380000Y-137405000D02*
X183630000Y-137405000D01*
X186460000Y-131755000D02*
X189460000Y-131755000D01*
X186460000Y-133105000D02*
X187210000Y-133105000D01*
X186460000Y-137405000D02*
X186460000Y-133105000D01*
X186710000Y-132755000D02*
X186460000Y-131755000D01*
X187210000Y-132755000D02*
X186710000Y-132755000D01*
X187210000Y-133105000D02*
X187210000Y-132755000D01*
X187210000Y-137405000D02*
X186460000Y-137405000D01*
X188710000Y-132755000D02*
X188710000Y-133105000D01*
X188710000Y-133105000D02*
X189460000Y-133105000D01*
X189210000Y-132755000D02*
X188710000Y-132755000D01*
X189460000Y-131755000D02*
X189210000Y-132755000D01*
X189460000Y-133105000D02*
X189460000Y-137405000D01*
X189460000Y-137405000D02*
X188710000Y-137405000D01*
X190610000Y-130795000D02*
X170070000Y-130795000D01*
X190610000Y-138265000D02*
X190610000Y-130795000D01*
X171970000Y-137405000D02*
G75*
G02*
X173469647Y-137404844I750000J-1700000D01*
G01*
X177050000Y-137405000D02*
G75*
G02*
X178549647Y-137404844I750000J-1700000D01*
G01*
X182130000Y-137405000D02*
G75*
G02*
X183629647Y-137404844I750000J-1700000D01*
G01*
X187210000Y-137405000D02*
G75*
G02*
X188709647Y-137404844I750000J-1700000D01*
G01*
X166690000Y-87315000D02*
X166690000Y-89215000D01*
X166690000Y-89215000D02*
X168540000Y-89215000D01*
X168540000Y-87315000D02*
X166690000Y-87315000D01*
X168540000Y-87365000D02*
X168540000Y-87315000D01*
X168540000Y-89215000D02*
X168540000Y-87365000D01*
X68097500Y-130405000D02*
X70097500Y-130405000D01*
X68097500Y-131655000D02*
X68097500Y-130405000D01*
X68487500Y-130795000D02*
X68487500Y-138265000D01*
X68487500Y-138265000D02*
X83947500Y-138265000D01*
X69637500Y-131755000D02*
X72637500Y-131755000D01*
X69637500Y-133105000D02*
X70387500Y-133105000D01*
X69637500Y-137405000D02*
X69637500Y-133105000D01*
X69887500Y-132755000D02*
X69637500Y-131755000D01*
X70387500Y-132755000D02*
X69887500Y-132755000D01*
X70387500Y-133105000D02*
X70387500Y-132755000D01*
X70387500Y-137405000D02*
X69637500Y-137405000D01*
X71887500Y-132755000D02*
X71887500Y-133105000D01*
X71887500Y-133105000D02*
X72637500Y-133105000D01*
X72387500Y-132755000D02*
X71887500Y-132755000D01*
X72637500Y-131755000D02*
X72387500Y-132755000D01*
X72637500Y-133105000D02*
X72637500Y-137405000D01*
X72637500Y-137405000D02*
X71887500Y-137405000D01*
X74717500Y-131755000D02*
X77717500Y-131755000D01*
X74717500Y-133105000D02*
X75467500Y-133105000D01*
X74717500Y-137405000D02*
X74717500Y-133105000D01*
X74967500Y-132755000D02*
X74717500Y-131755000D01*
X75467500Y-132755000D02*
X74967500Y-132755000D01*
X75467500Y-133105000D02*
X75467500Y-132755000D01*
X75467500Y-137405000D02*
X74717500Y-137405000D01*
X76967500Y-132755000D02*
X76967500Y-133105000D01*
X76967500Y-133105000D02*
X77717500Y-133105000D01*
X77467500Y-132755000D02*
X76967500Y-132755000D01*
X77717500Y-131755000D02*
X77467500Y-132755000D01*
X77717500Y-133105000D02*
X77717500Y-137405000D01*
X77717500Y-137405000D02*
X76967500Y-137405000D01*
X79797500Y-131755000D02*
X82797500Y-131755000D01*
X79797500Y-133105000D02*
X80547500Y-133105000D01*
X79797500Y-137405000D02*
X79797500Y-133105000D01*
X80047500Y-132755000D02*
X79797500Y-131755000D01*
X80547500Y-132755000D02*
X80047500Y-132755000D01*
X80547500Y-133105000D02*
X80547500Y-132755000D01*
X80547500Y-137405000D02*
X79797500Y-137405000D01*
X82047500Y-132755000D02*
X82047500Y-133105000D01*
X82047500Y-133105000D02*
X82797500Y-133105000D01*
X82547500Y-132755000D02*
X82047500Y-132755000D01*
X82797500Y-131755000D02*
X82547500Y-132755000D01*
X82797500Y-133105000D02*
X82797500Y-137405000D01*
X82797500Y-137405000D02*
X82047500Y-137405000D01*
X83947500Y-130795000D02*
X68487500Y-130795000D01*
X83947500Y-138265000D02*
X83947500Y-130795000D01*
X70387500Y-137405000D02*
G75*
G02*
X71887147Y-137404844I750000J-1700000D01*
G01*
X75467500Y-137405000D02*
G75*
G02*
X76967147Y-137404844I750000J-1700000D01*
G01*
X80547500Y-137405000D02*
G75*
G02*
X82047147Y-137404844I750000J-1700000D01*
G01*
X105197500Y-115820000D02*
X105197500Y-107720000D01*
X105197500Y-115820000D02*
X108197500Y-115820000D01*
X108197500Y-107720000D02*
X105197500Y-107720000D01*
X108197500Y-107720000D02*
X108197500Y-115820000D01*
X182780000Y-102170000D02*
X182780000Y-107370000D01*
X182780000Y-107370000D02*
X188080000Y-107370000D01*
X184430000Y-102170000D02*
X182780000Y-102170000D01*
X188080000Y-102170000D02*
X186430000Y-102170000D01*
X188080000Y-107370000D02*
X188080000Y-102170000D01*
X186430000Y-102170000D02*
G75*
G02*
X184430000Y-102170000I-1000000J0D01*
G01*
X143830000Y-89855000D02*
X143830000Y-91755000D01*
X143830000Y-91755000D02*
X145680000Y-91755000D01*
X145680000Y-89855000D02*
X143830000Y-89855000D01*
X145680000Y-89905000D02*
X145680000Y-89855000D01*
X145680000Y-91755000D02*
X145680000Y-89905000D01*
X173390000Y-54800000D02*
X177130000Y-54800000D01*
X173390000Y-62040000D02*
X173390000Y-54800000D01*
X173390000Y-62040000D02*
X177130000Y-62040000D01*
X177130000Y-62040000D02*
X177130000Y-54800000D01*
X108737500Y-130405000D02*
X110737500Y-130405000D01*
X108737500Y-131655000D02*
X108737500Y-130405000D01*
X109127500Y-130795000D02*
X109127500Y-138265000D01*
X109127500Y-138265000D02*
X124587500Y-138265000D01*
X110277500Y-131755000D02*
X113277500Y-131755000D01*
X110277500Y-133105000D02*
X111027500Y-133105000D01*
X110277500Y-137405000D02*
X110277500Y-133105000D01*
X110527500Y-132755000D02*
X110277500Y-131755000D01*
X111027500Y-132755000D02*
X110527500Y-132755000D01*
X111027500Y-133105000D02*
X111027500Y-132755000D01*
X111027500Y-137405000D02*
X110277500Y-137405000D01*
X112527500Y-132755000D02*
X112527500Y-133105000D01*
X112527500Y-133105000D02*
X113277500Y-133105000D01*
X113027500Y-132755000D02*
X112527500Y-132755000D01*
X113277500Y-131755000D02*
X113027500Y-132755000D01*
X113277500Y-133105000D02*
X113277500Y-137405000D01*
X113277500Y-137405000D02*
X112527500Y-137405000D01*
X115357500Y-131755000D02*
X118357500Y-131755000D01*
X115357500Y-133105000D02*
X116107500Y-133105000D01*
X115357500Y-137405000D02*
X115357500Y-133105000D01*
X115607500Y-132755000D02*
X115357500Y-131755000D01*
X116107500Y-132755000D02*
X115607500Y-132755000D01*
X116107500Y-133105000D02*
X116107500Y-132755000D01*
X116107500Y-137405000D02*
X115357500Y-137405000D01*
X117607500Y-132755000D02*
X117607500Y-133105000D01*
X117607500Y-133105000D02*
X118357500Y-133105000D01*
X118107500Y-132755000D02*
X117607500Y-132755000D01*
X118357500Y-131755000D02*
X118107500Y-132755000D01*
X118357500Y-133105000D02*
X118357500Y-137405000D01*
X118357500Y-137405000D02*
X117607500Y-137405000D01*
X120437500Y-131755000D02*
X123437500Y-131755000D01*
X120437500Y-133105000D02*
X121187500Y-133105000D01*
X120437500Y-137405000D02*
X120437500Y-133105000D01*
X120687500Y-132755000D02*
X120437500Y-131755000D01*
X121187500Y-132755000D02*
X120687500Y-132755000D01*
X121187500Y-133105000D02*
X121187500Y-132755000D01*
X121187500Y-137405000D02*
X120437500Y-137405000D01*
X122687500Y-132755000D02*
X122687500Y-133105000D01*
X122687500Y-133105000D02*
X123437500Y-133105000D01*
X123187500Y-132755000D02*
X122687500Y-132755000D01*
X123437500Y-131755000D02*
X123187500Y-132755000D01*
X123437500Y-133105000D02*
X123437500Y-137405000D01*
X123437500Y-137405000D02*
X122687500Y-137405000D01*
X124587500Y-130795000D02*
X109127500Y-130795000D01*
X124587500Y-138265000D02*
X124587500Y-130795000D01*
X111027500Y-137405000D02*
G75*
G02*
X112527147Y-137404844I750000J-1700000D01*
G01*
X116107500Y-137405000D02*
G75*
G02*
X117607147Y-137404844I750000J-1700000D01*
G01*
X121187500Y-137405000D02*
G75*
G02*
X122687147Y-137404844I750000J-1700000D01*
G01*
X178840000Y-111125000D02*
X180800000Y-111125000D01*
X180800000Y-109405000D02*
X180800000Y-112845000D01*
X180800000Y-112845000D02*
X190040000Y-112845000D01*
X190040000Y-109405000D02*
X180800000Y-109405000D01*
X190040000Y-112845000D02*
X190040000Y-109405000D01*
X192000000Y-111125000D02*
X190040000Y-111125000D01*
X166690000Y-64455000D02*
X166690000Y-66355000D01*
X166690000Y-66355000D02*
X168540000Y-66355000D01*
X168540000Y-64455000D02*
X166690000Y-64455000D01*
X168540000Y-64505000D02*
X168540000Y-64455000D01*
X168540000Y-66355000D02*
X168540000Y-64505000D01*
X166690000Y-66995000D02*
X166690000Y-68895000D01*
X166690000Y-68895000D02*
X168540000Y-68895000D01*
X168540000Y-66995000D02*
X166690000Y-66995000D01*
X168540000Y-67045000D02*
X168540000Y-66995000D01*
X168540000Y-68895000D02*
X168540000Y-67045000D01*
X92797500Y-94615000D02*
X93817500Y-94615000D01*
X93817500Y-93145000D02*
X93817500Y-96085000D01*
X93817500Y-96085000D02*
X99257500Y-96085000D01*
X98237500Y-96085000D02*
X98237500Y-93145000D01*
X98357500Y-96085000D02*
X98357500Y-93145000D01*
X98477500Y-96085000D02*
X98477500Y-93145000D01*
X99257500Y-93145000D02*
X93817500Y-93145000D01*
X99257500Y-96085000D02*
X99257500Y-93145000D01*
X100277500Y-94615000D02*
X99257500Y-94615000D01*
X213995000Y-123505000D02*
X213995000Y-125165000D01*
X215915000Y-121585000D02*
G75*
G02*
X212075000Y-121585000I-1920000J0D01*
G01*
X212075000Y-121585000D02*
G75*
G02*
X215915000Y-121585000I1920000J0D01*
G01*
%LPC*%
D12*
X198755000Y-111125000D03*
D13*
X213995000Y-111125000D03*
D14*
X68580000Y-65405000D03*
X68580000Y-60325000D03*
D15*
X198755000Y-117475000D03*
D16*
X198755000Y-127635000D03*
D17*
X174460000Y-105420000D03*
X176060000Y-100320000D03*
D18*
X167640000Y-78105000D03*
D14*
X68580000Y-62865000D03*
D15*
X81297500Y-94615000D03*
D16*
X71137500Y-94615000D03*
D15*
X177800000Y-117475000D03*
D16*
X177800000Y-127635000D03*
D14*
X68580000Y-67945000D03*
D19*
X213360000Y-95885000D03*
D20*
X213360000Y-90805000D03*
X213360000Y-85725000D03*
X213360000Y-80645000D03*
X213360000Y-75565000D03*
X213360000Y-70485000D03*
X213360000Y-65405000D03*
X213360000Y-60325000D03*
D21*
X152400000Y-135255000D03*
D22*
X157480000Y-135255000D03*
X162560000Y-135255000D03*
D18*
X111760000Y-90805000D03*
D23*
X170815000Y-48895000D03*
D24*
X173355000Y-48895000D03*
X175895000Y-48895000D03*
D12*
X187920000Y-122555000D03*
X182920000Y-122555000D03*
X208835000Y-122555000D03*
X203835000Y-122555000D03*
D14*
X68580000Y-73025000D03*
D18*
X167640000Y-83185000D03*
D25*
X96537500Y-100965000D03*
D26*
X90537500Y-102965000D03*
X90537500Y-115165000D03*
X102537500Y-115165000D03*
X102537500Y-102965000D03*
D27*
X167640000Y-124935000D03*
X167640000Y-117665000D03*
D28*
X167640000Y-108585000D03*
X167640000Y-101315000D03*
D21*
X132088750Y-126365000D03*
D22*
X137168750Y-126365000D03*
X142248750Y-126365000D03*
D18*
X157480000Y-57785000D03*
D29*
X161000000Y-54000000D03*
D21*
X132088750Y-135255000D03*
D22*
X137168750Y-135255000D03*
X142248750Y-135255000D03*
D12*
X203160000Y-49715000D03*
X198160000Y-49715000D03*
D14*
X68580000Y-75565000D03*
D18*
X157480000Y-50165000D03*
D15*
X121955000Y-94615000D03*
D16*
X111795000Y-94615000D03*
D18*
X167640000Y-85725000D03*
D30*
X193040000Y-121585000D03*
D31*
X193040000Y-126665000D03*
D14*
X68580000Y-85725000D03*
D18*
X167640000Y-73025000D03*
D29*
X67100000Y-54000000D03*
D14*
X68580000Y-88265000D03*
D25*
X116875000Y-100965000D03*
D26*
X110875000Y-102965000D03*
X110875000Y-115165000D03*
X122875000Y-115165000D03*
X122875000Y-102965000D03*
D25*
X76200000Y-100965000D03*
D26*
X70200000Y-102965000D03*
X70200000Y-115165000D03*
X82200000Y-115165000D03*
X82200000Y-102965000D03*
D25*
X137160000Y-100965000D03*
D26*
X131160000Y-102965000D03*
X131160000Y-115165000D03*
X143160000Y-115165000D03*
X143160000Y-102965000D03*
D14*
X68580000Y-78105000D03*
D18*
X71120000Y-90805000D03*
D27*
X156845000Y-124840000D03*
X156845000Y-117570000D03*
D28*
X156845000Y-108490000D03*
X156845000Y-101220000D03*
D18*
X167640000Y-80645000D03*
D32*
X180340000Y-57785000D03*
D33*
X180340000Y-55245000D03*
D21*
X91457500Y-126365000D03*
D22*
X96537500Y-126365000D03*
X101617500Y-126365000D03*
D34*
X127000000Y-109220000D03*
D35*
X127000000Y-114300000D03*
D29*
X220500000Y-142000000D03*
D18*
X167640000Y-70485000D03*
X142240000Y-90805000D03*
D21*
X111777500Y-126365000D03*
D22*
X116857500Y-126365000D03*
X121937500Y-126365000D03*
D14*
X68580000Y-83185000D03*
X157480000Y-62865000D03*
X160020000Y-62865000D03*
X162560000Y-62865000D03*
X165100000Y-62865000D03*
X157480000Y-65405000D03*
X160020000Y-65405000D03*
X162560000Y-65405000D03*
X165100000Y-65405000D03*
X157480000Y-67945000D03*
X160020000Y-67945000D03*
X162560000Y-67945000D03*
X165100000Y-67945000D03*
X157480000Y-70485000D03*
X160020000Y-70485000D03*
X162560000Y-70485000D03*
X165100000Y-70485000D03*
X157480000Y-73025000D03*
X160020000Y-73025000D03*
X162560000Y-73025000D03*
X165100000Y-73025000D03*
X157480000Y-75565000D03*
X160020000Y-75565000D03*
X162560000Y-75565000D03*
X165100000Y-75565000D03*
X157480000Y-78105000D03*
X160020000Y-78105000D03*
X162560000Y-78105000D03*
X165100000Y-78105000D03*
X157480000Y-80645000D03*
X160020000Y-80645000D03*
X162560000Y-80645000D03*
X165100000Y-80645000D03*
X157480000Y-83185000D03*
X160020000Y-83185000D03*
X71120000Y-45085000D03*
X162560000Y-83185000D03*
X73660000Y-45085000D03*
X165100000Y-83185000D03*
X76200000Y-45085000D03*
X157480000Y-85725000D03*
X78740000Y-45085000D03*
X160020000Y-85725000D03*
X81280000Y-45085000D03*
X162560000Y-85725000D03*
X83820000Y-45085000D03*
X165100000Y-85725000D03*
X86360000Y-45085000D03*
X157480000Y-88265000D03*
X88900000Y-45085000D03*
X160020000Y-88265000D03*
X91440000Y-45085000D03*
X162560000Y-88265000D03*
X93980000Y-45085000D03*
X165100000Y-88265000D03*
X96520000Y-45085000D03*
X99060000Y-45085000D03*
X101600000Y-45085000D03*
X104140000Y-45085000D03*
X106680000Y-45085000D03*
X109220000Y-45085000D03*
X111760000Y-45085000D03*
X114300000Y-45085000D03*
X116840000Y-45085000D03*
X119380000Y-45085000D03*
X121920000Y-45085000D03*
X124460000Y-45085000D03*
X127000000Y-45085000D03*
X129540000Y-45085000D03*
X132080000Y-45085000D03*
X134620000Y-45085000D03*
X137160000Y-45085000D03*
X139700000Y-45085000D03*
X142240000Y-45085000D03*
X144780000Y-45085000D03*
X147320000Y-45085000D03*
X149860000Y-45085000D03*
X152400000Y-45085000D03*
X154940000Y-45085000D03*
X71120000Y-47625000D03*
X73660000Y-47625000D03*
X76200000Y-47625000D03*
X78740000Y-47625000D03*
X81280000Y-47625000D03*
X83820000Y-47625000D03*
X86360000Y-47625000D03*
X88900000Y-47625000D03*
X91440000Y-47625000D03*
X93980000Y-47625000D03*
X96520000Y-47625000D03*
X99060000Y-47625000D03*
X101600000Y-47625000D03*
X104140000Y-47625000D03*
X106680000Y-47625000D03*
X109220000Y-47625000D03*
X111760000Y-47625000D03*
X114300000Y-47625000D03*
X116840000Y-47625000D03*
X119380000Y-47625000D03*
X121920000Y-47625000D03*
X124460000Y-47625000D03*
X127000000Y-47625000D03*
X129540000Y-47625000D03*
X132080000Y-47625000D03*
X134620000Y-47625000D03*
X137160000Y-47625000D03*
X139700000Y-47625000D03*
X142240000Y-47625000D03*
X144780000Y-47625000D03*
X147320000Y-47625000D03*
X149860000Y-47625000D03*
X152400000Y-47625000D03*
X154940000Y-47625000D03*
X71120000Y-50165000D03*
X73660000Y-50165000D03*
X76200000Y-50165000D03*
X78740000Y-50165000D03*
X81280000Y-50165000D03*
X83820000Y-50165000D03*
X86360000Y-50165000D03*
X88900000Y-50165000D03*
X91440000Y-50165000D03*
X93980000Y-50165000D03*
X96520000Y-50165000D03*
X99060000Y-50165000D03*
X101600000Y-50165000D03*
X104140000Y-50165000D03*
X106680000Y-50165000D03*
X109220000Y-50165000D03*
X111760000Y-50165000D03*
X114300000Y-50165000D03*
X116840000Y-50165000D03*
X119380000Y-50165000D03*
X121920000Y-50165000D03*
X124460000Y-50165000D03*
X127000000Y-50165000D03*
X129540000Y-50165000D03*
X132080000Y-50165000D03*
X134620000Y-50165000D03*
X137160000Y-50165000D03*
X139700000Y-50165000D03*
X142240000Y-50165000D03*
X144780000Y-50165000D03*
X147320000Y-50165000D03*
X149860000Y-50165000D03*
X152400000Y-50165000D03*
X154940000Y-50165000D03*
X71120000Y-52705000D03*
X73660000Y-52705000D03*
X76200000Y-52705000D03*
X78740000Y-52705000D03*
X81280000Y-52705000D03*
X83820000Y-52705000D03*
X86360000Y-52705000D03*
X88900000Y-52705000D03*
X91440000Y-52705000D03*
X93980000Y-52705000D03*
X96520000Y-52705000D03*
X99060000Y-52705000D03*
X101600000Y-52705000D03*
X104140000Y-52705000D03*
X106680000Y-52705000D03*
X109220000Y-52705000D03*
X111760000Y-52705000D03*
X114300000Y-52705000D03*
X116840000Y-52705000D03*
X119380000Y-52705000D03*
X121920000Y-52705000D03*
X124460000Y-52705000D03*
X127000000Y-52705000D03*
X129540000Y-52705000D03*
X132080000Y-52705000D03*
X134620000Y-52705000D03*
X137160000Y-52705000D03*
X139700000Y-52705000D03*
X142240000Y-52705000D03*
X144780000Y-52705000D03*
X147320000Y-52705000D03*
X149860000Y-52705000D03*
X152400000Y-52705000D03*
X154940000Y-52705000D03*
X71120000Y-55245000D03*
X73660000Y-55245000D03*
X76200000Y-55245000D03*
X78740000Y-55245000D03*
X81280000Y-55245000D03*
X83820000Y-55245000D03*
X86360000Y-55245000D03*
X88900000Y-55245000D03*
X91440000Y-55245000D03*
X93980000Y-55245000D03*
X96520000Y-55245000D03*
X99060000Y-55245000D03*
X101600000Y-55245000D03*
X104140000Y-55245000D03*
X106680000Y-55245000D03*
X109220000Y-55245000D03*
X111760000Y-55245000D03*
X114300000Y-55245000D03*
X116840000Y-55245000D03*
X119380000Y-55245000D03*
X121920000Y-55245000D03*
X124460000Y-55245000D03*
X127000000Y-55245000D03*
X129540000Y-55245000D03*
X132080000Y-55245000D03*
X134620000Y-55245000D03*
X137160000Y-55245000D03*
X139700000Y-55245000D03*
X142240000Y-55245000D03*
X144780000Y-55245000D03*
X147320000Y-55245000D03*
X149860000Y-55245000D03*
X152400000Y-55245000D03*
X154940000Y-55245000D03*
X71120000Y-57785000D03*
X73660000Y-57785000D03*
X76200000Y-57785000D03*
X78740000Y-57785000D03*
X81280000Y-57785000D03*
X83820000Y-57785000D03*
X86360000Y-57785000D03*
X88900000Y-57785000D03*
X91440000Y-57785000D03*
X93980000Y-57785000D03*
X96520000Y-57785000D03*
X99060000Y-57785000D03*
X101600000Y-57785000D03*
X104140000Y-57785000D03*
X106680000Y-57785000D03*
X109220000Y-57785000D03*
X111760000Y-57785000D03*
X114300000Y-57785000D03*
X116840000Y-57785000D03*
X119380000Y-57785000D03*
X121920000Y-57785000D03*
X124460000Y-57785000D03*
X127000000Y-57785000D03*
X129540000Y-57785000D03*
X132080000Y-57785000D03*
X134620000Y-57785000D03*
X137160000Y-57785000D03*
X139700000Y-57785000D03*
X142240000Y-57785000D03*
X144780000Y-57785000D03*
X147320000Y-57785000D03*
X149860000Y-57785000D03*
X152400000Y-57785000D03*
X154940000Y-57785000D03*
X71120000Y-60325000D03*
X73660000Y-60325000D03*
X76200000Y-60325000D03*
X78740000Y-60325000D03*
X81280000Y-60325000D03*
X83820000Y-60325000D03*
X86360000Y-60325000D03*
X88900000Y-60325000D03*
X91440000Y-60325000D03*
X93980000Y-60325000D03*
X96520000Y-60325000D03*
X99060000Y-60325000D03*
X101600000Y-60325000D03*
X104140000Y-60325000D03*
X106680000Y-60325000D03*
X109220000Y-60325000D03*
X111760000Y-60325000D03*
X114300000Y-60325000D03*
X116840000Y-60325000D03*
X119380000Y-60325000D03*
X121920000Y-60325000D03*
X124460000Y-60325000D03*
X127000000Y-60325000D03*
X129540000Y-60325000D03*
X132080000Y-60325000D03*
X134620000Y-60325000D03*
X137160000Y-60325000D03*
X139700000Y-60325000D03*
X142240000Y-60325000D03*
X144780000Y-60325000D03*
X147320000Y-60325000D03*
X149860000Y-60325000D03*
X152400000Y-60325000D03*
X154940000Y-60325000D03*
X71120000Y-62865000D03*
X73660000Y-62865000D03*
X76200000Y-62865000D03*
X78740000Y-62865000D03*
X81280000Y-62865000D03*
X83820000Y-62865000D03*
X86360000Y-62865000D03*
X88900000Y-62865000D03*
X91440000Y-62865000D03*
X93980000Y-62865000D03*
X96520000Y-62865000D03*
X99060000Y-62865000D03*
X101600000Y-62865000D03*
X104140000Y-62865000D03*
X106680000Y-62865000D03*
X109220000Y-62865000D03*
X111760000Y-62865000D03*
X114300000Y-62865000D03*
X116840000Y-62865000D03*
X119380000Y-62865000D03*
X121920000Y-62865000D03*
X124460000Y-62865000D03*
X127000000Y-62865000D03*
X129540000Y-62865000D03*
X132080000Y-62865000D03*
X134620000Y-62865000D03*
X137160000Y-62865000D03*
X139700000Y-62865000D03*
X142240000Y-62865000D03*
X144780000Y-62865000D03*
X147320000Y-62865000D03*
X149860000Y-62865000D03*
X152400000Y-62865000D03*
X154940000Y-62865000D03*
X71120000Y-65405000D03*
X73660000Y-65405000D03*
X76200000Y-65405000D03*
X78740000Y-65405000D03*
X81280000Y-65405000D03*
X83820000Y-65405000D03*
X86360000Y-65405000D03*
X88900000Y-65405000D03*
X91440000Y-65405000D03*
X93980000Y-65405000D03*
X96520000Y-65405000D03*
X99060000Y-65405000D03*
X101600000Y-65405000D03*
X104140000Y-65405000D03*
X106680000Y-65405000D03*
X109220000Y-65405000D03*
X111760000Y-65405000D03*
X114300000Y-65405000D03*
X116840000Y-65405000D03*
X119380000Y-65405000D03*
X121920000Y-65405000D03*
X124460000Y-65405000D03*
X127000000Y-65405000D03*
X129540000Y-65405000D03*
X132080000Y-65405000D03*
X134620000Y-65405000D03*
X137160000Y-65405000D03*
X139700000Y-65405000D03*
X142240000Y-65405000D03*
X144780000Y-65405000D03*
X147320000Y-65405000D03*
X149860000Y-65405000D03*
X152400000Y-65405000D03*
X154940000Y-65405000D03*
X71120000Y-67945000D03*
X73660000Y-67945000D03*
X76200000Y-67945000D03*
X78740000Y-67945000D03*
X81280000Y-67945000D03*
X83820000Y-67945000D03*
X86360000Y-67945000D03*
X88900000Y-67945000D03*
X91440000Y-67945000D03*
X93980000Y-67945000D03*
X96520000Y-67945000D03*
X99060000Y-67945000D03*
X101600000Y-67945000D03*
X104140000Y-67945000D03*
X106680000Y-67945000D03*
X109220000Y-67945000D03*
X111760000Y-67945000D03*
X114300000Y-67945000D03*
X116840000Y-67945000D03*
X119380000Y-67945000D03*
X121920000Y-67945000D03*
X124460000Y-67945000D03*
X127000000Y-67945000D03*
X129540000Y-67945000D03*
X132080000Y-67945000D03*
X134620000Y-67945000D03*
X137160000Y-67945000D03*
X139700000Y-67945000D03*
X142240000Y-67945000D03*
X144780000Y-67945000D03*
X147320000Y-67945000D03*
X149860000Y-67945000D03*
X152400000Y-67945000D03*
X154940000Y-67945000D03*
X71120000Y-70485000D03*
X73660000Y-70485000D03*
X76200000Y-70485000D03*
X78740000Y-70485000D03*
X81280000Y-70485000D03*
X83820000Y-70485000D03*
X86360000Y-70485000D03*
X88900000Y-70485000D03*
X91440000Y-70485000D03*
X93980000Y-70485000D03*
X96520000Y-70485000D03*
X99060000Y-70485000D03*
X101600000Y-70485000D03*
X104140000Y-70485000D03*
X106680000Y-70485000D03*
X109220000Y-70485000D03*
X111760000Y-70485000D03*
X114300000Y-70485000D03*
X116840000Y-70485000D03*
X119380000Y-70485000D03*
X121920000Y-70485000D03*
X124460000Y-70485000D03*
X127000000Y-70485000D03*
X129540000Y-70485000D03*
X132080000Y-70485000D03*
X134620000Y-70485000D03*
X137160000Y-70485000D03*
X139700000Y-70485000D03*
X142240000Y-70485000D03*
X144780000Y-70485000D03*
X147320000Y-70485000D03*
X149860000Y-70485000D03*
X152400000Y-70485000D03*
X154940000Y-70485000D03*
X71120000Y-73025000D03*
X73660000Y-73025000D03*
X76200000Y-73025000D03*
X78740000Y-73025000D03*
X81280000Y-73025000D03*
X83820000Y-73025000D03*
X86360000Y-73025000D03*
X88900000Y-73025000D03*
X91440000Y-73025000D03*
X93980000Y-73025000D03*
X96520000Y-73025000D03*
X99060000Y-73025000D03*
X101600000Y-73025000D03*
X104140000Y-73025000D03*
X106680000Y-73025000D03*
X109220000Y-73025000D03*
X111760000Y-73025000D03*
X114300000Y-73025000D03*
X116840000Y-73025000D03*
X119380000Y-73025000D03*
X121920000Y-73025000D03*
X124460000Y-73025000D03*
X127000000Y-73025000D03*
X129540000Y-73025000D03*
X132080000Y-73025000D03*
X134620000Y-73025000D03*
X137160000Y-73025000D03*
X139700000Y-73025000D03*
X142240000Y-73025000D03*
X144780000Y-73025000D03*
X147320000Y-73025000D03*
X149860000Y-73025000D03*
X152400000Y-73025000D03*
X154940000Y-73025000D03*
X71120000Y-75565000D03*
X73660000Y-75565000D03*
X76200000Y-75565000D03*
X78740000Y-75565000D03*
X81280000Y-75565000D03*
X83820000Y-75565000D03*
X86360000Y-75565000D03*
X88900000Y-75565000D03*
X91440000Y-75565000D03*
X93980000Y-75565000D03*
X96520000Y-75565000D03*
X99060000Y-75565000D03*
X101600000Y-75565000D03*
X104140000Y-75565000D03*
X106680000Y-75565000D03*
X109220000Y-75565000D03*
X111760000Y-75565000D03*
X114300000Y-75565000D03*
X116840000Y-75565000D03*
X119380000Y-75565000D03*
X121920000Y-75565000D03*
X124460000Y-75565000D03*
X127000000Y-75565000D03*
X129540000Y-75565000D03*
X132080000Y-75565000D03*
X134620000Y-75565000D03*
X137160000Y-75565000D03*
X139700000Y-75565000D03*
X142240000Y-75565000D03*
X144780000Y-75565000D03*
X147320000Y-75565000D03*
X149860000Y-75565000D03*
X152400000Y-75565000D03*
X154940000Y-75565000D03*
X71120000Y-78105000D03*
X73660000Y-78105000D03*
X76200000Y-78105000D03*
X78740000Y-78105000D03*
X81280000Y-78105000D03*
X83820000Y-78105000D03*
X86360000Y-78105000D03*
X88900000Y-78105000D03*
X91440000Y-78105000D03*
X93980000Y-78105000D03*
X96520000Y-78105000D03*
X99060000Y-78105000D03*
X101600000Y-78105000D03*
X104140000Y-78105000D03*
X106680000Y-78105000D03*
X109220000Y-78105000D03*
X111760000Y-78105000D03*
X114300000Y-78105000D03*
X116840000Y-78105000D03*
X119380000Y-78105000D03*
X121920000Y-78105000D03*
X124460000Y-78105000D03*
X127000000Y-78105000D03*
X129540000Y-78105000D03*
X132080000Y-78105000D03*
X134620000Y-78105000D03*
X137160000Y-78105000D03*
X139700000Y-78105000D03*
X142240000Y-78105000D03*
X144780000Y-78105000D03*
X147320000Y-78105000D03*
X149860000Y-78105000D03*
X152400000Y-78105000D03*
X154940000Y-78105000D03*
X71120000Y-80645000D03*
X73660000Y-80645000D03*
X76200000Y-80645000D03*
X78740000Y-80645000D03*
X81280000Y-80645000D03*
X83820000Y-80645000D03*
X86360000Y-80645000D03*
X88900000Y-80645000D03*
X91440000Y-80645000D03*
X93980000Y-80645000D03*
X96520000Y-80645000D03*
X99060000Y-80645000D03*
X101600000Y-80645000D03*
X104140000Y-80645000D03*
X106680000Y-80645000D03*
X109220000Y-80645000D03*
X111760000Y-80645000D03*
X114300000Y-80645000D03*
X116840000Y-80645000D03*
X119380000Y-80645000D03*
X121920000Y-80645000D03*
X124460000Y-80645000D03*
X127000000Y-80645000D03*
X129540000Y-80645000D03*
X132080000Y-80645000D03*
X134620000Y-80645000D03*
X137160000Y-80645000D03*
X139700000Y-80645000D03*
X142240000Y-80645000D03*
X144780000Y-80645000D03*
X147320000Y-80645000D03*
X149860000Y-80645000D03*
X152400000Y-80645000D03*
X154940000Y-80645000D03*
X71120000Y-83185000D03*
X73660000Y-83185000D03*
X76200000Y-83185000D03*
X78740000Y-83185000D03*
X81280000Y-83185000D03*
X83820000Y-83185000D03*
X86360000Y-83185000D03*
X88900000Y-83185000D03*
X91440000Y-83185000D03*
X93980000Y-83185000D03*
X96520000Y-83185000D03*
X99060000Y-83185000D03*
X101600000Y-83185000D03*
X104140000Y-83185000D03*
X106680000Y-83185000D03*
X109220000Y-83185000D03*
X111760000Y-83185000D03*
X114300000Y-83185000D03*
X116840000Y-83185000D03*
X119380000Y-83185000D03*
X121920000Y-83185000D03*
X124460000Y-83185000D03*
X127000000Y-83185000D03*
X129540000Y-83185000D03*
X132080000Y-83185000D03*
X134620000Y-83185000D03*
X137160000Y-83185000D03*
X139700000Y-83185000D03*
X142240000Y-83185000D03*
X144780000Y-83185000D03*
X147320000Y-83185000D03*
X149860000Y-83185000D03*
X152400000Y-83185000D03*
X154940000Y-83185000D03*
X71120000Y-85725000D03*
X73660000Y-85725000D03*
X76200000Y-85725000D03*
X78740000Y-85725000D03*
X81280000Y-85725000D03*
X83820000Y-85725000D03*
X86360000Y-85725000D03*
X88900000Y-85725000D03*
X91440000Y-85725000D03*
X93980000Y-85725000D03*
X96520000Y-85725000D03*
X99060000Y-85725000D03*
X101600000Y-85725000D03*
X104140000Y-85725000D03*
X106680000Y-85725000D03*
X109220000Y-85725000D03*
X111760000Y-85725000D03*
X114300000Y-85725000D03*
X116840000Y-85725000D03*
X119380000Y-85725000D03*
X121920000Y-85725000D03*
X124460000Y-85725000D03*
X127000000Y-85725000D03*
X129540000Y-85725000D03*
X132080000Y-85725000D03*
X134620000Y-85725000D03*
X137160000Y-85725000D03*
X139700000Y-85725000D03*
X142240000Y-85725000D03*
X144780000Y-85725000D03*
X147320000Y-85725000D03*
X149860000Y-85725000D03*
X152400000Y-85725000D03*
X154940000Y-85725000D03*
X71120000Y-88265000D03*
X73660000Y-88265000D03*
X76200000Y-88265000D03*
X78740000Y-88265000D03*
X81280000Y-88265000D03*
X83820000Y-88265000D03*
X86360000Y-88265000D03*
X88900000Y-88265000D03*
X91440000Y-88265000D03*
X93980000Y-88265000D03*
X96520000Y-88265000D03*
X99060000Y-88265000D03*
X101600000Y-88265000D03*
X104140000Y-88265000D03*
X106680000Y-88265000D03*
X109220000Y-88265000D03*
X111760000Y-88265000D03*
X114300000Y-88265000D03*
X116840000Y-88265000D03*
X119380000Y-88265000D03*
X121920000Y-88265000D03*
X124460000Y-88265000D03*
X127000000Y-88265000D03*
X129540000Y-88265000D03*
X132080000Y-88265000D03*
X134620000Y-88265000D03*
X137160000Y-88265000D03*
X139700000Y-88265000D03*
X142240000Y-88265000D03*
X144780000Y-88265000D03*
X147320000Y-88265000D03*
X149860000Y-88265000D03*
X152400000Y-88265000D03*
X154940000Y-88265000D03*
X157480000Y-60325000D03*
X160020000Y-60325000D03*
X162560000Y-60325000D03*
X165100000Y-60325000D03*
D21*
X193675000Y-135255000D03*
D22*
X198755000Y-135255000D03*
X203835000Y-135255000D03*
X208915000Y-135255000D03*
D12*
X191770000Y-49715000D03*
X186770000Y-49715000D03*
X170180000Y-60920000D03*
X170180000Y-59670000D03*
X170180000Y-57170000D03*
X170180000Y-55920000D03*
D15*
X142248750Y-94615000D03*
D16*
X132088750Y-94615000D03*
D18*
X132080000Y-90805000D03*
D36*
X188025000Y-97100000D03*
D37*
X194025000Y-97100000D03*
X182025000Y-63500000D03*
X200025000Y-63500000D03*
D14*
X68580000Y-70485000D03*
D18*
X91440000Y-90805000D03*
D34*
X86360000Y-109220000D03*
D35*
X86360000Y-114300000D03*
D38*
X202565000Y-103505000D03*
D13*
X202565000Y-106045000D03*
X210185000Y-106045000D03*
X210185000Y-103505000D03*
D21*
X91457500Y-135255000D03*
D22*
X96537500Y-135255000D03*
X101617500Y-135255000D03*
D21*
X71137500Y-126365000D03*
D22*
X76217500Y-126365000D03*
X81297500Y-126365000D03*
D17*
X214630000Y-51435000D03*
X209530000Y-49835000D03*
D29*
X161000000Y-142000000D03*
D18*
X167640000Y-75565000D03*
D34*
X66040000Y-109220000D03*
D35*
X66040000Y-114300000D03*
D29*
X67100000Y-142000000D03*
D21*
X172720000Y-135255000D03*
D22*
X177800000Y-135255000D03*
X182880000Y-135255000D03*
X187960000Y-135255000D03*
D29*
X220500000Y-54000000D03*
D18*
X167640000Y-88265000D03*
D21*
X71137500Y-135255000D03*
D22*
X76217500Y-135255000D03*
X81297500Y-135255000D03*
D34*
X106697500Y-109220000D03*
D35*
X106697500Y-114300000D03*
D38*
X181620000Y-103500000D03*
D13*
X181620000Y-106040000D03*
X189240000Y-106040000D03*
X189240000Y-103500000D03*
D18*
X144780000Y-90805000D03*
D12*
X175260000Y-60920000D03*
X175260000Y-59670000D03*
X175260000Y-57170000D03*
X175260000Y-55920000D03*
D21*
X111777500Y-135255000D03*
D22*
X116857500Y-135255000D03*
X121937500Y-135255000D03*
D12*
X177800000Y-111125000D03*
D13*
X193040000Y-111125000D03*
D18*
X167640000Y-65405000D03*
X167640000Y-67945000D03*
D14*
X68580000Y-80645000D03*
D15*
X101617500Y-94615000D03*
D16*
X91457500Y-94615000D03*
D30*
X213995000Y-121585000D03*
D31*
X213995000Y-126665000D03*
%LPD*%
M02*
