M48
; DRILL file {KiCad 9.0.2-9.0.2-0~ubuntu24.04.1} date 2025-08-24T21:10:53+0200
; FORMAT={-:-/ absolute / metric / decimal}
; #@! TF.CreationDate,2025-08-24T21:10:53+02:00
; #@! TF.GenerationSoftware,Kicad,Pcbnew,9.0.2-9.0.2-0~ubuntu24.04.1
; #@! TF.FileFunction,Plated,1,2,PTH
FMAT,2
METRIC
; #@! TA.AperFunction,Plated,PTH,ComponentDrill
T1C0.700
; #@! TA.AperFunction,Plated,PTH,ComponentDrill
T2C0.710
; #@! TA.AperFunction,Plated,PTH,ComponentDrill
T3C0.762
; #@! TA.AperFunction,Plated,PTH,ComponentDrill
T4C0.800
; #@! TA.AperFunction,Plated,PTH,ComponentDrill
T5C0.900
; #@! TA.AperFunction,Plated,PTH,ComponentDrill
T6C1.000
; #@! TA.AperFunction,Plated,PTH,ComponentDrill
T7C1.020
; #@! TA.AperFunction,Plated,PTH,ComponentDrill
T8C1.100
; #@! TA.AperFunction,Plated,PTH,ComponentDrill
T9C1.200
; #@! TA.AperFunction,Plated,PTH,ComponentDrill
T10C1.300
%
G90
G05
T1
X71.12Y-90.805
X91.44Y-90.805
X111.76Y-90.805
X132.08Y-90.805
X142.24Y-90.805
X144.78Y-90.805
X157.48Y-50.165
X157.48Y-57.785
X167.64Y-65.405
X167.64Y-67.945
X167.64Y-70.485
X167.64Y-73.025
X167.64Y-75.565
X167.64Y-78.105
X167.64Y-80.645
X167.64Y-83.185
X167.64Y-85.725
X167.64Y-88.265
T2
X174.46Y-105.42
X176.06Y-100.32
X209.53Y-49.835
X214.63Y-51.435
T3
X68.58Y-60.325
X68.58Y-62.865
X68.58Y-65.405
X68.58Y-67.945
X68.58Y-70.485
X68.58Y-73.025
X68.58Y-75.565
X68.58Y-78.105
X68.58Y-80.645
X68.58Y-83.185
X68.58Y-85.725
X68.58Y-88.265
X71.12Y-45.085
X71.12Y-47.625
X71.12Y-50.165
X71.12Y-52.705
X71.12Y-55.245
X71.12Y-57.785
X71.12Y-60.325
X71.12Y-62.865
X71.12Y-65.405
X71.12Y-67.945
X71.12Y-70.485
X71.12Y-73.025
X71.12Y-75.565
X71.12Y-78.105
X71.12Y-80.645
X71.12Y-83.185
X71.12Y-85.725
X71.12Y-88.265
X73.66Y-45.085
X73.66Y-47.625
X73.66Y-50.165
X73.66Y-52.705
X73.66Y-55.245
X73.66Y-57.785
X73.66Y-60.325
X73.66Y-62.865
X73.66Y-65.405
X73.66Y-67.945
X73.66Y-70.485
X73.66Y-73.025
X73.66Y-75.565
X73.66Y-78.105
X73.66Y-80.645
X73.66Y-83.185
X73.66Y-85.725
X73.66Y-88.265
X76.2Y-45.085
X76.2Y-47.625
X76.2Y-50.165
X76.2Y-52.705
X76.2Y-55.245
X76.2Y-57.785
X76.2Y-60.325
X76.2Y-62.865
X76.2Y-65.405
X76.2Y-67.945
X76.2Y-70.485
X76.2Y-73.025
X76.2Y-75.565
X76.2Y-78.105
X76.2Y-80.645
X76.2Y-83.185
X76.2Y-85.725
X76.2Y-88.265
X78.74Y-45.085
X78.74Y-47.625
X78.74Y-50.165
X78.74Y-52.705
X78.74Y-55.245
X78.74Y-57.785
X78.74Y-60.325
X78.74Y-62.865
X78.74Y-65.405
X78.74Y-67.945
X78.74Y-70.485
X78.74Y-73.025
X78.74Y-75.565
X78.74Y-78.105
X78.74Y-80.645
X78.74Y-83.185
X78.74Y-85.725
X78.74Y-88.265
X81.28Y-45.085
X81.28Y-47.625
X81.28Y-50.165
X81.28Y-52.705
X81.28Y-55.245
X81.28Y-57.785
X81.28Y-60.325
X81.28Y-62.865
X81.28Y-65.405
X81.28Y-67.945
X81.28Y-70.485
X81.28Y-73.025
X81.28Y-75.565
X81.28Y-78.105
X81.28Y-80.645
X81.28Y-83.185
X81.28Y-85.725
X81.28Y-88.265
X83.82Y-45.085
X83.82Y-47.625
X83.82Y-50.165
X83.82Y-52.705
X83.82Y-55.245
X83.82Y-57.785
X83.82Y-60.325
X83.82Y-62.865
X83.82Y-65.405
X83.82Y-67.945
X83.82Y-70.485
X83.82Y-73.025
X83.82Y-75.565
X83.82Y-78.105
X83.82Y-80.645
X83.82Y-83.185
X83.82Y-85.725
X83.82Y-88.265
X86.36Y-45.085
X86.36Y-47.625
X86.36Y-50.165
X86.36Y-52.705
X86.36Y-55.245
X86.36Y-57.785
X86.36Y-60.325
X86.36Y-62.865
X86.36Y-65.405
X86.36Y-67.945
X86.36Y-70.485
X86.36Y-73.025
X86.36Y-75.565
X86.36Y-78.105
X86.36Y-80.645
X86.36Y-83.185
X86.36Y-85.725
X86.36Y-88.265
X88.9Y-45.085
X88.9Y-47.625
X88.9Y-50.165
X88.9Y-52.705
X88.9Y-55.245
X88.9Y-57.785
X88.9Y-60.325
X88.9Y-62.865
X88.9Y-65.405
X88.9Y-67.945
X88.9Y-70.485
X88.9Y-73.025
X88.9Y-75.565
X88.9Y-78.105
X88.9Y-80.645
X88.9Y-83.185
X88.9Y-85.725
X88.9Y-88.265
X91.44Y-45.085
X91.44Y-47.625
X91.44Y-50.165
X91.44Y-52.705
X91.44Y-55.245
X91.44Y-57.785
X91.44Y-60.325
X91.44Y-62.865
X91.44Y-65.405
X91.44Y-67.945
X91.44Y-70.485
X91.44Y-73.025
X91.44Y-75.565
X91.44Y-78.105
X91.44Y-80.645
X91.44Y-83.185
X91.44Y-85.725
X91.44Y-88.265
X93.98Y-45.085
X93.98Y-47.625
X93.98Y-50.165
X93.98Y-52.705
X93.98Y-55.245
X93.98Y-57.785
X93.98Y-60.325
X93.98Y-62.865
X93.98Y-65.405
X93.98Y-67.945
X93.98Y-70.485
X93.98Y-73.025
X93.98Y-75.565
X93.98Y-78.105
X93.98Y-80.645
X93.98Y-83.185
X93.98Y-85.725
X93.98Y-88.265
X96.52Y-45.085
X96.52Y-47.625
X96.52Y-50.165
X96.52Y-52.705
X96.52Y-55.245
X96.52Y-57.785
X96.52Y-60.325
X96.52Y-62.865
X96.52Y-65.405
X96.52Y-67.945
X96.52Y-70.485
X96.52Y-73.025
X96.52Y-75.565
X96.52Y-78.105
X96.52Y-80.645
X96.52Y-83.185
X96.52Y-85.725
X96.52Y-88.265
X99.06Y-45.085
X99.06Y-47.625
X99.06Y-50.165
X99.06Y-52.705
X99.06Y-55.245
X99.06Y-57.785
X99.06Y-60.325
X99.06Y-62.865
X99.06Y-65.405
X99.06Y-67.945
X99.06Y-70.485
X99.06Y-73.025
X99.06Y-75.565
X99.06Y-78.105
X99.06Y-80.645
X99.06Y-83.185
X99.06Y-85.725
X99.06Y-88.265
X101.6Y-45.085
X101.6Y-47.625
X101.6Y-50.165
X101.6Y-52.705
X101.6Y-55.245
X101.6Y-57.785
X101.6Y-60.325
X101.6Y-62.865
X101.6Y-65.405
X101.6Y-67.945
X101.6Y-70.485
X101.6Y-73.025
X101.6Y-75.565
X101.6Y-78.105
X101.6Y-80.645
X101.6Y-83.185
X101.6Y-85.725
X101.6Y-88.265
X104.14Y-45.085
X104.14Y-47.625
X104.14Y-50.165
X104.14Y-52.705
X104.14Y-55.245
X104.14Y-57.785
X104.14Y-60.325
X104.14Y-62.865
X104.14Y-65.405
X104.14Y-67.945
X104.14Y-70.485
X104.14Y-73.025
X104.14Y-75.565
X104.14Y-78.105
X104.14Y-80.645
X104.14Y-83.185
X104.14Y-85.725
X104.14Y-88.265
X106.68Y-45.085
X106.68Y-47.625
X106.68Y-50.165
X106.68Y-52.705
X106.68Y-55.245
X106.68Y-57.785
X106.68Y-60.325
X106.68Y-62.865
X106.68Y-65.405
X106.68Y-67.945
X106.68Y-70.485
X106.68Y-73.025
X106.68Y-75.565
X106.68Y-78.105
X106.68Y-80.645
X106.68Y-83.185
X106.68Y-85.725
X106.68Y-88.265
X109.22Y-45.085
X109.22Y-47.625
X109.22Y-50.165
X109.22Y-52.705
X109.22Y-55.245
X109.22Y-57.785
X109.22Y-60.325
X109.22Y-62.865
X109.22Y-65.405
X109.22Y-67.945
X109.22Y-70.485
X109.22Y-73.025
X109.22Y-75.565
X109.22Y-78.105
X109.22Y-80.645
X109.22Y-83.185
X109.22Y-85.725
X109.22Y-88.265
X111.76Y-45.085
X111.76Y-47.625
X111.76Y-50.165
X111.76Y-52.705
X111.76Y-55.245
X111.76Y-57.785
X111.76Y-60.325
X111.76Y-62.865
X111.76Y-65.405
X111.76Y-67.945
X111.76Y-70.485
X111.76Y-73.025
X111.76Y-75.565
X111.76Y-78.105
X111.76Y-80.645
X111.76Y-83.185
X111.76Y-85.725
X111.76Y-88.265
X114.3Y-45.085
X114.3Y-47.625
X114.3Y-50.165
X114.3Y-52.705
X114.3Y-55.245
X114.3Y-57.785
X114.3Y-60.325
X114.3Y-62.865
X114.3Y-65.405
X114.3Y-67.945
X114.3Y-70.485
X114.3Y-73.025
X114.3Y-75.565
X114.3Y-78.105
X114.3Y-80.645
X114.3Y-83.185
X114.3Y-85.725
X114.3Y-88.265
X116.84Y-45.085
X116.84Y-47.625
X116.84Y-50.165
X116.84Y-52.705
X116.84Y-55.245
X116.84Y-57.785
X116.84Y-60.325
X116.84Y-62.865
X116.84Y-65.405
X116.84Y-67.945
X116.84Y-70.485
X116.84Y-73.025
X116.84Y-75.565
X116.84Y-78.105
X116.84Y-80.645
X116.84Y-83.185
X116.84Y-85.725
X116.84Y-88.265
X119.38Y-45.085
X119.38Y-47.625
X119.38Y-50.165
X119.38Y-52.705
X119.38Y-55.245
X119.38Y-57.785
X119.38Y-60.325
X119.38Y-62.865
X119.38Y-65.405
X119.38Y-67.945
X119.38Y-70.485
X119.38Y-73.025
X119.38Y-75.565
X119.38Y-78.105
X119.38Y-80.645
X119.38Y-83.185
X119.38Y-85.725
X119.38Y-88.265
X121.92Y-45.085
X121.92Y-47.625
X121.92Y-50.165
X121.92Y-52.705
X121.92Y-55.245
X121.92Y-57.785
X121.92Y-60.325
X121.92Y-62.865
X121.92Y-65.405
X121.92Y-67.945
X121.92Y-70.485
X121.92Y-73.025
X121.92Y-75.565
X121.92Y-78.105
X121.92Y-80.645
X121.92Y-83.185
X121.92Y-85.725
X121.92Y-88.265
X124.46Y-45.085
X124.46Y-47.625
X124.46Y-50.165
X124.46Y-52.705
X124.46Y-55.245
X124.46Y-57.785
X124.46Y-60.325
X124.46Y-62.865
X124.46Y-65.405
X124.46Y-67.945
X124.46Y-70.485
X124.46Y-73.025
X124.46Y-75.565
X124.46Y-78.105
X124.46Y-80.645
X124.46Y-83.185
X124.46Y-85.725
X124.46Y-88.265
X127.0Y-45.085
X127.0Y-47.625
X127.0Y-50.165
X127.0Y-52.705
X127.0Y-55.245
X127.0Y-57.785
X127.0Y-60.325
X127.0Y-62.865
X127.0Y-65.405
X127.0Y-67.945
X127.0Y-70.485
X127.0Y-73.025
X127.0Y-75.565
X127.0Y-78.105
X127.0Y-80.645
X127.0Y-83.185
X127.0Y-85.725
X127.0Y-88.265
X129.54Y-45.085
X129.54Y-47.625
X129.54Y-50.165
X129.54Y-52.705
X129.54Y-55.245
X129.54Y-57.785
X129.54Y-60.325
X129.54Y-62.865
X129.54Y-65.405
X129.54Y-67.945
X129.54Y-70.485
X129.54Y-73.025
X129.54Y-75.565
X129.54Y-78.105
X129.54Y-80.645
X129.54Y-83.185
X129.54Y-85.725
X129.54Y-88.265
X132.08Y-45.085
X132.08Y-47.625
X132.08Y-50.165
X132.08Y-52.705
X132.08Y-55.245
X132.08Y-57.785
X132.08Y-60.325
X132.08Y-62.865
X132.08Y-65.405
X132.08Y-67.945
X132.08Y-70.485
X132.08Y-73.025
X132.08Y-75.565
X132.08Y-78.105
X132.08Y-80.645
X132.08Y-83.185
X132.08Y-85.725
X132.08Y-88.265
X134.62Y-45.085
X134.62Y-47.625
X134.62Y-50.165
X134.62Y-52.705
X134.62Y-55.245
X134.62Y-57.785
X134.62Y-60.325
X134.62Y-62.865
X134.62Y-65.405
X134.62Y-67.945
X134.62Y-70.485
X134.62Y-73.025
X134.62Y-75.565
X134.62Y-78.105
X134.62Y-80.645
X134.62Y-83.185
X134.62Y-85.725
X134.62Y-88.265
X137.16Y-45.085
X137.16Y-47.625
X137.16Y-50.165
X137.16Y-52.705
X137.16Y-55.245
X137.16Y-57.785
X137.16Y-60.325
X137.16Y-62.865
X137.16Y-65.405
X137.16Y-67.945
X137.16Y-70.485
X137.16Y-73.025
X137.16Y-75.565
X137.16Y-78.105
X137.16Y-80.645
X137.16Y-83.185
X137.16Y-85.725
X137.16Y-88.265
X139.7Y-45.085
X139.7Y-47.625
X139.7Y-50.165
X139.7Y-52.705
X139.7Y-55.245
X139.7Y-57.785
X139.7Y-60.325
X139.7Y-62.865
X139.7Y-65.405
X139.7Y-67.945
X139.7Y-70.485
X139.7Y-73.025
X139.7Y-75.565
X139.7Y-78.105
X139.7Y-80.645
X139.7Y-83.185
X139.7Y-85.725
X139.7Y-88.265
X142.24Y-45.085
X142.24Y-47.625
X142.24Y-50.165
X142.24Y-52.705
X142.24Y-55.245
X142.24Y-57.785
X142.24Y-60.325
X142.24Y-62.865
X142.24Y-65.405
X142.24Y-67.945
X142.24Y-70.485
X142.24Y-73.025
X142.24Y-75.565
X142.24Y-78.105
X142.24Y-80.645
X142.24Y-83.185
X142.24Y-85.725
X142.24Y-88.265
X144.78Y-45.085
X144.78Y-47.625
X144.78Y-50.165
X144.78Y-52.705
X144.78Y-55.245
X144.78Y-57.785
X144.78Y-60.325
X144.78Y-62.865
X144.78Y-65.405
X144.78Y-67.945
X144.78Y-70.485
X144.78Y-73.025
X144.78Y-75.565
X144.78Y-78.105
X144.78Y-80.645
X144.78Y-83.185
X144.78Y-85.725
X144.78Y-88.265
X147.32Y-45.085
X147.32Y-47.625
X147.32Y-50.165
X147.32Y-52.705
X147.32Y-55.245
X147.32Y-57.785
X147.32Y-60.325
X147.32Y-62.865
X147.32Y-65.405
X147.32Y-67.945
X147.32Y-70.485
X147.32Y-73.025
X147.32Y-75.565
X147.32Y-78.105
X147.32Y-80.645
X147.32Y-83.185
X147.32Y-85.725
X147.32Y-88.265
X149.86Y-45.085
X149.86Y-47.625
X149.86Y-50.165
X149.86Y-52.705
X149.86Y-55.245
X149.86Y-57.785
X149.86Y-60.325
X149.86Y-62.865
X149.86Y-65.405
X149.86Y-67.945
X149.86Y-70.485
X149.86Y-73.025
X149.86Y-75.565
X149.86Y-78.105
X149.86Y-80.645
X149.86Y-83.185
X149.86Y-85.725
X149.86Y-88.265
X152.4Y-45.085
X152.4Y-47.625
X152.4Y-50.165
X152.4Y-52.705
X152.4Y-55.245
X152.4Y-57.785
X152.4Y-60.325
X152.4Y-62.865
X152.4Y-65.405
X152.4Y-67.945
X152.4Y-70.485
X152.4Y-73.025
X152.4Y-75.565
X152.4Y-78.105
X152.4Y-80.645
X152.4Y-83.185
X152.4Y-85.725
X152.4Y-88.265
X154.94Y-45.085
X154.94Y-47.625
X154.94Y-50.165
X154.94Y-52.705
X154.94Y-55.245
X154.94Y-57.785
X154.94Y-60.325
X154.94Y-62.865
X154.94Y-65.405
X154.94Y-67.945
X154.94Y-70.485
X154.94Y-73.025
X154.94Y-75.565
X154.94Y-78.105
X154.94Y-80.645
X154.94Y-83.185
X154.94Y-85.725
X154.94Y-88.265
X157.48Y-60.325
X157.48Y-62.865
X157.48Y-65.405
X157.48Y-67.945
X157.48Y-70.485
X157.48Y-73.025
X157.48Y-75.565
X157.48Y-78.105
X157.48Y-80.645
X157.48Y-83.185
X157.48Y-85.725
X157.48Y-88.265
X160.02Y-60.325
X160.02Y-62.865
X160.02Y-65.405
X160.02Y-67.945
X160.02Y-70.485
X160.02Y-73.025
X160.02Y-75.565
X160.02Y-78.105
X160.02Y-80.645
X160.02Y-83.185
X160.02Y-85.725
X160.02Y-88.265
X162.56Y-60.325
X162.56Y-62.865
X162.56Y-65.405
X162.56Y-67.945
X162.56Y-70.485
X162.56Y-73.025
X162.56Y-75.565
X162.56Y-78.105
X162.56Y-80.645
X162.56Y-83.185
X162.56Y-85.725
X162.56Y-88.265
X165.1Y-60.325
X165.1Y-62.865
X165.1Y-65.405
X165.1Y-67.945
X165.1Y-70.485
X165.1Y-73.025
X165.1Y-75.565
X165.1Y-78.105
X165.1Y-80.645
X165.1Y-83.185
X165.1Y-85.725
X165.1Y-88.265
T4
X170.18Y-55.92
X170.18Y-57.17
X170.18Y-59.67
X170.18Y-60.92
X170.815Y-48.895
X173.355Y-48.895
X175.26Y-55.92
X175.26Y-57.17
X175.26Y-59.67
X175.26Y-60.92
X175.895Y-48.895
X177.8Y-111.125
X181.62Y-103.5
X181.62Y-106.04
X182.92Y-122.555
X186.77Y-49.715
X187.92Y-122.555
X189.24Y-103.5
X189.24Y-106.04
X191.77Y-49.715
X193.04Y-111.125
X198.16Y-49.715
X198.755Y-111.125
X202.565Y-103.505
X202.565Y-106.045
X203.16Y-49.715
X203.835Y-122.555
X208.835Y-122.555
X210.185Y-103.505
X210.185Y-106.045
X213.995Y-111.125
T5
X180.34Y-55.245
X180.34Y-57.785
T6
X182.025Y-63.5
X188.025Y-97.1
X194.025Y-97.1
X200.025Y-63.5
T8
X71.138Y-94.615
X81.297Y-94.615
X91.457Y-94.615
X101.617Y-94.615
X111.795Y-94.615
X121.955Y-94.615
X132.089Y-94.615
X142.249Y-94.615
X177.8Y-117.475
X177.8Y-127.635
X198.755Y-117.475
X198.755Y-127.635
T9
X71.138Y-126.365
X71.138Y-135.255
X76.218Y-126.365
X76.218Y-135.255
X81.297Y-126.365
X81.297Y-135.255
X91.457Y-126.365
X91.457Y-135.255
X96.537Y-126.365
X96.537Y-135.255
X101.617Y-126.365
X101.617Y-135.255
X111.777Y-126.365
X111.777Y-135.255
X116.858Y-126.365
X116.858Y-135.255
X121.938Y-126.365
X121.938Y-135.255
X132.089Y-126.365
X132.089Y-135.255
X137.169Y-126.365
X137.169Y-135.255
X142.249Y-126.365
X142.249Y-135.255
X152.4Y-135.255
X157.48Y-135.255
X162.56Y-135.255
X172.72Y-135.255
X177.8Y-135.255
X182.88Y-135.255
X187.96Y-135.255
X193.04Y-121.585
X193.04Y-126.665
X193.675Y-135.255
X198.755Y-135.255
X203.835Y-135.255
X208.915Y-135.255
X213.36Y-60.325
X213.36Y-65.405
X213.36Y-70.485
X213.36Y-75.565
X213.36Y-80.645
X213.36Y-85.725
X213.36Y-90.805
X213.36Y-95.885
X213.995Y-121.585
X213.995Y-126.665
T10
X66.04Y-109.22
X66.04Y-114.3
X70.2Y-102.965
X70.2Y-115.165
X76.2Y-100.965
X82.2Y-102.965
X82.2Y-115.165
X86.36Y-109.22
X86.36Y-114.3
X90.537Y-102.965
X90.537Y-115.165
X96.537Y-100.965
X102.537Y-102.965
X102.537Y-115.165
X106.697Y-109.22
X106.697Y-114.3
X110.875Y-102.965
X110.875Y-115.165
X116.875Y-100.965
X122.875Y-102.965
X122.875Y-115.165
X127.0Y-109.22
X127.0Y-114.3
X131.16Y-102.965
X131.16Y-115.165
X137.16Y-100.965
X143.16Y-102.965
X143.16Y-115.165
T7
G00X156.42Y-101.22
M15
G01X157.27Y-101.22
M16
G05
G00X156.42Y-108.49
M15
G01X157.27Y-108.49
M16
G05
G00X156.42Y-117.57
M15
G01X157.27Y-117.57
M16
G05
G00X156.42Y-124.84
M15
G01X157.27Y-124.84
M16
G05
G00X167.215Y-101.315
M15
G01X168.065Y-101.315
M16
G05
G00X167.215Y-108.585
M15
G01X168.065Y-108.585
M16
G05
G00X167.215Y-117.665
M15
G01X168.065Y-117.665
M16
G05
G00X167.215Y-124.935
M15
G01X168.065Y-124.935
M16
G05
M30
